<?xml version="1.0" encoding="UTF-8" standalone="no"?>
<!DOCTYPE svg PUBLIC "-//W3C//DTD SVG 1.1//EN"
 "http://www.w3.org/Graphics/SVG/1.1/DTD/svg11.dtd">
<!-- Generated by graphviz version 14.1.2 (20260126.1125)
 -->
<!-- Title: Immunopipe Pages: 1 -->
<svg width="1263pt" height="967pt"
 viewBox="0.00 0.00 1263.00 967.00" xmlns="http://www.w3.org/2000/svg" xmlns:xlink="http://www.w3.org/1999/xlink">
<g id="graph0" class="graph" transform="scale(1 1) rotate(0) translate(4 963.25)">
<title>Immunopipe</title>
<polygon fill="white" stroke="none" points="-4,4 -4,-963.25 1259.25,-963.25 1259.25,4 -4,4"/>
<text xml:space="preserve" text-anchor="middle" x="627.62" y="-941.95" font-family="Helvetica,sans-Serif" font-size="14.00">Immunopipe</text>
<text xml:space="preserve" text-anchor="middle" x="627.62" y="-926.2" font-family="Helvetica,sans-Serif" font-size="14.00"> </text>
<g id="clust1" class="cluster">
<title>cluster_ScrnaMetabolicLandscape</title>
<polygon fill="#eeeeee" stroke="#eeeeee" points="8,-8 8,-155.75 518,-155.75 518,-8 8,-8"/>
<text xml:space="preserve" text-anchor="middle" x="95.88" y="-138.45" font-family="Helvetica,sans-Serif" font-size="14.00">ScrnaMetabolicLandscape</text>
</g>
<!-- MetabolicPathwayHeterogeneity -->
<g id="node1" class="node">
<title>MetabolicPathwayHeterogeneity</title>
<g id="a_node1"><a xlink:title="Calculate Metabolic Pathway heterogeneity.">
<polygon fill="#f26419" stroke="none" points="205.62,-52 16.38,-52 16.38,-16 205.62,-16 205.62,-52"/>
<text xml:space="preserve" text-anchor="middle" x="111" y="-29.73" font-family="Helvetica,sans-Serif" font-size="12.00" fill="#ffffff">MetabolicPathwayHeterogeneity</text>
</a>
</g>
</g>
<!-- MetabolicPathwayActivity -->
<g id="node2" class="node">
<title>MetabolicPathwayActivity</title>
<g id="a_node2"><a xlink:title="This process calculates the pathway activities in different groups and subsets.">
<polygon fill="#f26419" stroke="none" points="376.25,-52 223.75,-52 223.75,-16 376.25,-16 376.25,-52"/>
<text xml:space="preserve" text-anchor="middle" x="300" y="-29.73" font-family="Helvetica,sans-Serif" font-size="12.00" fill="#ffffff">MetabolicPathwayActivity</text>
</a>
</g>
</g>
<!-- MetabolicInput -->
<g id="node3" class="node">
<title>MetabolicInput</title>
<g id="a_node3"><a xlink:title="This process takes Seurat object as input and pass it to the next processes in the `ScrnaMetabolicLandscape` group.">
<path fill="#219ebc" stroke="none" d="M411,-124C411,-124 341,-124 341,-124 335,-124 329,-118 329,-112 329,-112 329,-100 329,-100 329,-94 335,-88 341,-88 341,-88 411,-88 411,-88 417,-88 423,-94 423,-100 423,-100 423,-112 423,-112 423,-118 417,-124 411,-124"/>
<text xml:space="preserve" text-anchor="middle" x="376" y="-101.72" font-family="Helvetica,sans-Serif" font-size="12.00" fill="#ffffff">MetabolicInput</text>
</a>
</g>
</g>
<!-- MetabolicInput&#45;&gt;MetabolicPathwayHeterogeneity -->
<g id="edge2" class="edge">
<title>MetabolicInput&#45;&gt;MetabolicPathwayHeterogeneity</title>
<path fill="none" stroke="#3d314a" d="M329.23,-92.65C289.11,-82.05 230.62,-66.6 184.29,-54.36"/>
<polygon fill="#3d314a" stroke="#3d314a" points="185.1,-51.68 176.65,-52.34 183.67,-57.09 185.1,-51.68"/>
</g>
<!-- MetabolicInput&#45;&gt;MetabolicPathwayActivity -->
<g id="edge1" class="edge">
<title>MetabolicInput&#45;&gt;MetabolicPathwayActivity</title>
<path fill="none" stroke="#3d314a" d="M357.6,-88.05C347.8,-79.03 335.6,-67.79 324.96,-57.99"/>
<polygon fill="#3d314a" stroke="#3d314a" points="327.12,-56.17 319.34,-52.81 323.33,-60.29 327.12,-56.17"/>
</g>
<!-- MetabolicFeatures -->
<g id="node4" class="node">
<title>MetabolicFeatures</title>
<g id="a_node4"><a xlink:title="This process performs enrichment analysis for the metabolic pathways for each group in each subset.">
<polygon fill="#f26419" stroke="none" points="509.5,-52 394.5,-52 394.5,-16 509.5,-16 509.5,-52"/>
<text xml:space="preserve" text-anchor="middle" x="452" y="-29.73" font-family="Helvetica,sans-Serif" font-size="12.00" fill="#ffffff">MetabolicFeatures</text>
</a>
</g>
</g>
<!-- MetabolicInput&#45;&gt;MetabolicFeatures -->
<g id="edge3" class="edge">
<title>MetabolicInput&#45;&gt;MetabolicFeatures</title>
<path fill="none" stroke="#3d314a" d="M394.4,-88.05C404.2,-79.03 416.4,-67.79 427.04,-57.99"/>
<polygon fill="#3d314a" stroke="#3d314a" points="428.67,-60.29 432.66,-52.81 424.88,-56.17 428.67,-60.29"/>
</g>
<!-- ClusterMarkers -->
<g id="node5" class="node">
<title>ClusterMarkers</title>
<g id="a_node5"><a xlink:title="Markers for clusters of all or selected T/B cells.">
<polygon fill="#f26419" stroke="none" points="550.5,-343.75 453.5,-343.75 453.5,-307.75 550.5,-307.75 550.5,-343.75"/>
<text xml:space="preserve" text-anchor="middle" x="502" y="-321.48" font-family="Helvetica,sans-Serif" font-size="12.00" fill="#ffffff">ClusterMarkers</text>
</a>
</g>
</g>
<!-- SeuratPreparing -->
<g id="node6" class="node">
<title>SeuratPreparing</title>
<g id="a_node6"><a xlink:title="Load, prepare and apply QC to data, using `Seurat`">
<path fill="#219ebc" stroke="none" d="M631.88,-847.75C631.88,-847.75 552.12,-847.75 552.12,-847.75 546.12,-847.75 540.12,-841.75 540.12,-835.75 540.12,-835.75 540.12,-823.75 540.12,-823.75 540.12,-817.75 546.12,-811.75 552.12,-811.75 552.12,-811.75 631.88,-811.75 631.88,-811.75 637.88,-811.75 643.88,-817.75 643.88,-823.75 643.88,-823.75 643.88,-835.75 643.88,-835.75 643.88,-841.75 637.88,-847.75 631.88,-847.75"/>
<text xml:space="preserve" text-anchor="middle" x="592" y="-825.48" font-family="Helvetica,sans-Serif" font-size="12.00" fill="#ffffff">SeuratPreparing</text>
</a>
</g>
</g>
<!-- SeuratClusteringOfAllCells -->
<g id="node18" class="node">
<title>SeuratClusteringOfAllCells</title>
<g id="a_node18"><a xlink:title="Cluster all cells, including T cells/non&#45;T cells and B cells/non&#45;Bcells using Seurat.">
<path fill="#219ebc" stroke="none" d="M627,-775.75C627,-775.75 491,-775.75 491,-775.75 485,-775.75 479,-769.75 479,-763.75 479,-763.75 479,-751.75 479,-751.75 479,-745.75 485,-739.75 491,-739.75 491,-739.75 627,-739.75 627,-739.75 633,-739.75 639,-745.75 639,-751.75 639,-751.75 639,-763.75 639,-763.75 639,-769.75 633,-775.75 627,-775.75"/>
<text xml:space="preserve" text-anchor="middle" x="559" y="-753.48" font-family="Helvetica,sans-Serif" font-size="12.00" fill="#ffffff">SeuratClusteringOfAllCells</text>
</a>
</g>
</g>
<!-- SeuratPreparing&#45;&gt;SeuratClusteringOfAllCells -->
<g id="edge23" class="edge">
<title>SeuratPreparing&#45;&gt;SeuratClusteringOfAllCells</title>
<path fill="none" stroke="#3d314a" d="M584.01,-811.8C580.08,-803.46 575.26,-793.24 570.9,-784"/>
<polygon fill="#3d314a" stroke="#3d314a" points="573.5,-782.95 567.56,-776.91 568.44,-785.34 573.5,-782.95"/>
</g>
<!-- ScRepCombiningExpression -->
<g id="node7" class="node">
<title>ScRepCombiningExpression</title>
<path fill="#219ebc" stroke="none" d="M876.62,-343.75C876.62,-343.75 729.38,-343.75 729.38,-343.75 723.38,-343.75 717.38,-337.75 717.38,-331.75 717.38,-331.75 717.38,-319.75 717.38,-319.75 717.38,-313.75 723.38,-307.75 729.38,-307.75 729.38,-307.75 876.62,-307.75 876.62,-307.75 882.62,-307.75 888.62,-313.75 888.62,-319.75 888.62,-319.75 888.62,-331.75 888.62,-331.75 888.62,-337.75 882.62,-343.75 876.62,-343.75"/>
<text xml:space="preserve" text-anchor="middle" x="803" y="-321.48" font-family="Helvetica,sans-Serif" font-size="12.00" fill="#ffffff">ScRepCombiningExpression</text>
</g>
<!-- CDR3Clustering -->
<g id="node9" class="node">
<title>CDR3Clustering</title>
<g id="a_node9"><a xlink:title="Cluster the TCR/BCR clones by their CDR3 sequences">
<path fill="#219ebc" stroke="none" d="M843.25,-271.75C843.25,-271.75 762.75,-271.75 762.75,-271.75 756.75,-271.75 750.75,-265.75 750.75,-259.75 750.75,-259.75 750.75,-247.75 750.75,-247.75 750.75,-241.75 756.75,-235.75 762.75,-235.75 762.75,-235.75 843.25,-235.75 843.25,-235.75 849.25,-235.75 855.25,-241.75 855.25,-247.75 855.25,-247.75 855.25,-259.75 855.25,-259.75 855.25,-265.75 849.25,-271.75 843.25,-271.75"/>
<text xml:space="preserve" text-anchor="middle" x="803" y="-249.47" font-family="Helvetica,sans-Serif" font-size="12.00" fill="#ffffff">CDR3Clustering</text>
</a>
</g>
</g>
<!-- ScRepCombiningExpression&#45;&gt;CDR3Clustering -->
<g id="edge26" class="edge">
<title>ScRepCombiningExpression&#45;&gt;CDR3Clustering</title>
<path fill="none" stroke="#3d314a" d="M803,-307.8C803,-299.72 803,-289.87 803,-280.86"/>
<polygon fill="#3d314a" stroke="#3d314a" points="805.8,-281.05 803,-273.05 800.2,-281.05 805.8,-281.05"/>
</g>
<!-- TopExpressingGenesOfAllCells -->
<g id="node8" class="node">
<title>TopExpressingGenesOfAllCells</title>
<g id="a_node8"><a xlink:title="Top expressing genes for clusters of all cells.">
<polygon fill="#f26419" stroke="none" points="462.38,-703.75 277.62,-703.75 277.62,-667.75 462.38,-667.75 462.38,-703.75"/>
<text xml:space="preserve" text-anchor="middle" x="370" y="-681.48" font-family="Helvetica,sans-Serif" font-size="12.00" fill="#ffffff">TopExpressingGenesOfAllCells</text>
</a>
</g>
</g>
<!-- TESSA -->
<g id="node14" class="node">
<title>TESSA</title>
<g id="a_node14"><a xlink:title="Tessa is a Bayesian model to integrate T cell receptor (TCR) sequence profiling with transcriptomes of T cells.">
<path fill="#219ebc" stroke="none" d="M819.25,-199.75C819.25,-199.75 786.75,-199.75 786.75,-199.75 780.75,-199.75 774.75,-193.75 774.75,-187.75 774.75,-187.75 774.75,-175.75 774.75,-175.75 774.75,-169.75 780.75,-163.75 786.75,-163.75 786.75,-163.75 819.25,-163.75 819.25,-163.75 825.25,-163.75 831.25,-169.75 831.25,-175.75 831.25,-175.75 831.25,-187.75 831.25,-187.75 831.25,-193.75 825.25,-199.75 819.25,-199.75"/>
<text xml:space="preserve" text-anchor="middle" x="803" y="-177.47" font-family="Helvetica,sans-Serif" font-size="12.00" fill="#ffffff">TESSA</text>
</a>
</g>
</g>
<!-- CDR3Clustering&#45;&gt;TESSA -->
<g id="edge14" class="edge">
<title>CDR3Clustering&#45;&gt;TESSA</title>
<path fill="none" stroke="#3d314a" d="M803,-235.8C803,-227.72 803,-217.87 803,-208.86"/>
<polygon fill="#3d314a" stroke="#3d314a" points="805.8,-209.05 803,-201.05 800.2,-209.05 805.8,-209.05"/>
</g>
<!-- CellCellCommunicationPlots -->
<g id="node10" class="node">
<title>CellCellCommunicationPlots</title>
<polygon fill="#f26419" stroke="none" points="1255.25,-52 1084.75,-52 1084.75,-16 1255.25,-16 1255.25,-52"/>
<text xml:space="preserve" text-anchor="middle" x="1170" y="-29.73" font-family="Helvetica,sans-Serif" font-size="12.00" fill="#ffffff">CellCellCommunicationPlots</text>
</g>
<!-- ClonalStats -->
<g id="node11" class="node">
<title>ClonalStats</title>
<polygon fill="#f26419" stroke="none" points="604.12,-124 525.88,-124 525.88,-88 604.12,-88 604.12,-124"/>
<text xml:space="preserve" text-anchor="middle" x="565" y="-101.72" font-family="Helvetica,sans-Serif" font-size="12.00" fill="#ffffff">ClonalStats</text>
</g>
<!-- SeuratClusterStats -->
<g id="node12" class="node">
<title>SeuratClusterStats</title>
<polygon fill="#f26419" stroke="none" points="738.25,-124 621.75,-124 621.75,-88 738.25,-88 738.25,-124"/>
<text xml:space="preserve" text-anchor="middle" x="680" y="-101.72" font-family="Helvetica,sans-Serif" font-size="12.00" fill="#ffffff">SeuratClusterStats</text>
</g>
<!-- SampleInfo -->
<g id="node13" class="node">
<title>SampleInfo</title>
<g id="a_node13"><a xlink:title="List sample information and perform statistics">
<polygon fill="#4c956c" stroke="none" points="632,-919.75 562.97,-901.75 632,-883.75 701.03,-901.75 632,-919.75"/>
<text xml:space="preserve" text-anchor="middle" x="632" y="-897.48" font-family="Helvetica,sans-Serif" font-size="12.00" fill="#ffffff">SampleInfo</text>
</a>
</g>
</g>
<!-- SampleInfo&#45;&gt;SeuratPreparing -->
<g id="edge8" class="edge">
<title>SampleInfo&#45;&gt;SeuratPreparing</title>
<path fill="none" stroke="#3d314a" d="M623.71,-886.25C618.71,-877.49 612.19,-866.08 606.37,-855.89"/>
<polygon fill="#3d314a" stroke="#3d314a" points="608.84,-854.57 602.44,-849.01 603.98,-857.35 608.84,-854.57"/>
</g>
<!-- ScRepLoading -->
<g id="node15" class="node">
<title>ScRepLoading</title>
<g id="a_node15"><a xlink:title="Load the single cell TCR/BCR data into a `scRepertoire` compatible object">
<path fill="#219ebc" stroke="none" d="M744.12,-775.75C744.12,-775.75 671.88,-775.75 671.88,-775.75 665.88,-775.75 659.88,-769.75 659.88,-763.75 659.88,-763.75 659.88,-751.75 659.88,-751.75 659.88,-745.75 665.88,-739.75 671.88,-739.75 671.88,-739.75 744.12,-739.75 744.12,-739.75 750.12,-739.75 756.12,-745.75 756.12,-751.75 756.12,-751.75 756.12,-763.75 756.12,-763.75 756.12,-769.75 750.12,-775.75 744.12,-775.75"/>
<text xml:space="preserve" text-anchor="middle" x="708" y="-753.48" font-family="Helvetica,sans-Serif" font-size="12.00" fill="#ffffff">ScRepLoading</text>
</a>
</g>
</g>
<!-- SampleInfo&#45;&gt;ScRepLoading -->
<g id="edge17" class="edge">
<title>SampleInfo&#45;&gt;ScRepLoading</title>
<path fill="none" stroke="#3d314a" d="M639.85,-886.09C652.76,-861.97 678.63,-813.63 694.52,-783.95"/>
<polygon fill="#3d314a" stroke="#3d314a" points="696.89,-785.45 698.19,-777.07 691.95,-782.81 696.89,-785.45"/>
</g>
<!-- TESSA&#45;&gt;MetabolicInput -->
<g id="edge15" class="edge">
<title>TESSA&#45;&gt;MetabolicInput</title>
<path fill="none" stroke="#3d314a" d="M775.06,-180.57C723.48,-179.75 610.11,-175.6 517,-155.75 485.71,-149.08 451.78,-137.49 425.05,-127.29"/>
<polygon fill="#3d314a" stroke="#3d314a" points="426.16,-124.72 417.69,-124.44 424.14,-129.94 426.16,-124.72"/>
</g>
<!-- TESSA&#45;&gt;ClonalStats -->
<g id="edge4" class="edge">
<title>TESSA&#45;&gt;ClonalStats</title>
<path fill="none" stroke="#3d314a" d="M775.1,-179.3C729.39,-176.56 640.85,-169.62 613,-155.75 601.42,-149.99 591.01,-140.3 582.87,-131.08"/>
<polygon fill="#3d314a" stroke="#3d314a" points="585.09,-129.38 577.81,-125.03 580.79,-132.96 585.09,-129.38"/>
</g>
<!-- TESSA&#45;&gt;SeuratClusterStats -->
<g id="edge22" class="edge">
<title>TESSA&#45;&gt;SeuratClusterStats</title>
<path fill="none" stroke="#3d314a" d="M774.8,-169.53C765.72,-165.56 755.76,-160.81 747,-155.75 733.72,-148.07 719.88,-138.33 708.25,-129.58"/>
<polygon fill="#3d314a" stroke="#3d314a" points="710.21,-127.55 702.15,-124.92 706.81,-132 710.21,-127.55"/>
</g>
<!-- MarkersFinder -->
<g id="node16" class="node">
<title>MarkersFinder</title>
<g id="a_node16"><a xlink:title="Find markers between different groups of cells">
<polygon fill="#f26419" stroke="none" points="849.62,-124 756.38,-124 756.38,-88 849.62,-88 849.62,-124"/>
<text xml:space="preserve" text-anchor="middle" x="803" y="-101.72" font-family="Helvetica,sans-Serif" font-size="12.00" fill="#ffffff">MarkersFinder</text>
</a>
</g>
</g>
<!-- TESSA&#45;&gt;MarkersFinder -->
<g id="edge20" class="edge">
<title>TESSA&#45;&gt;MarkersFinder</title>
<path fill="none" stroke="#3d314a" d="M803,-164.01C803,-154.93 803,-143.5 803,-133.26"/>
<polygon fill="#3d314a" stroke="#3d314a" points="805.8,-133.44 803,-125.44 800.2,-133.44 805.8,-133.44"/>
</g>
<!-- CDR3AAPhyschem -->
<g id="node22" class="node">
<title>CDR3AAPhyschem</title>
<polygon fill="#f26419" stroke="none" points="990.25,-124 867.75,-124 867.75,-88 990.25,-88 990.25,-124"/>
<text xml:space="preserve" text-anchor="middle" x="929" y="-101.72" font-family="Helvetica,sans-Serif" font-size="12.00" fill="#ffffff">CDR3AAPhyschem</text>
</g>
<!-- TESSA&#45;&gt;CDR3AAPhyschem -->
<g id="edge6" class="edge">
<title>TESSA&#45;&gt;CDR3AAPhyschem</title>
<path fill="none" stroke="#3d314a" d="M831.14,-169.43C840.21,-165.45 850.19,-160.72 859,-155.75 872.75,-147.98 887.19,-138.23 899.36,-129.49"/>
<polygon fill="#3d314a" stroke="#3d314a" points="900.96,-131.79 905.78,-124.81 897.66,-127.26 900.96,-131.79"/>
</g>
<!-- ScFGSEA -->
<g id="node23" class="node">
<title>ScFGSEA</title>
<polygon fill="#f26419" stroke="none" points="1079.75,-124 1008.25,-124 1008.25,-88 1079.75,-88 1079.75,-124"/>
<text xml:space="preserve" text-anchor="middle" x="1044" y="-101.72" font-family="Helvetica,sans-Serif" font-size="12.00" fill="#ffffff">ScFGSEA</text>
</g>
<!-- TESSA&#45;&gt;ScFGSEA -->
<g id="edge28" class="edge">
<title>TESSA&#45;&gt;ScFGSEA</title>
<path fill="none" stroke="#3d314a" d="M831.07,-179.52C878.07,-177.08 970.34,-170.53 999,-155.75 1010.04,-150.06 1019.76,-140.51 1027.32,-131.37"/>
<polygon fill="#3d314a" stroke="#3d314a" points="1029.51,-133.11 1032.21,-125.08 1025.09,-129.68 1029.51,-133.11"/>
</g>
<!-- CellCellCommunication -->
<g id="node27" class="node">
<title>CellCellCommunication</title>
<path fill="#219ebc" stroke="none" d="M1229.75,-124C1229.75,-124 1110.25,-124 1110.25,-124 1104.25,-124 1098.25,-118 1098.25,-112 1098.25,-112 1098.25,-100 1098.25,-100 1098.25,-94 1104.25,-88 1110.25,-88 1110.25,-88 1229.75,-88 1229.75,-88 1235.75,-88 1241.75,-94 1241.75,-100 1241.75,-100 1241.75,-112 1241.75,-112 1241.75,-118 1235.75,-124 1229.75,-124"/>
<text xml:space="preserve" text-anchor="middle" x="1170" y="-101.72" font-family="Helvetica,sans-Serif" font-size="12.00" fill="#ffffff">CellCellCommunication</text>
</g>
<!-- TESSA&#45;&gt;CellCellCommunication -->
<g id="edge9" class="edge">
<title>TESSA&#45;&gt;CellCellCommunication</title>
<path fill="none" stroke="#3d314a" d="M830.8,-179.91C892.96,-177.79 1041.48,-171.21 1089,-155.75 1107.31,-149.8 1125.84,-139.07 1140.55,-129.18"/>
<polygon fill="#3d314a" stroke="#3d314a" points="1142.07,-131.53 1147.06,-124.68 1138.89,-126.93 1142.07,-131.53"/>
</g>
<!-- ScRepLoading&#45;&gt;ScRepCombiningExpression -->
<g id="edge11" class="edge">
<title>ScRepLoading&#45;&gt;ScRepCombiningExpression</title>
<path fill="none" stroke="#3d314a" d="M736.96,-739.85C750.3,-730.71 765.3,-718.31 775,-703.75 797.78,-669.56 800,-655.84 800,-614.75 800,-614.75 800,-614.75 800,-468.75 800,-428.16 801.24,-381.07 802.13,-352.61"/>
<polygon fill="#3d314a" stroke="#3d314a" points="804.92,-352.96 802.37,-344.87 799.32,-352.78 804.92,-352.96"/>
</g>
<!-- TOrBCellSelection -->
<g id="node20" class="node">
<title>TOrBCellSelection</title>
<g id="a_node20"><a xlink:title="Separate T and non&#45;T cells and select T cells; or separate B and non&#45;B cells and select B cells.">
<path fill="#219ebc" stroke="none" d="M754.25,-703.75C754.25,-703.75 661.75,-703.75 661.75,-703.75 655.75,-703.75 649.75,-697.75 649.75,-691.75 649.75,-691.75 649.75,-679.75 649.75,-679.75 649.75,-673.75 655.75,-667.75 661.75,-667.75 661.75,-667.75 754.25,-667.75 754.25,-667.75 760.25,-667.75 766.25,-673.75 766.25,-679.75 766.25,-679.75 766.25,-691.75 766.25,-691.75 766.25,-697.75 760.25,-703.75 754.25,-703.75"/>
<text xml:space="preserve" text-anchor="middle" x="708" y="-681.48" font-family="Helvetica,sans-Serif" font-size="12.00" fill="#ffffff">TOrBCellSelection</text>
</a>
</g>
</g>
<!-- ScRepLoading&#45;&gt;TOrBCellSelection -->
<g id="edge16" class="edge">
<title>ScRepLoading&#45;&gt;TOrBCellSelection</title>
<path fill="none" stroke="#3d314a" d="M708,-739.8C708,-731.72 708,-721.87 708,-712.86"/>
<polygon fill="#3d314a" stroke="#3d314a" points="710.8,-713.05 708,-705.05 705.2,-713.05 710.8,-713.05"/>
</g>
<!-- SeuratMap2Ref -->
<g id="node17" class="node">
<title>SeuratMap2Ref</title>
<g id="a_node17"><a xlink:title="Map the seurat object to reference">
<path fill="#219ebc" stroke="none" d="M707,-415.75C707,-415.75 631,-415.75 631,-415.75 625,-415.75 619,-409.75 619,-403.75 619,-403.75 619,-391.75 619,-391.75 619,-385.75 625,-379.75 631,-379.75 631,-379.75 707,-379.75 707,-379.75 713,-379.75 719,-385.75 719,-391.75 719,-391.75 719,-403.75 719,-403.75 719,-409.75 713,-415.75 707,-415.75"/>
<text xml:space="preserve" text-anchor="middle" x="669" y="-393.48" font-family="Helvetica,sans-Serif" font-size="12.00" fill="#ffffff">SeuratMap2Ref</text>
</a>
</g>
</g>
<!-- SeuratMap2Ref&#45;&gt;ClusterMarkers -->
<g id="edge5" class="edge">
<title>SeuratMap2Ref&#45;&gt;ClusterMarkers</title>
<path fill="none" stroke="#3d314a" d="M628.57,-379.8C605.17,-370 575.56,-357.58 550.86,-347.23"/>
<polygon fill="#3d314a" stroke="#3d314a" points="552.2,-344.76 543.74,-344.25 550.03,-349.92 552.2,-344.76"/>
</g>
<!-- SeuratMap2Ref&#45;&gt;ScRepCombiningExpression -->
<g id="edge25" class="edge">
<title>SeuratMap2Ref&#45;&gt;ScRepCombiningExpression</title>
<path fill="none" stroke="#3d314a" d="M701.44,-379.8C719.79,-370.22 742.91,-358.14 762.45,-347.93"/>
<polygon fill="#3d314a" stroke="#3d314a" points="763.73,-350.43 769.52,-344.24 761.13,-345.46 763.73,-350.43"/>
</g>
<!-- TopExpressingGenes -->
<g id="node24" class="node">
<title>TopExpressingGenes</title>
<g id="a_node24"><a xlink:title="Top expressing genes for clusters of all or selected T/B cells.">
<polygon fill="#f26419" stroke="none" points="699.38,-343.75 568.62,-343.75 568.62,-307.75 699.38,-307.75 699.38,-343.75"/>
<text xml:space="preserve" text-anchor="middle" x="634" y="-321.48" font-family="Helvetica,sans-Serif" font-size="12.00" fill="#ffffff">TopExpressingGenes</text>
</a>
</g>
</g>
<!-- SeuratMap2Ref&#45;&gt;TopExpressingGenes -->
<g id="edge13" class="edge">
<title>SeuratMap2Ref&#45;&gt;TopExpressingGenes</title>
<path fill="none" stroke="#3d314a" d="M660.53,-379.8C656.36,-371.46 651.25,-361.24 646.63,-352"/>
<polygon fill="#3d314a" stroke="#3d314a" points="649.15,-350.8 643.07,-344.89 644.14,-353.3 649.15,-350.8"/>
</g>
<!-- SeuratClusteringOfAllCells&#45;&gt;TopExpressingGenesOfAllCells -->
<g id="edge24" class="edge">
<title>SeuratClusteringOfAllCells&#45;&gt;TopExpressingGenesOfAllCells</title>
<path fill="none" stroke="#3d314a" d="M513.25,-739.8C486.53,-729.91 452.66,-717.37 424.56,-706.96"/>
<polygon fill="#3d314a" stroke="#3d314a" points="425.55,-704.34 417.08,-704.19 423.61,-709.59 425.55,-704.34"/>
</g>
<!-- SeuratClusteringOfAllCells&#45;&gt;TOrBCellSelection -->
<g id="edge12" class="edge">
<title>SeuratClusteringOfAllCells&#45;&gt;TOrBCellSelection</title>
<path fill="none" stroke="#3d314a" d="M595.07,-739.8C615.67,-730.12 641.68,-717.91 663.54,-707.64"/>
<polygon fill="#3d314a" stroke="#3d314a" points="664.59,-710.24 670.64,-704.3 662.2,-705.17 664.59,-710.24"/>
</g>
<!-- ClusterMarkersOfAllCells -->
<g id="node26" class="node">
<title>ClusterMarkersOfAllCells</title>
<g id="a_node26"><a xlink:title="Markers for clusters of all cells.">
<polygon fill="#f26419" stroke="none" points="631.5,-703.75 480.5,-703.75 480.5,-667.75 631.5,-667.75 631.5,-703.75"/>
<text xml:space="preserve" text-anchor="middle" x="556" y="-681.48" font-family="Helvetica,sans-Serif" font-size="12.00" fill="#ffffff">ClusterMarkersOfAllCells</text>
</a>
</g>
</g>
<!-- SeuratClusteringOfAllCells&#45;&gt;ClusterMarkersOfAllCells -->
<g id="edge19" class="edge">
<title>SeuratClusteringOfAllCells&#45;&gt;ClusterMarkersOfAllCells</title>
<path fill="none" stroke="#3d314a" d="M558.27,-739.8C557.93,-731.72 557.51,-721.87 557.12,-712.86"/>
<polygon fill="#3d314a" stroke="#3d314a" points="559.92,-712.92 556.78,-705.05 554.33,-713.16 559.92,-712.92"/>
</g>
<!-- SeuratClustering -->
<g id="node19" class="node">
<title>SeuratClustering</title>
<g id="a_node19"><a xlink:title="Cluster all cells or selected T/B cells selected by `TOrBCellSelection`.">
<path fill="#219ebc" stroke="none" d="M736,-559.75C736,-559.75 654,-559.75 654,-559.75 648,-559.75 642,-553.75 642,-547.75 642,-547.75 642,-535.75 642,-535.75 642,-529.75 648,-523.75 654,-523.75 654,-523.75 736,-523.75 736,-523.75 742,-523.75 748,-529.75 748,-535.75 748,-535.75 748,-547.75 748,-547.75 748,-553.75 742,-559.75 736,-559.75"/>
<text xml:space="preserve" text-anchor="middle" x="695" y="-537.48" font-family="Helvetica,sans-Serif" font-size="12.00" fill="#ffffff">SeuratClustering</text>
</a>
</g>
</g>
<!-- CellTypeAnnotation -->
<g id="node25" class="node">
<title>CellTypeAnnotation</title>
<g id="a_node25"><a xlink:title="Annotate all or selected T/B cell clusters.">
<path fill="#219ebc" stroke="none" d="M734.88,-487.75C734.88,-487.75 637.12,-487.75 637.12,-487.75 631.12,-487.75 625.12,-481.75 625.12,-475.75 625.12,-475.75 625.12,-463.75 625.12,-463.75 625.12,-457.75 631.12,-451.75 637.12,-451.75 637.12,-451.75 734.88,-451.75 734.88,-451.75 740.88,-451.75 746.88,-457.75 746.88,-463.75 746.88,-463.75 746.88,-475.75 746.88,-475.75 746.88,-481.75 740.88,-487.75 734.88,-487.75"/>
<text xml:space="preserve" text-anchor="middle" x="686" y="-465.48" font-family="Helvetica,sans-Serif" font-size="12.00" fill="#ffffff">CellTypeAnnotation</text>
</a>
</g>
</g>
<!-- SeuratClustering&#45;&gt;CellTypeAnnotation -->
<g id="edge18" class="edge">
<title>SeuratClustering&#45;&gt;CellTypeAnnotation</title>
<path fill="none" stroke="#3d314a" d="M692.82,-523.8C691.78,-515.72 690.52,-505.87 689.36,-496.86"/>
<polygon fill="#3d314a" stroke="#3d314a" points="692.15,-496.62 688.35,-489.04 686.59,-497.33 692.15,-496.62"/>
</g>
<!-- ModuleScoreCalculator -->
<g id="node21" class="node">
<title>ModuleScoreCalculator</title>
<g id="a_node21"><a xlink:title="Calculate the module scores for each cell">
<path fill="#219ebc" stroke="none" d="M758,-631.75C758,-631.75 640,-631.75 640,-631.75 634,-631.75 628,-625.75 628,-619.75 628,-619.75 628,-607.75 628,-607.75 628,-601.75 634,-595.75 640,-595.75 640,-595.75 758,-595.75 758,-595.75 764,-595.75 770,-601.75 770,-607.75 770,-607.75 770,-619.75 770,-619.75 770,-625.75 764,-631.75 758,-631.75"/>
<text xml:space="preserve" text-anchor="middle" x="699" y="-609.48" font-family="Helvetica,sans-Serif" font-size="12.00" fill="#ffffff">ModuleScoreCalculator</text>
</a>
</g>
</g>
<!-- TOrBCellSelection&#45;&gt;ModuleScoreCalculator -->
<g id="edge10" class="edge">
<title>TOrBCellSelection&#45;&gt;ModuleScoreCalculator</title>
<path fill="none" stroke="#3d314a" d="M705.82,-667.8C704.78,-659.72 703.52,-649.87 702.36,-640.86"/>
<polygon fill="#3d314a" stroke="#3d314a" points="705.15,-640.62 701.35,-633.04 699.59,-641.33 705.15,-640.62"/>
</g>
<!-- ModuleScoreCalculator&#45;&gt;SeuratClustering -->
<g id="edge7" class="edge">
<title>ModuleScoreCalculator&#45;&gt;SeuratClustering</title>
<path fill="none" stroke="#3d314a" d="M698.03,-595.8C697.57,-587.72 697.01,-577.87 696.49,-568.86"/>
<polygon fill="#3d314a" stroke="#3d314a" points="699.3,-568.88 696.05,-561.05 693.71,-569.2 699.3,-568.88"/>
</g>
<!-- CellTypeAnnotation&#45;&gt;SeuratMap2Ref -->
<g id="edge21" class="edge">
<title>CellTypeAnnotation&#45;&gt;SeuratMap2Ref</title>
<path fill="none" stroke="#3d314a" d="M681.88,-451.8C679.9,-443.64 677.48,-433.66 675.27,-424.57"/>
<polygon fill="#3d314a" stroke="#3d314a" points="678.04,-424.12 673.43,-417.01 672.6,-425.44 678.04,-424.12"/>
</g>
<!-- CellCellCommunication&#45;&gt;CellCellCommunicationPlots -->
<g id="edge27" class="edge">
<title>CellCellCommunication&#45;&gt;CellCellCommunicationPlots</title>
<path fill="none" stroke="#3d314a" d="M1170,-88.05C1170,-79.97 1170,-70.12 1170,-61.11"/>
<polygon fill="#3d314a" stroke="#3d314a" points="1172.8,-61.3 1170,-53.3 1167.2,-61.3 1172.8,-61.3"/>
</g>
</g>
</svg>
