<?xml version="1.0" encoding="UTF-8" standalone="no"?>
<!DOCTYPE svg PUBLIC "-//W3C//DTD SVG 1.1//EN"
 "http://www.w3.org/Graphics/SVG/1.1/DTD/svg11.dtd">
<!-- Generated by graphviz version 7.0.5 (20221231.0122)
 -->
<!-- Title: Immunopipe Pages: 1 -->
<svg width="1833pt" height="965pt"
 viewBox="0.00 0.00 1832.50 965.00" xmlns="http://www.w3.org/2000/svg" xmlns:xlink="http://www.w3.org/1999/xlink">
<g id="graph0" class="graph" transform="scale(1 1) rotate(0) translate(4 961)">
<title>Immunopipe</title>
<polygon fill="white" stroke="none" points="-4,4 -4,-961 1828.5,-961 1828.5,4 -4,4"/>
<text text-anchor="middle" x="912.25" y="-941.8" font-family="Helvetica,sans-Serif" font-size="14.00">Immunopipe</text>
<text text-anchor="middle" x="912.25" y="-926.8" font-family="Helvetica,sans-Serif" font-size="14.00"> </text>
<g id="clust1" class="cluster">
<title>cluster_ScrnaMetabolicLandscape</title>
<polygon fill="#eeeeee" stroke="#eeeeee" points="488,-8 488,-227 1255,-227 1255,-8 488,-8"/>
<text text-anchor="middle" x="586" y="-211.8" font-family="Helvetica,sans-Serif" font-size="14.00">ScrnaMetabolicLandscape</text>
</g>
<!-- MetabolicInput -->
<g id="node1" class="node">
<title>MetabolicInput</title>
<g id="a_node1"><a xlink:title="This process takes Seurat object as input and pass it to the next processes in the `ScrnaMetabolicLandscape` group.">
<path fill="#219ebc" stroke="none" d="M772.5,-196C772.5,-196 691.5,-196 691.5,-196 685.5,-196 679.5,-190 679.5,-184 679.5,-184 679.5,-172 679.5,-172 679.5,-166 685.5,-160 691.5,-160 691.5,-160 772.5,-160 772.5,-160 778.5,-160 784.5,-166 784.5,-172 784.5,-172 784.5,-184 784.5,-184 784.5,-190 778.5,-196 772.5,-196"/>
<text text-anchor="middle" x="732" y="-174.9" font-family="Helvetica,sans-Serif" font-size="12.00" fill="#ffffff">MetabolicInput</text>
</a>
</g>
</g>
<!-- MetabolicExprImpution -->
<g id="node6" class="node">
<title>MetabolicExprImpution</title>
<g id="a_node6"><a xlink:title="This process imputes the dropout values in scRNA&#45;seq data.">
<path fill="#219ebc" stroke="none" d="M852.5,-124C852.5,-124 721.5,-124 721.5,-124 715.5,-124 709.5,-118 709.5,-112 709.5,-112 709.5,-100 709.5,-100 709.5,-94 715.5,-88 721.5,-88 721.5,-88 852.5,-88 852.5,-88 858.5,-88 864.5,-94 864.5,-100 864.5,-100 864.5,-112 864.5,-112 864.5,-118 858.5,-124 852.5,-124"/>
<text text-anchor="middle" x="787" y="-102.9" font-family="Helvetica,sans-Serif" font-size="12.00" fill="#ffffff">MetabolicExprImpution</text>
</a>
</g>
</g>
<!-- MetabolicInput&#45;&gt;MetabolicExprImpution -->
<g id="edge1" class="edge">
<title>MetabolicInput&#45;&gt;MetabolicExprImpution</title>
<path fill="none" stroke="#3d314a" d="M745.31,-160.05C752.14,-151.37 760.57,-140.64 768.05,-131.11"/>
<polygon fill="#3d314a" stroke="#3d314a" points="770.13,-133 772.87,-124.98 765.73,-129.54 770.13,-133"/>
</g>
<!-- MetabolicPathwayActivity -->
<g id="node2" class="node">
<title>MetabolicPathwayActivity</title>
<g id="a_node2"><a xlink:title="This process calculates the pathway activities in different groups and subsets.">
<polygon fill="#f26419" stroke="none" points="664,-52 496,-52 496,-16 664,-16 664,-52"/>
<text text-anchor="middle" x="580" y="-30.9" font-family="Helvetica,sans-Serif" font-size="12.00" fill="#ffffff">MetabolicPathwayActivity</text>
</a>
</g>
</g>
<!-- MetabolicPathwayHeterogeneity -->
<g id="node3" class="node">
<title>MetabolicPathwayHeterogeneity</title>
<g id="a_node3"><a xlink:title="Calculate Metabolic Pathway heterogeneity.">
<polygon fill="#f26419" stroke="none" points="891.5,-52 682.5,-52 682.5,-16 891.5,-16 891.5,-52"/>
<text text-anchor="middle" x="787" y="-30.9" font-family="Helvetica,sans-Serif" font-size="12.00" fill="#ffffff">MetabolicPathwayHeterogeneity</text>
</a>
</g>
</g>
<!-- MetabolicFeatures -->
<g id="node4" class="node">
<title>MetabolicFeatures</title>
<g id="a_node4"><a xlink:title="This process performs enrichment analysis for the metabolic pathways for each group in each subset.">
<polygon fill="#f26419" stroke="none" points="1034.5,-52 909.5,-52 909.5,-16 1034.5,-16 1034.5,-52"/>
<text text-anchor="middle" x="972" y="-30.9" font-family="Helvetica,sans-Serif" font-size="12.00" fill="#ffffff">MetabolicFeatures</text>
</a>
</g>
</g>
<!-- MetabolicFeaturesIntraSubset -->
<g id="node5" class="node">
<title>MetabolicFeaturesIntraSubset</title>
<g id="a_node5"><a xlink:title="Intra&#45;subset metabolic features &#45; Enrichment analysis in details">
<polygon fill="#f26419" stroke="none" points="1247,-52 1053,-52 1053,-16 1247,-16 1247,-52"/>
<text text-anchor="middle" x="1150" y="-30.9" font-family="Helvetica,sans-Serif" font-size="12.00" fill="#ffffff">MetabolicFeaturesIntraSubset</text>
</a>
</g>
</g>
<!-- MetabolicExprImpution&#45;&gt;MetabolicPathwayActivity -->
<g id="edge2" class="edge">
<title>MetabolicExprImpution&#45;&gt;MetabolicPathwayActivity</title>
<path fill="none" stroke="#3d314a" d="M736.89,-88.05C707.38,-78.07 669.89,-65.4 638.96,-54.94"/>
<polygon fill="#3d314a" stroke="#3d314a" points="639.91,-52.31 631.44,-52.4 638.12,-57.61 639.91,-52.31"/>
</g>
<!-- MetabolicExprImpution&#45;&gt;MetabolicPathwayHeterogeneity -->
<g id="edge5" class="edge">
<title>MetabolicExprImpution&#45;&gt;MetabolicPathwayHeterogeneity</title>
<path fill="none" stroke="#3d314a" d="M787,-88.05C787,-79.97 787,-70.12 787,-61.11"/>
<polygon fill="#3d314a" stroke="#3d314a" points="789.8,-61.3 787,-53.3 784.2,-61.3 789.8,-61.3"/>
</g>
<!-- MetabolicExprImpution&#45;&gt;MetabolicFeatures -->
<g id="edge4" class="edge">
<title>MetabolicExprImpution&#45;&gt;MetabolicFeatures</title>
<path fill="none" stroke="#3d314a" d="M831.78,-88.05C857.93,-78.16 891.09,-65.62 918.59,-55.21"/>
<polygon fill="#3d314a" stroke="#3d314a" points="919.4,-57.9 925.89,-52.45 917.42,-52.66 919.4,-57.9"/>
</g>
<!-- MetabolicExprImpution&#45;&gt;MetabolicFeaturesIntraSubset -->
<g id="edge3" class="edge">
<title>MetabolicExprImpution&#45;&gt;MetabolicFeaturesIntraSubset</title>
<path fill="none" stroke="#3d314a" d="M864.43,-90.07C919.37,-79.47 993.54,-65.17 1052.52,-53.8"/>
<polygon fill="#3d314a" stroke="#3d314a" points="1053.04,-56.55 1060.36,-52.29 1051.98,-51.05 1053.04,-56.55"/>
</g>
<!-- SeuratPreparing -->
<g id="node7" class="node">
<title>SeuratPreparing</title>
<g id="a_node7"><a xlink:title="Load, prepare and apply QC to data, using `Seurat`">
<path fill="#219ebc" stroke="none" d="M669.5,-847C669.5,-847 580.5,-847 580.5,-847 574.5,-847 568.5,-841 568.5,-835 568.5,-835 568.5,-823 568.5,-823 568.5,-817 574.5,-811 580.5,-811 580.5,-811 669.5,-811 669.5,-811 675.5,-811 681.5,-817 681.5,-823 681.5,-823 681.5,-835 681.5,-835 681.5,-841 675.5,-847 669.5,-847"/>
<text text-anchor="middle" x="625" y="-825.9" font-family="Helvetica,sans-Serif" font-size="12.00" fill="#ffffff">SeuratPreparing</text>
</a>
</g>
</g>
<!-- SeuratClusteringOfAllCells -->
<g id="node8" class="node">
<title>SeuratClusteringOfAllCells</title>
<g id="a_node8"><a xlink:title="Cluster all cells, including T cells and non&#45;T cells using Seurat">
<path fill="#219ebc" stroke="none" d="M735.5,-775C735.5,-775 586.5,-775 586.5,-775 580.5,-775 574.5,-769 574.5,-763 574.5,-763 574.5,-751 574.5,-751 574.5,-745 580.5,-739 586.5,-739 586.5,-739 735.5,-739 735.5,-739 741.5,-739 747.5,-745 747.5,-751 747.5,-751 747.5,-763 747.5,-763 747.5,-769 741.5,-775 735.5,-775"/>
<text text-anchor="middle" x="661" y="-753.9" font-family="Helvetica,sans-Serif" font-size="12.00" fill="#ffffff">SeuratClusteringOfAllCells</text>
</a>
</g>
</g>
<!-- SeuratPreparing&#45;&gt;SeuratClusteringOfAllCells -->
<g id="edge22" class="edge">
<title>SeuratPreparing&#45;&gt;SeuratClusteringOfAllCells</title>
<path fill="none" stroke="#3d314a" d="M633.71,-811.05C638.05,-802.63 643.37,-792.28 648.16,-782.97"/>
<polygon fill="#3d314a" stroke="#3d314a" points="650.5,-784.53 651.67,-776.13 645.52,-781.97 650.5,-784.53"/>
</g>
<!-- ClusterMarkersOfAllCells -->
<g id="node22" class="node">
<title>ClusterMarkersOfAllCells</title>
<g id="a_node22"><a xlink:title="Markers for clusters of all cells.">
<polygon fill="#f26419" stroke="none" points="859,-703 695,-703 695,-667 859,-667 859,-703"/>
<text text-anchor="middle" x="777" y="-681.9" font-family="Helvetica,sans-Serif" font-size="12.00" fill="#ffffff">ClusterMarkersOfAllCells</text>
</a>
</g>
</g>
<!-- SeuratClusteringOfAllCells&#45;&gt;ClusterMarkersOfAllCells -->
<g id="edge13" class="edge">
<title>SeuratClusteringOfAllCells&#45;&gt;ClusterMarkersOfAllCells</title>
<path fill="none" stroke="#3d314a" d="M689.08,-739.05C704.75,-729.6 724.44,-717.72 741.21,-707.6"/>
<polygon fill="#3d314a" stroke="#3d314a" points="742.48,-710.1 747.88,-703.57 739.59,-705.31 742.48,-710.1"/>
</g>
<!-- TopExpressingGenesOfAllCells -->
<g id="node25" class="node">
<title>TopExpressingGenesOfAllCells</title>
<g id="a_node25"><a xlink:title="Top expressing genes for clusters of all cells.">
<polygon fill="#f26419" stroke="none" points="1071,-703 877,-703 877,-667 1071,-667 1071,-703"/>
<text text-anchor="middle" x="974" y="-681.9" font-family="Helvetica,sans-Serif" font-size="12.00" fill="#ffffff">TopExpressingGenesOfAllCells</text>
</a>
</g>
</g>
<!-- SeuratClusteringOfAllCells&#45;&gt;TopExpressingGenesOfAllCells -->
<g id="edge16" class="edge">
<title>SeuratClusteringOfAllCells&#45;&gt;TopExpressingGenesOfAllCells</title>
<path fill="none" stroke="#3d314a" d="M736.77,-739.05C782.75,-728.77 841.52,-715.63 889.07,-704.99"/>
<polygon fill="#3d314a" stroke="#3d314a" points="889.44,-707.78 896.64,-703.3 888.22,-702.31 889.44,-707.78"/>
</g>
<!-- TCellSelection -->
<g id="node29" class="node">
<title>TCellSelection</title>
<path fill="#219ebc" stroke="none" d="M665,-703C665,-703 589,-703 589,-703 583,-703 577,-697 577,-691 577,-691 577,-679 577,-679 577,-673 583,-667 589,-667 589,-667 665,-667 665,-667 671,-667 677,-673 677,-679 677,-679 677,-691 677,-691 677,-697 671,-703 665,-703"/>
<text text-anchor="middle" x="627" y="-681.9" font-family="Helvetica,sans-Serif" font-size="12.00" fill="#ffffff">TCellSelection</text>
</g>
<!-- SeuratClusteringOfAllCells&#45;&gt;TCellSelection -->
<g id="edge27" class="edge">
<title>SeuratClusteringOfAllCells&#45;&gt;TCellSelection</title>
<path fill="none" stroke="#3d314a" d="M652.77,-739.05C648.72,-730.71 643.75,-720.49 639.27,-711.25"/>
<polygon fill="#3d314a" stroke="#3d314a" points="641.83,-710.12 635.82,-704.15 636.79,-712.57 641.83,-710.12"/>
</g>
<!-- RadarPlots -->
<g id="node9" class="node">
<title>RadarPlots</title>
<g id="a_node9"><a xlink:title="Radar plots for cell proportion in different clusters.">
<polygon fill="#f26419" stroke="none" points="1344.5,-196 1263.5,-196 1263.5,-160 1344.5,-160 1344.5,-196"/>
<text text-anchor="middle" x="1304" y="-174.9" font-family="Helvetica,sans-Serif" font-size="12.00" fill="#ffffff">RadarPlots</text>
</a>
</g>
</g>
<!-- ImmunarchLoading -->
<g id="node10" class="node">
<title>ImmunarchLoading</title>
<g id="a_node10"><a xlink:title="Immuarch &#45; Loading data">
<path fill="#219ebc" stroke="none" d="M530.5,-775C530.5,-775 421.5,-775 421.5,-775 415.5,-775 409.5,-769 409.5,-763 409.5,-763 409.5,-751 409.5,-751 409.5,-745 415.5,-739 421.5,-739 421.5,-739 530.5,-739 530.5,-739 536.5,-739 542.5,-745 542.5,-751 542.5,-751 542.5,-763 542.5,-763 542.5,-769 536.5,-775 530.5,-775"/>
<text text-anchor="middle" x="476" y="-753.9" font-family="Helvetica,sans-Serif" font-size="12.00" fill="#ffffff">ImmunarchLoading</text>
</a>
</g>
</g>
<!-- TESSA -->
<g id="node11" class="node">
<title>TESSA</title>
<g id="a_node11"><a xlink:title="Tessa is a Bayesian model to integrate T cell receptor (TCR) sequence profiling with transcriptomes of T cells.">
<path fill="#219ebc" stroke="none" d="M582.5,-415C582.5,-415 551.5,-415 551.5,-415 545.5,-415 539.5,-409 539.5,-403 539.5,-403 539.5,-391 539.5,-391 539.5,-385 545.5,-379 551.5,-379 551.5,-379 582.5,-379 582.5,-379 588.5,-379 594.5,-385 594.5,-391 594.5,-391 594.5,-403 594.5,-403 594.5,-409 588.5,-415 582.5,-415"/>
<text text-anchor="middle" x="567" y="-393.9" font-family="Helvetica,sans-Serif" font-size="12.00" fill="#ffffff">TESSA</text>
</a>
</g>
</g>
<!-- ImmunarchLoading&#45;&gt;TESSA -->
<g id="edge20" class="edge">
<title>ImmunarchLoading&#45;&gt;TESSA</title>
<path fill="none" stroke="#3d314a" d="M495.65,-739.11C505.75,-729.46 517.48,-716.6 525,-703 544.81,-667.14 549,-654.97 549,-614 549,-614 549,-614 549,-540 549,-499.32 556.36,-452.6 561.67,-424.2"/>
<polygon fill="#3d314a" stroke="#3d314a" points="564.4,-424.83 563.16,-416.45 558.9,-423.78 564.4,-424.83"/>
</g>
<!-- CloneResidency -->
<g id="node18" class="node">
<title>CloneResidency</title>
<polygon fill="#f26419" stroke="none" points="360,-196 250,-196 250,-160 360,-160 360,-196"/>
<text text-anchor="middle" x="305" y="-174.9" font-family="Helvetica,sans-Serif" font-size="12.00" fill="#ffffff">CloneResidency</text>
</g>
<!-- ImmunarchLoading&#45;&gt;CloneResidency -->
<g id="edge26" class="edge">
<title>ImmunarchLoading&#45;&gt;CloneResidency</title>
<path fill="none" stroke="#3d314a" d="M426.54,-739.06C376.04,-718.26 305,-677.67 305,-614 305,-614 305,-614 305,-324 305,-282.57 305,-234.47 305,-205.41"/>
<polygon fill="#3d314a" stroke="#3d314a" points="307.8,-205.48 305,-197.48 302.2,-205.48 307.8,-205.48"/>
</g>
<!-- IntegratingTCR -->
<g id="node19" class="node">
<title>IntegratingTCR</title>
<g id="a_node19"><a xlink:title="Attach TCR clone information as meta columns to Seurat object">
<path fill="#219ebc" stroke="none" d="M608,-343C608,-343 526,-343 526,-343 520,-343 514,-337 514,-331 514,-331 514,-319 514,-319 514,-313 520,-307 526,-307 526,-307 608,-307 608,-307 614,-307 620,-313 620,-319 620,-319 620,-331 620,-331 620,-337 614,-343 608,-343"/>
<text text-anchor="middle" x="567" y="-321.9" font-family="Helvetica,sans-Serif" font-size="12.00" fill="#ffffff">IntegratingTCR</text>
</a>
</g>
</g>
<!-- ImmunarchLoading&#45;&gt;IntegratingTCR -->
<g id="edge37" class="edge">
<title>ImmunarchLoading&#45;&gt;IntegratingTCR</title>
<path fill="none" stroke="#3d314a" d="M482.91,-739.28C493.11,-713.06 511,-660.46 511,-614 511,-614 511,-614 511,-468 511,-427.46 514.88,-416.2 531,-379 535.33,-369 541.63,-358.89 547.74,-350.22"/>
<polygon fill="#3d314a" stroke="#3d314a" points="549.88,-352.03 552.35,-343.92 545.36,-348.72 549.88,-352.03"/>
</g>
<!-- TCRClustering -->
<g id="node23" class="node">
<title>TCRClustering</title>
<g id="a_node23"><a xlink:title="Cluster the TCR clones by their CDR3 sequences">
<path fill="#219ebc" stroke="none" d="M464.5,-703C464.5,-703 389.5,-703 389.5,-703 383.5,-703 377.5,-697 377.5,-691 377.5,-691 377.5,-679 377.5,-679 377.5,-673 383.5,-667 389.5,-667 389.5,-667 464.5,-667 464.5,-667 470.5,-667 476.5,-673 476.5,-679 476.5,-679 476.5,-691 476.5,-691 476.5,-697 470.5,-703 464.5,-703"/>
<text text-anchor="middle" x="427" y="-681.9" font-family="Helvetica,sans-Serif" font-size="12.00" fill="#ffffff">TCRClustering</text>
</a>
</g>
</g>
<!-- ImmunarchLoading&#45;&gt;TCRClustering -->
<g id="edge9" class="edge">
<title>ImmunarchLoading&#45;&gt;TCRClustering</title>
<path fill="none" stroke="#3d314a" d="M464.14,-739.05C458.12,-730.46 450.7,-719.86 444.08,-710.4"/>
<polygon fill="#3d314a" stroke="#3d314a" points="446.5,-708.98 439.62,-704.03 441.91,-712.19 446.5,-708.98"/>
</g>
<!-- Immunarch -->
<g id="node24" class="node">
<title>Immunarch</title>
<g id="a_node24"><a xlink:title="Exploration of Single&#45;cell and Bulk T&#45;cell/Antibody Immune Repertoires">
<polygon fill="#f26419" stroke="none" points="86,-196 0,-196 0,-160 86,-160 86,-196"/>
<text text-anchor="middle" x="43" y="-174.9" font-family="Helvetica,sans-Serif" font-size="12.00" fill="#ffffff">Immunarch</text>
</a>
</g>
</g>
<!-- ImmunarchLoading&#45;&gt;Immunarch -->
<g id="edge8" class="edge">
<title>ImmunarchLoading&#45;&gt;Immunarch</title>
<path fill="none" stroke="#3d314a" d="M409.64,-756.53C310.69,-753.45 136,-731.38 136,-614 136,-614 136,-614 136,-324 136,-274.65 97.36,-228.67 69.89,-202.23"/>
<polygon fill="#3d314a" stroke="#3d314a" points="72.03,-200.4 64.28,-196.97 68.2,-204.48 72.03,-200.4"/>
</g>
<!-- ImmunarchLoading&#45;&gt;TCellSelection -->
<g id="edge32" class="edge">
<title>ImmunarchLoading&#45;&gt;TCellSelection</title>
<path fill="none" stroke="#3d314a" d="M512.55,-739.05C533.43,-729.37 559.79,-717.16 581.94,-706.89"/>
<polygon fill="#3d314a" stroke="#3d314a" points="583.07,-709.45 589.15,-703.55 580.71,-704.37 583.07,-709.45"/>
</g>
<!-- CDR3AAPhyschem -->
<g id="node32" class="node">
<title>CDR3AAPhyschem</title>
<polygon fill="#f26419" stroke="none" points="232,-196 104,-196 104,-160 232,-160 232,-196"/>
<text text-anchor="middle" x="168" y="-174.9" font-family="Helvetica,sans-Serif" font-size="12.00" fill="#ffffff">CDR3AAPhyschem</text>
</g>
<!-- ImmunarchLoading&#45;&gt;CDR3AAPhyschem -->
<g id="edge34" class="edge">
<title>ImmunarchLoading&#45;&gt;CDR3AAPhyschem</title>
<path fill="none" stroke="#3d314a" d="M409.64,-748.49C332.9,-735.69 217,-701.82 217,-614 217,-614 217,-614 217,-324 217,-279.93 196.44,-232.11 181.95,-203.89"/>
<polygon fill="#3d314a" stroke="#3d314a" points="184.59,-202.9 178.39,-197.12 179.64,-205.51 184.59,-202.9"/>
</g>
<!-- TESSA&#45;&gt;IntegratingTCR -->
<g id="edge23" class="edge">
<title>TESSA&#45;&gt;IntegratingTCR</title>
<path fill="none" stroke="#3d314a" d="M567,-379.05C567,-370.97 567,-361.12 567,-352.11"/>
<polygon fill="#3d314a" stroke="#3d314a" points="569.8,-352.3 567,-344.3 564.2,-352.3 569.8,-352.3"/>
</g>
<!-- SampleInfo -->
<g id="node12" class="node">
<title>SampleInfo</title>
<g id="a_node12"><a xlink:title="List sample information and perform statistics">
<polygon fill="#4c956c" stroke="none" points="561,-919 487,-901 561,-883 635,-901 561,-919"/>
<text text-anchor="middle" x="561" y="-897.9" font-family="Helvetica,sans-Serif" font-size="12.00" fill="#ffffff">SampleInfo</text>
</a>
</g>
</g>
<!-- SampleInfo&#45;&gt;SeuratPreparing -->
<g id="edge33" class="edge">
<title>SampleInfo&#45;&gt;SeuratPreparing</title>
<path fill="none" stroke="#3d314a" d="M573.64,-886.17C582.13,-876.89 593.53,-864.42 603.43,-853.59"/>
<polygon fill="#3d314a" stroke="#3d314a" points="605.32,-855.67 608.65,-847.88 601.19,-851.9 605.32,-855.67"/>
</g>
<!-- SampleInfo&#45;&gt;ImmunarchLoading -->
<g id="edge7" class="edge">
<title>SampleInfo&#45;&gt;ImmunarchLoading</title>
<path fill="none" stroke="#3d314a" d="M552.22,-885.34C537.72,-861.11 508.6,-812.47 490.85,-782.81"/>
<polygon fill="#3d314a" stroke="#3d314a" points="493.46,-781.71 486.95,-776.29 488.65,-784.59 493.46,-781.71"/>
</g>
<!-- CellTypeAnnotation -->
<g id="node13" class="node">
<title>CellTypeAnnotation</title>
<g id="a_node13"><a xlink:title="Annotate the T cell clusters.">
<path fill="#219ebc" stroke="none" d="M731.5,-487C731.5,-487 624.5,-487 624.5,-487 618.5,-487 612.5,-481 612.5,-475 612.5,-475 612.5,-463 612.5,-463 612.5,-457 618.5,-451 624.5,-451 624.5,-451 731.5,-451 731.5,-451 737.5,-451 743.5,-457 743.5,-463 743.5,-463 743.5,-475 743.5,-475 743.5,-481 737.5,-487 731.5,-487"/>
<text text-anchor="middle" x="678" y="-465.9" font-family="Helvetica,sans-Serif" font-size="12.00" fill="#ffffff">CellTypeAnnotation</text>
</a>
</g>
</g>
<!-- CellTypeAnnotation&#45;&gt;TESSA -->
<g id="edge10" class="edge">
<title>CellTypeAnnotation&#45;&gt;TESSA</title>
<path fill="none" stroke="#3d314a" d="M651.13,-451.05C636.13,-441.6 617.29,-429.72 601.25,-419.6"/>
<polygon fill="#3d314a" stroke="#3d314a" points="603.16,-417.5 594.9,-415.6 600.18,-422.23 603.16,-417.5"/>
</g>
<!-- TopExpressingGenes -->
<g id="node17" class="node">
<title>TopExpressingGenes</title>
<g id="a_node17"><a xlink:title="Top expressing genes for clusters of all or selected T cells.">
<polygon fill="#f26419" stroke="none" points="751,-415 613,-415 613,-379 751,-379 751,-415"/>
<text text-anchor="middle" x="682" y="-393.9" font-family="Helvetica,sans-Serif" font-size="12.00" fill="#ffffff">TopExpressingGenes</text>
</a>
</g>
</g>
<!-- CellTypeAnnotation&#45;&gt;TopExpressingGenes -->
<g id="edge28" class="edge">
<title>CellTypeAnnotation&#45;&gt;TopExpressingGenes</title>
<path fill="none" stroke="#3d314a" d="M678.97,-451.05C679.43,-442.97 679.99,-433.12 680.51,-424.11"/>
<polygon fill="#3d314a" stroke="#3d314a" points="683.29,-424.45 680.95,-416.3 677.7,-424.13 683.29,-424.45"/>
</g>
<!-- ClusterMarkers -->
<g id="node27" class="node">
<title>ClusterMarkers</title>
<g id="a_node27"><a xlink:title="Markers for clusters of all or selected T cells.">
<polygon fill="#f26419" stroke="none" points="876.5,-415 769.5,-415 769.5,-379 876.5,-379 876.5,-415"/>
<text text-anchor="middle" x="823" y="-393.9" font-family="Helvetica,sans-Serif" font-size="12.00" fill="#ffffff">ClusterMarkers</text>
</a>
</g>
</g>
<!-- CellTypeAnnotation&#45;&gt;ClusterMarkers -->
<g id="edge25" class="edge">
<title>CellTypeAnnotation&#45;&gt;ClusterMarkers</title>
<path fill="none" stroke="#3d314a" d="M713.1,-451.05C733.06,-441.42 758.24,-429.26 779.45,-419.02"/>
<polygon fill="#3d314a" stroke="#3d314a" points="780.62,-421.57 786.61,-415.57 778.19,-416.52 780.62,-421.57"/>
</g>
<!-- SeuratClusterStats -->
<g id="node14" class="node">
<title>SeuratClusterStats</title>
<polygon fill="#f26419" stroke="none" points="1491,-196 1363,-196 1363,-160 1491,-160 1491,-196"/>
<text text-anchor="middle" x="1427" y="-174.9" font-family="Helvetica,sans-Serif" font-size="12.00" fill="#ffffff">SeuratClusterStats</text>
</g>
<!-- CellsDistribution -->
<g id="node15" class="node">
<title>CellsDistribution</title>
<polygon fill="#f26419" stroke="none" points="1622.5,-196 1509.5,-196 1509.5,-160 1622.5,-160 1622.5,-196"/>
<text text-anchor="middle" x="1566" y="-174.9" font-family="Helvetica,sans-Serif" font-size="12.00" fill="#ffffff">CellsDistribution</text>
</g>
<!-- SeuratClustering -->
<g id="node16" class="node">
<title>SeuratClustering</title>
<g id="a_node16"><a xlink:title="Cluster all T cells or selected T cells selected by `TCellSelection`.">
<path fill="#219ebc" stroke="none" d="M717,-559C717,-559 625,-559 625,-559 619,-559 613,-553 613,-547 613,-547 613,-535 613,-535 613,-529 619,-523 625,-523 625,-523 717,-523 717,-523 723,-523 729,-529 729,-535 729,-535 729,-547 729,-547 729,-553 723,-559 717,-559"/>
<text text-anchor="middle" x="671" y="-537.9" font-family="Helvetica,sans-Serif" font-size="12.00" fill="#ffffff">SeuratClustering</text>
</a>
</g>
</g>
<!-- SeuratClustering&#45;&gt;CellTypeAnnotation -->
<g id="edge19" class="edge">
<title>SeuratClustering&#45;&gt;CellTypeAnnotation</title>
<path fill="none" stroke="#3d314a" d="M672.69,-523.05C673.5,-514.97 674.49,-505.12 675.39,-496.11"/>
<polygon fill="#3d314a" stroke="#3d314a" points="678.16,-496.53 676.17,-488.3 672.59,-495.98 678.16,-496.53"/>
</g>
<!-- IntegratingTCRClusters -->
<g id="node26" class="node">
<title>IntegratingTCRClusters</title>
<g id="a_node26"><a xlink:title="Attach TCR clusters as meta columns to Seurat object">
<path fill="#219ebc" stroke="none" d="M686.5,-271C686.5,-271 557.5,-271 557.5,-271 551.5,-271 545.5,-265 545.5,-259 545.5,-259 545.5,-247 545.5,-247 545.5,-241 551.5,-235 557.5,-235 557.5,-235 686.5,-235 686.5,-235 692.5,-235 698.5,-241 698.5,-247 698.5,-247 698.5,-259 698.5,-259 698.5,-265 692.5,-271 686.5,-271"/>
<text text-anchor="middle" x="622" y="-249.9" font-family="Helvetica,sans-Serif" font-size="12.00" fill="#ffffff">IntegratingTCRClusters</text>
</a>
</g>
</g>
<!-- IntegratingTCR&#45;&gt;IntegratingTCRClusters -->
<g id="edge31" class="edge">
<title>IntegratingTCR&#45;&gt;IntegratingTCRClusters</title>
<path fill="none" stroke="#3d314a" d="M580.31,-307.05C587.14,-298.37 595.57,-287.64 603.05,-278.11"/>
<polygon fill="#3d314a" stroke="#3d314a" points="605.13,-280 607.87,-271.98 600.73,-276.54 605.13,-280"/>
</g>
<!-- ScFGSEA -->
<g id="node20" class="node">
<title>ScFGSEA</title>
<polygon fill="#f26419" stroke="none" points="1711,-196 1641,-196 1641,-160 1711,-160 1711,-196"/>
<text text-anchor="middle" x="1676" y="-174.9" font-family="Helvetica,sans-Serif" font-size="12.00" fill="#ffffff">ScFGSEA</text>
</g>
<!-- TCRClusterStats -->
<g id="node21" class="node">
<title>TCRClusterStats</title>
<polygon fill="#f26419" stroke="none" points="482.5,-631 371.5,-631 371.5,-595 482.5,-595 482.5,-631"/>
<text text-anchor="middle" x="427" y="-609.9" font-family="Helvetica,sans-Serif" font-size="12.00" fill="#ffffff">TCRClusterStats</text>
</g>
<!-- TCRClustering&#45;&gt;TCRClusterStats -->
<g id="edge38" class="edge">
<title>TCRClustering&#45;&gt;TCRClusterStats</title>
<path fill="none" stroke="#3d314a" d="M427,-667.05C427,-658.97 427,-649.12 427,-640.11"/>
<polygon fill="#3d314a" stroke="#3d314a" points="429.8,-640.3 427,-632.3 424.2,-640.3 429.8,-640.3"/>
</g>
<!-- TCRClustering&#45;&gt;IntegratingTCRClusters -->
<g id="edge11" class="edge">
<title>TCRClustering&#45;&gt;IntegratingTCRClusters</title>
<path fill="none" stroke="#3d314a" d="M398.51,-667.18C385.47,-658.07 370.96,-645.66 362,-631 340.91,-596.49 343,-582.45 343,-542 343,-542 343,-542 343,-396 343,-308.08 454.4,-274.57 536.42,-261.82"/>
<polygon fill="#3d314a" stroke="#3d314a" points="536.76,-264.6 544.26,-260.66 535.94,-259.06 536.76,-264.6"/>
</g>
<!-- IntegratingTCRClusters&#45;&gt;MetabolicInput -->
<g id="edge29" class="edge">
<title>IntegratingTCRClusters&#45;&gt;MetabolicInput</title>
<path fill="none" stroke="#3d314a" d="M647.51,-235.07C662.78,-224.93 682.36,-211.94 698.83,-201.02"/>
<polygon fill="#3d314a" stroke="#3d314a" points="700.25,-203.43 705.36,-196.68 697.15,-198.77 700.25,-203.43"/>
</g>
<!-- IntegratingTCRClusters&#45;&gt;RadarPlots -->
<g id="edge6" class="edge">
<title>IntegratingTCRClusters&#45;&gt;RadarPlots</title>
<path fill="none" stroke="#3d314a" d="M698.2,-252.24C856.26,-252.26 1209.23,-249.73 1259,-227 1270.48,-221.76 1280.43,-212.1 1288.03,-202.82"/>
<polygon fill="#3d314a" stroke="#3d314a" points="1290.05,-204.8 1292.69,-196.74 1285.6,-201.39 1290.05,-204.8"/>
</g>
<!-- IntegratingTCRClusters&#45;&gt;SeuratClusterStats -->
<g id="edge17" class="edge">
<title>IntegratingTCRClusters&#45;&gt;SeuratClusterStats</title>
<path fill="none" stroke="#3d314a" d="M698.45,-251.73C873.47,-250.76 1292.88,-246.44 1354,-227 1370.8,-221.66 1387.38,-211.28 1400.49,-201.53"/>
<polygon fill="#3d314a" stroke="#3d314a" points="1401.96,-203.94 1406.59,-196.83 1398.54,-199.5 1401.96,-203.94"/>
</g>
<!-- IntegratingTCRClusters&#45;&gt;CellsDistribution -->
<g id="edge14" class="edge">
<title>IntegratingTCRClusters&#45;&gt;CellsDistribution</title>
<path fill="none" stroke="#3d314a" d="M698.34,-252.4C897.99,-253.09 1425.35,-252.45 1500,-227 1515.29,-221.79 1530.05,-211.69 1541.73,-202.1"/>
<polygon fill="#3d314a" stroke="#3d314a" points="1543.52,-204.25 1547.77,-196.92 1539.88,-200 1543.52,-204.25"/>
</g>
<!-- IntegratingTCRClusters&#45;&gt;CloneResidency -->
<g id="edge12" class="edge">
<title>IntegratingTCRClusters&#45;&gt;CloneResidency</title>
<path fill="none" stroke="#3d314a" d="M545.52,-248.96C483.05,-245.65 400.16,-239.12 369,-227 354.35,-221.3 340.14,-211.25 328.85,-201.82"/>
<polygon fill="#3d314a" stroke="#3d314a" points="330.89,-199.89 323.01,-196.76 327.22,-204.12 330.89,-199.89"/>
</g>
<!-- IntegratingTCRClusters&#45;&gt;ScFGSEA -->
<g id="edge21" class="edge">
<title>IntegratingTCRClusters&#45;&gt;ScFGSEA</title>
<path fill="none" stroke="#3d314a" d="M698.31,-251.74C926.37,-250.75 1589.74,-246.22 1632,-227 1643.26,-221.88 1652.92,-212.37 1660.31,-203.16"/>
<polygon fill="#3d314a" stroke="#3d314a" points="1662.51,-204.9 1665.05,-196.81 1658.02,-201.55 1662.51,-204.9"/>
</g>
<!-- IntegratingTCRClusters&#45;&gt;Immunarch -->
<g id="edge24" class="edge">
<title>IntegratingTCRClusters&#45;&gt;Immunarch</title>
<path fill="none" stroke="#3d314a" d="M545.66,-249.75C404.57,-245.41 115.38,-235.53 95,-227 82.36,-221.71 70.86,-211.91 61.91,-202.54"/>
<polygon fill="#3d314a" stroke="#3d314a" points="64.04,-200.73 56.6,-196.67 59.88,-204.48 64.04,-200.73"/>
</g>
<!-- MetaMarkers -->
<g id="node30" class="node">
<title>MetaMarkers</title>
<polygon fill="#f26419" stroke="none" points="1824.5,-196 1729.5,-196 1729.5,-160 1824.5,-160 1824.5,-196"/>
<text text-anchor="middle" x="1777" y="-174.9" font-family="Helvetica,sans-Serif" font-size="12.00" fill="#ffffff">MetaMarkers</text>
</g>
<!-- IntegratingTCRClusters&#45;&gt;MetaMarkers -->
<g id="edge36" class="edge">
<title>IntegratingTCRClusters&#45;&gt;MetaMarkers</title>
<path fill="none" stroke="#3d314a" d="M698.38,-251.65C939.65,-250.37 1672.37,-245 1720,-227 1733.77,-221.8 1746.55,-211.74 1756.51,-202.17"/>
<polygon fill="#3d314a" stroke="#3d314a" points="1758.23,-204.42 1761.87,-196.77 1754.25,-200.48 1758.23,-204.42"/>
</g>
<!-- MarkersFinder -->
<g id="node31" class="node">
<title>MarkersFinder</title>
<g id="a_node31"><a xlink:title="Find markers between different groups of cells">
<polygon fill="#f26419" stroke="none" points="480,-196 378,-196 378,-160 480,-160 480,-196"/>
<text text-anchor="middle" x="429" y="-174.9" font-family="Helvetica,sans-Serif" font-size="12.00" fill="#ffffff">MarkersFinder</text>
</a>
</g>
</g>
<!-- IntegratingTCRClusters&#45;&gt;MarkersFinder -->
<g id="edge30" class="edge">
<title>IntegratingTCRClusters&#45;&gt;MarkersFinder</title>
<path fill="none" stroke="#3d314a" d="M545.58,-245.64C524.89,-241.94 502.98,-236.13 484,-227 471.62,-221.05 459.87,-211.53 450.43,-202.54"/>
<polygon fill="#3d314a" stroke="#3d314a" points="452.4,-200.55 444.76,-196.9 448.45,-204.52 452.4,-200.55"/>
</g>
<!-- IntegratingTCRClusters&#45;&gt;CDR3AAPhyschem -->
<g id="edge18" class="edge">
<title>IntegratingTCRClusters&#45;&gt;CDR3AAPhyschem</title>
<path fill="none" stroke="#3d314a" d="M545.78,-251.58C451.14,-250.27 295.52,-245.28 241,-227 224.41,-221.44 207.95,-211.14 194.87,-201.51"/>
<polygon fill="#3d314a" stroke="#3d314a" points="196.85,-199.49 188.79,-196.87 193.45,-203.95 196.85,-199.49"/>
</g>
<!-- ModuleScoreCalculator -->
<g id="node28" class="node">
<title>ModuleScoreCalculator</title>
<g id="a_node28"><a xlink:title="Calculate the module scores for each cell">
<path fill="#219ebc" stroke="none" d="M733.5,-631C733.5,-631 602.5,-631 602.5,-631 596.5,-631 590.5,-625 590.5,-619 590.5,-619 590.5,-607 590.5,-607 590.5,-601 596.5,-595 602.5,-595 602.5,-595 733.5,-595 733.5,-595 739.5,-595 745.5,-601 745.5,-607 745.5,-607 745.5,-619 745.5,-619 745.5,-625 739.5,-631 733.5,-631"/>
<text text-anchor="middle" x="668" y="-609.9" font-family="Helvetica,sans-Serif" font-size="12.00" fill="#ffffff">ModuleScoreCalculator</text>
</a>
</g>
</g>
<!-- ModuleScoreCalculator&#45;&gt;SeuratClustering -->
<g id="edge35" class="edge">
<title>ModuleScoreCalculator&#45;&gt;SeuratClustering</title>
<path fill="none" stroke="#3d314a" d="M668.73,-595.05C669.07,-586.97 669.49,-577.12 669.88,-568.11"/>
<polygon fill="#3d314a" stroke="#3d314a" points="672.67,-568.41 670.22,-560.3 667.08,-568.17 672.67,-568.41"/>
</g>
<!-- TCellSelection&#45;&gt;ModuleScoreCalculator -->
<g id="edge15" class="edge">
<title>TCellSelection&#45;&gt;ModuleScoreCalculator</title>
<path fill="none" stroke="#3d314a" d="M636.92,-667.05C641.86,-658.63 647.92,-648.28 653.38,-638.97"/>
<polygon fill="#3d314a" stroke="#3d314a" points="655.77,-640.41 657.4,-632.1 650.94,-637.58 655.77,-640.41"/>
</g>
</g>
</svg>
