<?xml version="1.0" encoding="UTF-8" standalone="no"?>
<!DOCTYPE svg PUBLIC "-//W3C//DTD SVG 1.1//EN"
 "http://www.w3.org/Graphics/SVG/1.1/DTD/svg11.dtd">
<!-- Generated by graphviz version 7.0.5 (20221231.0122)
 -->
<!-- Title: Immunopipe Pages: 1 -->
<svg width="1832pt" height="965pt"
 viewBox="0.00 0.00 1832.00 965.00" xmlns="http://www.w3.org/2000/svg" xmlns:xlink="http://www.w3.org/1999/xlink">
<g id="graph0" class="graph" transform="scale(1 1) rotate(0) translate(4 961)">
<title>Immunopipe</title>
<polygon fill="white" stroke="none" points="-4,4 -4,-961 1828,-961 1828,4 -4,4"/>
<text text-anchor="middle" x="912" y="-941.8" font-family="Helvetica,sans-Serif" font-size="14.00">Immunopipe</text>
<text text-anchor="middle" x="912" y="-926.8" font-family="Helvetica,sans-Serif" font-size="14.00"> </text>
<g id="clust1" class="cluster">
<title>cluster_ScrnaMetabolicLandscape</title>
<polygon fill="#eeeeee" stroke="#eeeeee" points="851,-8 851,-227 1618,-227 1618,-8 851,-8"/>
<text text-anchor="middle" x="949" y="-211.8" font-family="Helvetica,sans-Serif" font-size="14.00">ScrnaMetabolicLandscape</text>
</g>
<!-- MetabolicFeaturesIntraSubset -->
<g id="node1" class="node">
<title>MetabolicFeaturesIntraSubset</title>
<g id="a_node1"><a xlink:title="Intra&#45;subset metabolic features &#45; Enrichment analysis in details">
<polygon fill="#f26419" stroke="none" points="1053,-52 859,-52 859,-16 1053,-16 1053,-52"/>
<text text-anchor="middle" x="956" y="-30.9" font-family="Helvetica,sans-Serif" font-size="12.00" fill="#ffffff">MetabolicFeaturesIntraSubset</text>
</a>
</g>
</g>
<!-- MetabolicInput -->
<g id="node2" class="node">
<title>MetabolicInput</title>
<g id="a_node2"><a xlink:title="This process takes Seurat object as input and pass it to the next processes in the `ScrnaMetabolicLandscape` group.">
<path fill="#219ebc" stroke="none" d="M1074.5,-196C1074.5,-196 993.5,-196 993.5,-196 987.5,-196 981.5,-190 981.5,-184 981.5,-184 981.5,-172 981.5,-172 981.5,-166 987.5,-160 993.5,-160 993.5,-160 1074.5,-160 1074.5,-160 1080.5,-160 1086.5,-166 1086.5,-172 1086.5,-172 1086.5,-184 1086.5,-184 1086.5,-190 1080.5,-196 1074.5,-196"/>
<text text-anchor="middle" x="1034" y="-174.9" font-family="Helvetica,sans-Serif" font-size="12.00" fill="#ffffff">MetabolicInput</text>
</a>
</g>
</g>
<!-- MetabolicExprImpution -->
<g id="node5" class="node">
<title>MetabolicExprImpution</title>
<g id="a_node5"><a xlink:title="This process imputes the dropout values in scRNA&#45;seq data.">
<path fill="#219ebc" stroke="none" d="M1220.5,-124C1220.5,-124 1089.5,-124 1089.5,-124 1083.5,-124 1077.5,-118 1077.5,-112 1077.5,-112 1077.5,-100 1077.5,-100 1077.5,-94 1083.5,-88 1089.5,-88 1089.5,-88 1220.5,-88 1220.5,-88 1226.5,-88 1232.5,-94 1232.5,-100 1232.5,-100 1232.5,-112 1232.5,-112 1232.5,-118 1226.5,-124 1220.5,-124"/>
<text text-anchor="middle" x="1155" y="-102.9" font-family="Helvetica,sans-Serif" font-size="12.00" fill="#ffffff">MetabolicExprImpution</text>
</a>
</g>
</g>
<!-- MetabolicInput&#45;&gt;MetabolicExprImpution -->
<g id="edge3" class="edge">
<title>MetabolicInput&#45;&gt;MetabolicExprImpution</title>
<path fill="none" stroke="#3d314a" d="M1063.29,-160.05C1079.79,-150.51 1100.55,-138.5 1118.14,-128.32"/>
<polygon fill="#3d314a" stroke="#3d314a" points="1119.15,-130.98 1124.67,-124.55 1116.34,-126.13 1119.15,-130.98"/>
</g>
<!-- MetabolicPathwayActivity -->
<g id="node3" class="node">
<title>MetabolicPathwayActivity</title>
<g id="a_node3"><a xlink:title="This process calculates the pathway activities in different groups and subsets.">
<polygon fill="#f26419" stroke="none" points="1239,-52 1071,-52 1071,-16 1239,-16 1239,-52"/>
<text text-anchor="middle" x="1155" y="-30.9" font-family="Helvetica,sans-Serif" font-size="12.00" fill="#ffffff">MetabolicPathwayActivity</text>
</a>
</g>
</g>
<!-- MetabolicPathwayHeterogeneity -->
<g id="node4" class="node">
<title>MetabolicPathwayHeterogeneity</title>
<g id="a_node4"><a xlink:title="Calculate Metabolic Pathway heterogeneity.">
<polygon fill="#f26419" stroke="none" points="1466.5,-52 1257.5,-52 1257.5,-16 1466.5,-16 1466.5,-52"/>
<text text-anchor="middle" x="1362" y="-30.9" font-family="Helvetica,sans-Serif" font-size="12.00" fill="#ffffff">MetabolicPathwayHeterogeneity</text>
</a>
</g>
</g>
<!-- MetabolicExprImpution&#45;&gt;MetabolicFeaturesIntraSubset -->
<g id="edge4" class="edge">
<title>MetabolicExprImpution&#45;&gt;MetabolicFeaturesIntraSubset</title>
<path fill="none" stroke="#3d314a" d="M1106.83,-88.05C1078.46,-78.07 1042.42,-65.4 1012.68,-54.94"/>
<polygon fill="#3d314a" stroke="#3d314a" points="1013.98,-52.43 1005.5,-52.41 1012.12,-57.71 1013.98,-52.43"/>
</g>
<!-- MetabolicExprImpution&#45;&gt;MetabolicPathwayActivity -->
<g id="edge2" class="edge">
<title>MetabolicExprImpution&#45;&gt;MetabolicPathwayActivity</title>
<path fill="none" stroke="#3d314a" d="M1155,-88.05C1155,-79.97 1155,-70.12 1155,-61.11"/>
<polygon fill="#3d314a" stroke="#3d314a" points="1157.8,-61.3 1155,-53.3 1152.2,-61.3 1157.8,-61.3"/>
</g>
<!-- MetabolicExprImpution&#45;&gt;MetabolicPathwayHeterogeneity -->
<g id="edge1" class="edge">
<title>MetabolicExprImpution&#45;&gt;MetabolicPathwayHeterogeneity</title>
<path fill="none" stroke="#3d314a" d="M1205.11,-88.05C1234.62,-78.07 1272.11,-65.4 1303.04,-54.94"/>
<polygon fill="#3d314a" stroke="#3d314a" points="1303.88,-57.61 1310.56,-52.4 1302.09,-52.31 1303.88,-57.61"/>
</g>
<!-- MetabolicFeatures -->
<g id="node6" class="node">
<title>MetabolicFeatures</title>
<g id="a_node6"><a xlink:title="This process performs enrichment analysis for the metabolic pathways for each group in each subset.">
<polygon fill="#f26419" stroke="none" points="1609.5,-52 1484.5,-52 1484.5,-16 1609.5,-16 1609.5,-52"/>
<text text-anchor="middle" x="1547" y="-30.9" font-family="Helvetica,sans-Serif" font-size="12.00" fill="#ffffff">MetabolicFeatures</text>
</a>
</g>
</g>
<!-- MetabolicExprImpution&#45;&gt;MetabolicFeatures -->
<g id="edge5" class="edge">
<title>MetabolicExprImpution&#45;&gt;MetabolicFeatures</title>
<path fill="none" stroke="#3d314a" d="M1232.47,-93.8C1295.49,-84.31 1386.92,-69.73 1475.59,-52.01"/>
<polygon fill="#3d314a" stroke="#3d314a" points="1475.94,-54.8 1483.23,-50.48 1474.84,-49.31 1475.94,-54.8"/>
</g>
<!-- TCellSelection -->
<g id="node7" class="node">
<title>TCellSelection</title>
<path fill="#219ebc" stroke="none" d="M765,-703C765,-703 689,-703 689,-703 683,-703 677,-697 677,-691 677,-691 677,-679 677,-679 677,-673 683,-667 689,-667 689,-667 765,-667 765,-667 771,-667 777,-673 777,-679 777,-679 777,-691 777,-691 777,-697 771,-703 765,-703"/>
<text text-anchor="middle" x="727" y="-681.9" font-family="Helvetica,sans-Serif" font-size="12.00" fill="#ffffff">TCellSelection</text>
</g>
<!-- ModuleScoreCalculator -->
<g id="node9" class="node">
<title>ModuleScoreCalculator</title>
<g id="a_node9"><a xlink:title="Calculate the module scores for each cell">
<path fill="#219ebc" stroke="none" d="M820.5,-631C820.5,-631 689.5,-631 689.5,-631 683.5,-631 677.5,-625 677.5,-619 677.5,-619 677.5,-607 677.5,-607 677.5,-601 683.5,-595 689.5,-595 689.5,-595 820.5,-595 820.5,-595 826.5,-595 832.5,-601 832.5,-607 832.5,-607 832.5,-619 832.5,-619 832.5,-625 826.5,-631 820.5,-631"/>
<text text-anchor="middle" x="755" y="-609.9" font-family="Helvetica,sans-Serif" font-size="12.00" fill="#ffffff">ModuleScoreCalculator</text>
</a>
</g>
</g>
<!-- TCellSelection&#45;&gt;ModuleScoreCalculator -->
<g id="edge33" class="edge">
<title>TCellSelection&#45;&gt;ModuleScoreCalculator</title>
<path fill="none" stroke="#3d314a" d="M733.78,-667.05C737.08,-658.8 741.12,-648.7 744.78,-639.54"/>
<polygon fill="#3d314a" stroke="#3d314a" points="747.35,-640.66 747.72,-632.19 742.15,-638.58 747.35,-640.66"/>
</g>
<!-- ClusterMarkersOfAllCells -->
<g id="node8" class="node">
<title>ClusterMarkersOfAllCells</title>
<g id="a_node8"><a xlink:title="Markers for clusters of all cells.">
<polygon fill="#f26419" stroke="none" points="1171,-703 1007,-703 1007,-667 1171,-667 1171,-703"/>
<text text-anchor="middle" x="1089" y="-681.9" font-family="Helvetica,sans-Serif" font-size="12.00" fill="#ffffff">ClusterMarkersOfAllCells</text>
</a>
</g>
</g>
<!-- SeuratClustering -->
<g id="node20" class="node">
<title>SeuratClustering</title>
<g id="a_node20"><a xlink:title="Cluster all T cells or selected T cells selected by `TCellSelection`.">
<path fill="#219ebc" stroke="none" d="M796,-559C796,-559 704,-559 704,-559 698,-559 692,-553 692,-547 692,-547 692,-535 692,-535 692,-529 698,-523 704,-523 704,-523 796,-523 796,-523 802,-523 808,-529 808,-535 808,-535 808,-547 808,-547 808,-553 802,-559 796,-559"/>
<text text-anchor="middle" x="750" y="-537.9" font-family="Helvetica,sans-Serif" font-size="12.00" fill="#ffffff">SeuratClustering</text>
</a>
</g>
</g>
<!-- ModuleScoreCalculator&#45;&gt;SeuratClustering -->
<g id="edge17" class="edge">
<title>ModuleScoreCalculator&#45;&gt;SeuratClustering</title>
<path fill="none" stroke="#3d314a" d="M753.79,-595.05C753.21,-586.97 752.51,-577.12 751.87,-568.11"/>
<polygon fill="#3d314a" stroke="#3d314a" points="754.67,-568.08 751.31,-560.3 749.08,-568.48 754.67,-568.08"/>
</g>
<!-- IntegratingTCRClusters -->
<g id="node10" class="node">
<title>IntegratingTCRClusters</title>
<g id="a_node10"><a xlink:title="Attach TCR clusters as meta columns to Seurat object">
<path fill="#219ebc" stroke="none" d="M611.5,-271C611.5,-271 482.5,-271 482.5,-271 476.5,-271 470.5,-265 470.5,-259 470.5,-259 470.5,-247 470.5,-247 470.5,-241 476.5,-235 482.5,-235 482.5,-235 611.5,-235 611.5,-235 617.5,-235 623.5,-241 623.5,-247 623.5,-247 623.5,-259 623.5,-259 623.5,-265 617.5,-271 611.5,-271"/>
<text text-anchor="middle" x="547" y="-249.9" font-family="Helvetica,sans-Serif" font-size="12.00" fill="#ffffff">IntegratingTCRClusters</text>
</a>
</g>
</g>
<!-- IntegratingTCRClusters&#45;&gt;MetabolicInput -->
<g id="edge32" class="edge">
<title>IntegratingTCRClusters&#45;&gt;MetabolicInput</title>
<path fill="none" stroke="#3d314a" d="M623.31,-237.27C629.28,-236.4 635.23,-235.63 641,-235 734.29,-224.85 759.18,-240.83 852,-227 893.12,-220.87 938.32,-208.98 973.38,-198.57"/>
<polygon fill="#3d314a" stroke="#3d314a" points="973.77,-201.38 980.62,-196.39 972.15,-196.01 973.77,-201.38"/>
</g>
<!-- ScFGSEA -->
<g id="node12" class="node">
<title>ScFGSEA</title>
<polygon fill="#f26419" stroke="none" points="1696,-196 1626,-196 1626,-160 1696,-160 1696,-196"/>
<text text-anchor="middle" x="1661" y="-174.9" font-family="Helvetica,sans-Serif" font-size="12.00" fill="#ffffff">ScFGSEA</text>
</g>
<!-- IntegratingTCRClusters&#45;&gt;ScFGSEA -->
<g id="edge31" class="edge">
<title>IntegratingTCRClusters&#45;&gt;ScFGSEA</title>
<path fill="none" stroke="#3d314a" d="M623.29,-237.08C629.26,-236.25 635.22,-235.54 641,-235 668.13,-232.45 1597.44,-238.81 1622,-227 1632.48,-221.96 1641.07,-212.6 1647.5,-203.47"/>
<polygon fill="#3d314a" stroke="#3d314a" points="1649.76,-205.13 1651.76,-196.89 1645.06,-202.08 1649.76,-205.13"/>
</g>
<!-- SeuratClusterStats -->
<g id="node14" class="node">
<title>SeuratClusterStats</title>
<polygon fill="#f26419" stroke="none" points="378,-196 250,-196 250,-160 378,-160 378,-196"/>
<text text-anchor="middle" x="314" y="-174.9" font-family="Helvetica,sans-Serif" font-size="12.00" fill="#ffffff">SeuratClusterStats</text>
</g>
<!-- IntegratingTCRClusters&#45;&gt;SeuratClusterStats -->
<g id="edge13" class="edge">
<title>IntegratingTCRClusters&#45;&gt;SeuratClusterStats</title>
<path fill="none" stroke="#3d314a" d="M470.79,-246.79C443.68,-243.21 413.36,-237.17 387,-227 370.91,-220.79 354.72,-210.63 341.68,-201.25"/>
<polygon fill="#3d314a" stroke="#3d314a" points="343.71,-199.27 335.61,-196.76 340.38,-203.77 343.71,-199.27"/>
</g>
<!-- CloneResidency -->
<g id="node18" class="node">
<title>CloneResidency</title>
<polygon fill="#f26419" stroke="none" points="1824,-196 1714,-196 1714,-160 1824,-160 1824,-196"/>
<text text-anchor="middle" x="1769" y="-174.9" font-family="Helvetica,sans-Serif" font-size="12.00" fill="#ffffff">CloneResidency</text>
</g>
<!-- IntegratingTCRClusters&#45;&gt;CloneResidency -->
<g id="edge9" class="edge">
<title>IntegratingTCRClusters&#45;&gt;CloneResidency</title>
<path fill="none" stroke="#3d314a" d="M623.29,-237.07C629.26,-236.25 635.22,-235.54 641,-235 670.43,-232.25 1677,-236.45 1705,-227 1720.11,-221.9 1734.55,-211.71 1745.87,-202.03"/>
<polygon fill="#3d314a" stroke="#3d314a" points="1747.61,-204.23 1751.71,-196.81 1743.88,-200.06 1747.61,-204.23"/>
</g>
<!-- RadarPlots -->
<g id="node24" class="node">
<title>RadarPlots</title>
<g id="a_node24"><a xlink:title="Radar plots for cell proportion in different clusters.">
<polygon fill="#f26419" stroke="none" points="477.5,-196 396.5,-196 396.5,-160 477.5,-160 477.5,-196"/>
<text text-anchor="middle" x="437" y="-174.9" font-family="Helvetica,sans-Serif" font-size="12.00" fill="#ffffff">RadarPlots</text>
</a>
</g>
</g>
<!-- IntegratingTCRClusters&#45;&gt;RadarPlots -->
<g id="edge21" class="edge">
<title>IntegratingTCRClusters&#45;&gt;RadarPlots</title>
<path fill="none" stroke="#3d314a" d="M501.2,-235.03C496.27,-232.59 491.44,-229.91 487,-227 476.52,-220.13 466.29,-210.91 457.84,-202.38"/>
<polygon fill="#3d314a" stroke="#3d314a" points="460.08,-200.68 452.52,-196.84 456.04,-204.55 460.08,-200.68"/>
</g>
<!-- MarkersFinder -->
<g id="node25" class="node">
<title>MarkersFinder</title>
<g id="a_node25"><a xlink:title="Find markers between different groups of cells">
<polygon fill="#f26419" stroke="none" points="598,-196 496,-196 496,-160 598,-160 598,-196"/>
<text text-anchor="middle" x="547" y="-174.9" font-family="Helvetica,sans-Serif" font-size="12.00" fill="#ffffff">MarkersFinder</text>
</a>
</g>
</g>
<!-- IntegratingTCRClusters&#45;&gt;MarkersFinder -->
<g id="edge20" class="edge">
<title>IntegratingTCRClusters&#45;&gt;MarkersFinder</title>
<path fill="none" stroke="#3d314a" d="M547,-235.07C547,-226.22 547,-215.2 547,-205.28"/>
<polygon fill="#3d314a" stroke="#3d314a" points="549.8,-205.35 547,-197.35 544.2,-205.35 549.8,-205.35"/>
</g>
<!-- CellsDistribution -->
<g id="node26" class="node">
<title>CellsDistribution</title>
<polygon fill="#f26419" stroke="none" points="729.5,-196 616.5,-196 616.5,-160 729.5,-160 729.5,-196"/>
<text text-anchor="middle" x="673" y="-174.9" font-family="Helvetica,sans-Serif" font-size="12.00" fill="#ffffff">CellsDistribution</text>
</g>
<!-- IntegratingTCRClusters&#45;&gt;CellsDistribution -->
<g id="edge37" class="edge">
<title>IntegratingTCRClusters&#45;&gt;CellsDistribution</title>
<path fill="none" stroke="#3d314a" d="M591.15,-235C596.58,-232.51 601.98,-229.82 607,-227 620.05,-219.67 633.56,-210.22 644.94,-201.64"/>
<polygon fill="#3d314a" stroke="#3d314a" points="646.6,-203.9 651.24,-196.8 643.19,-199.45 646.6,-203.9"/>
</g>
<!-- MetaMarkers -->
<g id="node28" class="node">
<title>MetaMarkers</title>
<polygon fill="#f26419" stroke="none" points="842.5,-196 747.5,-196 747.5,-160 842.5,-160 842.5,-196"/>
<text text-anchor="middle" x="795" y="-174.9" font-family="Helvetica,sans-Serif" font-size="12.00" fill="#ffffff">MetaMarkers</text>
</g>
<!-- IntegratingTCRClusters&#45;&gt;MetaMarkers -->
<g id="edge10" class="edge">
<title>IntegratingTCRClusters&#45;&gt;MetaMarkers</title>
<path fill="none" stroke="#3d314a" d="M623.34,-237.56C629.31,-236.62 635.24,-235.76 641,-235 662.44,-232.18 718,-235.24 738,-227 751.28,-221.52 763.77,-211.77 773.65,-202.47"/>
<polygon fill="#3d314a" stroke="#3d314a" points="775.55,-204.53 779.28,-196.92 771.61,-200.54 775.55,-204.53"/>
</g>
<!-- CDR3AAPhyschem -->
<g id="node29" class="node">
<title>CDR3AAPhyschem</title>
<polygon fill="#f26419" stroke="none" points="128,-196 0,-196 0,-160 128,-160 128,-196"/>
<text text-anchor="middle" x="64" y="-174.9" font-family="Helvetica,sans-Serif" font-size="12.00" fill="#ffffff">CDR3AAPhyschem</text>
</g>
<!-- IntegratingTCRClusters&#45;&gt;CDR3AAPhyschem -->
<g id="edge28" class="edge">
<title>IntegratingTCRClusters&#45;&gt;CDR3AAPhyschem</title>
<path fill="none" stroke="#3d314a" d="M470.71,-248.36C356.45,-242.77 152.52,-232.17 137,-227 120.4,-221.47 103.93,-211.18 90.86,-201.54"/>
<polygon fill="#3d314a" stroke="#3d314a" points="92.83,-199.53 84.78,-196.9 89.44,-203.98 92.83,-199.53"/>
</g>
<!-- Immunarch -->
<g id="node32" class="node">
<title>Immunarch</title>
<g id="a_node32"><a xlink:title="Exploration of Single&#45;cell and Bulk T&#45;cell/Antibody Immune Repertoires">
<polygon fill="#f26419" stroke="none" points="232,-196 146,-196 146,-160 232,-160 232,-196"/>
<text text-anchor="middle" x="189" y="-174.9" font-family="Helvetica,sans-Serif" font-size="12.00" fill="#ffffff">Immunarch</text>
</a>
</g>
</g>
<!-- IntegratingTCRClusters&#45;&gt;Immunarch -->
<g id="edge11" class="edge">
<title>IntegratingTCRClusters&#45;&gt;Immunarch</title>
<path fill="none" stroke="#3d314a" d="M470.65,-248.36C386.88,-243.95 261.5,-235.99 241,-227 228.63,-221.57 217.29,-211.95 208.38,-202.74"/>
<polygon fill="#3d314a" stroke="#3d314a" points="210.56,-200.97 203.09,-196.97 206.43,-204.76 210.56,-200.97"/>
</g>
<!-- CellTypeAnnotation -->
<g id="node11" class="node">
<title>CellTypeAnnotation</title>
<g id="a_node11"><a xlink:title="Annotate the T cell clusters.">
<path fill="#219ebc" stroke="none" d="M799.5,-487C799.5,-487 692.5,-487 692.5,-487 686.5,-487 680.5,-481 680.5,-475 680.5,-475 680.5,-463 680.5,-463 680.5,-457 686.5,-451 692.5,-451 692.5,-451 799.5,-451 799.5,-451 805.5,-451 811.5,-457 811.5,-463 811.5,-463 811.5,-475 811.5,-475 811.5,-481 805.5,-487 799.5,-487"/>
<text text-anchor="middle" x="746" y="-465.9" font-family="Helvetica,sans-Serif" font-size="12.00" fill="#ffffff">CellTypeAnnotation</text>
</a>
</g>
</g>
<!-- ClusterMarkers -->
<g id="node19" class="node">
<title>ClusterMarkers</title>
<g id="a_node19"><a xlink:title="Markers for clusters of all or selected T cells.">
<polygon fill="#f26419" stroke="none" points="796.5,-415 689.5,-415 689.5,-379 796.5,-379 796.5,-415"/>
<text text-anchor="middle" x="743" y="-393.9" font-family="Helvetica,sans-Serif" font-size="12.00" fill="#ffffff">ClusterMarkers</text>
</a>
</g>
</g>
<!-- CellTypeAnnotation&#45;&gt;ClusterMarkers -->
<g id="edge15" class="edge">
<title>CellTypeAnnotation&#45;&gt;ClusterMarkers</title>
<path fill="none" stroke="#3d314a" d="M745.27,-451.05C744.93,-442.97 744.51,-433.12 744.12,-424.11"/>
<polygon fill="#3d314a" stroke="#3d314a" points="746.92,-424.17 743.78,-416.3 741.33,-424.41 746.92,-424.17"/>
</g>
<!-- TopExpressingGenes -->
<g id="node21" class="node">
<title>TopExpressingGenes</title>
<g id="a_node21"><a xlink:title="Top expressing genes for clusters of all or selected T cells.">
<polygon fill="#f26419" stroke="none" points="953,-415 815,-415 815,-379 953,-379 953,-415"/>
<text text-anchor="middle" x="884" y="-393.9" font-family="Helvetica,sans-Serif" font-size="12.00" fill="#ffffff">TopExpressingGenes</text>
</a>
</g>
</g>
<!-- CellTypeAnnotation&#45;&gt;TopExpressingGenes -->
<g id="edge7" class="edge">
<title>CellTypeAnnotation&#45;&gt;TopExpressingGenes</title>
<path fill="none" stroke="#3d314a" d="M779.41,-451.05C798.39,-441.42 822.33,-429.28 842.51,-419.05"/>
<polygon fill="#3d314a" stroke="#3d314a" points="843.68,-421.59 849.55,-415.47 841.15,-416.6 843.68,-421.59"/>
</g>
<!-- TESSA -->
<g id="node23" class="node">
<title>TESSA</title>
<g id="a_node23"><a xlink:title="Tessa is a Bayesian model to integrate T cell receptor (TCR) sequence profiling with transcriptomes of T cells.">
<path fill="#219ebc" stroke="none" d="M614.5,-415C614.5,-415 583.5,-415 583.5,-415 577.5,-415 571.5,-409 571.5,-403 571.5,-403 571.5,-391 571.5,-391 571.5,-385 577.5,-379 583.5,-379 583.5,-379 614.5,-379 614.5,-379 620.5,-379 626.5,-385 626.5,-391 626.5,-391 626.5,-403 626.5,-403 626.5,-409 620.5,-415 614.5,-415"/>
<text text-anchor="middle" x="599" y="-393.9" font-family="Helvetica,sans-Serif" font-size="12.00" fill="#ffffff">TESSA</text>
</a>
</g>
</g>
<!-- CellTypeAnnotation&#45;&gt;TESSA -->
<g id="edge16" class="edge">
<title>CellTypeAnnotation&#45;&gt;TESSA</title>
<path fill="none" stroke="#3d314a" d="M710.42,-451.05C687.51,-440.15 657.84,-426.02 634.88,-415.08"/>
<polygon fill="#3d314a" stroke="#3d314a" points="636.23,-412.63 627.8,-411.71 633.82,-417.68 636.23,-412.63"/>
</g>
<!-- SeuratClusteringOfAllCells -->
<g id="node13" class="node">
<title>SeuratClusteringOfAllCells</title>
<g id="a_node13"><a xlink:title="Cluster all cells, including T cells and non&#45;T cells using Seurat">
<path fill="#219ebc" stroke="none" d="M819.5,-775C819.5,-775 670.5,-775 670.5,-775 664.5,-775 658.5,-769 658.5,-763 658.5,-763 658.5,-751 658.5,-751 658.5,-745 664.5,-739 670.5,-739 670.5,-739 819.5,-739 819.5,-739 825.5,-739 831.5,-745 831.5,-751 831.5,-751 831.5,-763 831.5,-763 831.5,-769 825.5,-775 819.5,-775"/>
<text text-anchor="middle" x="745" y="-753.9" font-family="Helvetica,sans-Serif" font-size="12.00" fill="#ffffff">SeuratClusteringOfAllCells</text>
</a>
</g>
</g>
<!-- SeuratClusteringOfAllCells&#45;&gt;TCellSelection -->
<g id="edge18" class="edge">
<title>SeuratClusteringOfAllCells&#45;&gt;TCellSelection</title>
<path fill="none" stroke="#3d314a" d="M740.64,-739.05C738.54,-730.89 735.98,-720.91 733.64,-711.82"/>
<polygon fill="#3d314a" stroke="#3d314a" points="736.4,-711.31 731.69,-704.25 730.97,-712.7 736.4,-711.31"/>
</g>
<!-- SeuratClusteringOfAllCells&#45;&gt;ClusterMarkersOfAllCells -->
<g id="edge26" class="edge">
<title>SeuratClusteringOfAllCells&#45;&gt;ClusterMarkersOfAllCells</title>
<path fill="none" stroke="#3d314a" d="M828.27,-739.05C879.59,-728.61 945.41,-715.22 998.08,-704.5"/>
<polygon fill="#3d314a" stroke="#3d314a" points="998.32,-707.31 1005.61,-702.97 997.21,-701.82 998.32,-707.31"/>
</g>
<!-- TopExpressingGenesOfAllCells -->
<g id="node17" class="node">
<title>TopExpressingGenesOfAllCells</title>
<g id="a_node17"><a xlink:title="Top expressing genes for clusters of all cells.">
<polygon fill="#f26419" stroke="none" points="989,-703 795,-703 795,-667 989,-667 989,-703"/>
<text text-anchor="middle" x="892" y="-681.9" font-family="Helvetica,sans-Serif" font-size="12.00" fill="#ffffff">TopExpressingGenesOfAllCells</text>
</a>
</g>
</g>
<!-- SeuratClusteringOfAllCells&#45;&gt;TopExpressingGenesOfAllCells -->
<g id="edge35" class="edge">
<title>SeuratClusteringOfAllCells&#45;&gt;TopExpressingGenesOfAllCells</title>
<path fill="none" stroke="#3d314a" d="M780.58,-739.05C800.91,-729.37 826.57,-717.16 848.14,-706.89"/>
<polygon fill="#3d314a" stroke="#3d314a" points="849.1,-709.53 855.12,-703.56 846.7,-704.47 849.1,-709.53"/>
</g>
<!-- ImmunarchLoading -->
<g id="node15" class="node">
<title>ImmunarchLoading</title>
<g id="a_node15"><a xlink:title="Immuarch &#45; Loading data">
<path fill="#219ebc" stroke="none" d="M625.5,-775C625.5,-775 516.5,-775 516.5,-775 510.5,-775 504.5,-769 504.5,-763 504.5,-763 504.5,-751 504.5,-751 504.5,-745 510.5,-739 516.5,-739 516.5,-739 625.5,-739 625.5,-739 631.5,-739 637.5,-745 637.5,-751 637.5,-751 637.5,-763 637.5,-763 637.5,-769 631.5,-775 625.5,-775"/>
<text text-anchor="middle" x="571" y="-753.9" font-family="Helvetica,sans-Serif" font-size="12.00" fill="#ffffff">ImmunarchLoading</text>
</a>
</g>
</g>
<!-- ImmunarchLoading&#45;&gt;TCellSelection -->
<g id="edge22" class="edge">
<title>ImmunarchLoading&#45;&gt;TCellSelection</title>
<path fill="none" stroke="#3d314a" d="M608.76,-739.05C630.43,-729.33 657.81,-717.05 680.76,-706.75"/>
<polygon fill="#3d314a" stroke="#3d314a" points="681.78,-709.36 687.93,-703.53 679.49,-704.25 681.78,-709.36"/>
</g>
<!-- TCRClustering -->
<g id="node16" class="node">
<title>TCRClustering</title>
<g id="a_node16"><a xlink:title="Cluster the TCR clones by their CDR3 sequences">
<path fill="#219ebc" stroke="none" d="M496.5,-703C496.5,-703 421.5,-703 421.5,-703 415.5,-703 409.5,-697 409.5,-691 409.5,-691 409.5,-679 409.5,-679 409.5,-673 415.5,-667 421.5,-667 421.5,-667 496.5,-667 496.5,-667 502.5,-667 508.5,-673 508.5,-679 508.5,-679 508.5,-691 508.5,-691 508.5,-697 502.5,-703 496.5,-703"/>
<text text-anchor="middle" x="459" y="-681.9" font-family="Helvetica,sans-Serif" font-size="12.00" fill="#ffffff">TCRClustering</text>
</a>
</g>
</g>
<!-- ImmunarchLoading&#45;&gt;TCRClustering -->
<g id="edge34" class="edge">
<title>ImmunarchLoading&#45;&gt;TCRClustering</title>
<path fill="none" stroke="#3d314a" d="M543.89,-739.05C528.76,-729.6 509.75,-717.72 493.56,-707.6"/>
<polygon fill="#3d314a" stroke="#3d314a" points="495.41,-705.46 487.15,-703.59 492.45,-710.21 495.41,-705.46"/>
</g>
<!-- ImmunarchLoading&#45;&gt;CloneResidency -->
<g id="edge38" class="edge">
<title>ImmunarchLoading&#45;&gt;CloneResidency</title>
<path fill="none" stroke="#3d314a" d="M581.16,-739.3C587.02,-729.1 594.16,-715.63 599,-703 652.05,-564.37 570.04,-478.7 680,-379 1021.17,-69.65 1279.99,-404.37 1705,-227 1719.3,-221.03 1733.29,-211.15 1744.53,-201.9"/>
<polygon fill="#3d314a" stroke="#3d314a" points="1746.07,-204.26 1750.34,-196.94 1742.43,-200 1746.07,-204.26"/>
</g>
<!-- IntegratingTCR -->
<g id="node22" class="node">
<title>IntegratingTCR</title>
<g id="a_node22"><a xlink:title="Attach TCR clone information as meta columns to Seurat object">
<path fill="#219ebc" stroke="none" d="M588,-343C588,-343 506,-343 506,-343 500,-343 494,-337 494,-331 494,-331 494,-319 494,-319 494,-313 500,-307 506,-307 506,-307 588,-307 588,-307 594,-307 600,-313 600,-319 600,-319 600,-331 600,-331 600,-337 594,-343 588,-343"/>
<text text-anchor="middle" x="547" y="-321.9" font-family="Helvetica,sans-Serif" font-size="12.00" fill="#ffffff">IntegratingTCR</text>
</a>
</g>
</g>
<!-- ImmunarchLoading&#45;&gt;IntegratingTCR -->
<g id="edge12" class="edge">
<title>ImmunarchLoading&#45;&gt;IntegratingTCR</title>
<path fill="none" stroke="#3d314a" d="M565.47,-739.16C557.31,-712.79 543,-659.98 543,-614 543,-614 543,-614 543,-468 543,-427.41 544.65,-380.31 545.83,-351.86"/>
<polygon fill="#3d314a" stroke="#3d314a" points="548.62,-352.23 546.16,-344.12 543.03,-352 548.62,-352.23"/>
</g>
<!-- ImmunarchLoading&#45;&gt;TESSA -->
<g id="edge8" class="edge">
<title>ImmunarchLoading&#45;&gt;TESSA</title>
<path fill="none" stroke="#3d314a" d="M574.75,-739.05C580.29,-712.52 590,-659.52 590,-614 590,-614 590,-614 590,-540 590,-499.34 593.72,-452.27 596.38,-423.83"/>
<polygon fill="#3d314a" stroke="#3d314a" points="599.14,-424.33 597.12,-416.1 593.57,-423.8 599.14,-424.33"/>
</g>
<!-- ImmunarchLoading&#45;&gt;CDR3AAPhyschem -->
<g id="edge29" class="edge">
<title>ImmunarchLoading&#45;&gt;CDR3AAPhyschem</title>
<path fill="none" stroke="#3d314a" d="M504.59,-754.83C442.45,-751.32 348.57,-739.67 276,-703 224.65,-677.05 182,-671.53 182,-614 182,-614 182,-614 182,-324 182,-270.89 133.79,-226.44 99,-201.27"/>
<polygon fill="#3d314a" stroke="#3d314a" points="100.76,-199.08 92.61,-196.77 97.54,-203.66 100.76,-199.08"/>
</g>
<!-- ImmunarchLoading&#45;&gt;Immunarch -->
<g id="edge36" class="edge">
<title>ImmunarchLoading&#45;&gt;Immunarch</title>
<path fill="none" stroke="#3d314a" d="M504.55,-753.82C414,-746.9 263,-719.55 263,-614 263,-614 263,-614 263,-324 263,-277.24 232.09,-230.36 210.23,-203.04"/>
<polygon fill="#3d314a" stroke="#3d314a" points="212.54,-201.44 205.29,-197.04 208.21,-205 212.54,-201.44"/>
</g>
<!-- TCRClustering&#45;&gt;IntegratingTCRClusters -->
<g id="edge23" class="edge">
<title>TCRClustering&#45;&gt;IntegratingTCRClusters</title>
<path fill="none" stroke="#3d314a" d="M430.51,-667.18C417.47,-658.07 402.96,-645.66 394,-631 372.91,-596.49 375,-582.45 375,-542 375,-542 375,-542 375,-396 375,-335.6 438.85,-296.09 488.75,-274.43"/>
<polygon fill="#3d314a" stroke="#3d314a" points="489.57,-277.12 495.86,-271.44 487.4,-271.96 489.57,-277.12"/>
</g>
<!-- TCRClusterStats -->
<g id="node31" class="node">
<title>TCRClusterStats</title>
<polygon fill="#f26419" stroke="none" points="514.5,-631 403.5,-631 403.5,-595 514.5,-595 514.5,-631"/>
<text text-anchor="middle" x="459" y="-609.9" font-family="Helvetica,sans-Serif" font-size="12.00" fill="#ffffff">TCRClusterStats</text>
</g>
<!-- TCRClustering&#45;&gt;TCRClusterStats -->
<g id="edge6" class="edge">
<title>TCRClustering&#45;&gt;TCRClusterStats</title>
<path fill="none" stroke="#3d314a" d="M459,-667.05C459,-658.97 459,-649.12 459,-640.11"/>
<polygon fill="#3d314a" stroke="#3d314a" points="461.8,-640.3 459,-632.3 456.2,-640.3 461.8,-640.3"/>
</g>
<!-- SeuratClustering&#45;&gt;CellTypeAnnotation -->
<g id="edge30" class="edge">
<title>SeuratClustering&#45;&gt;CellTypeAnnotation</title>
<path fill="none" stroke="#3d314a" d="M749.03,-523.05C748.57,-514.97 748.01,-505.12 747.49,-496.11"/>
<polygon fill="#3d314a" stroke="#3d314a" points="750.3,-496.13 747.05,-488.3 744.71,-496.45 750.3,-496.13"/>
</g>
<!-- IntegratingTCR&#45;&gt;IntegratingTCRClusters -->
<g id="edge27" class="edge">
<title>IntegratingTCR&#45;&gt;IntegratingTCRClusters</title>
<path fill="none" stroke="#3d314a" d="M547,-307.05C547,-298.97 547,-289.12 547,-280.11"/>
<polygon fill="#3d314a" stroke="#3d314a" points="549.8,-280.3 547,-272.3 544.2,-280.3 549.8,-280.3"/>
</g>
<!-- TESSA&#45;&gt;IntegratingTCR -->
<g id="edge25" class="edge">
<title>TESSA&#45;&gt;IntegratingTCR</title>
<path fill="none" stroke="#3d314a" d="M586.41,-379.05C580.02,-370.46 572.15,-359.86 565.12,-350.4"/>
<polygon fill="#3d314a" stroke="#3d314a" points="567.39,-348.76 560.37,-344 562.9,-352.1 567.39,-348.76"/>
</g>
<!-- SampleInfo -->
<g id="node27" class="node">
<title>SampleInfo</title>
<g id="a_node27"><a xlink:title="List sample information and perform statistics">
<polygon fill="#4c956c" stroke="none" points="656,-919 582,-901 656,-883 730,-901 656,-919"/>
<text text-anchor="middle" x="656" y="-897.9" font-family="Helvetica,sans-Serif" font-size="12.00" fill="#ffffff">SampleInfo</text>
</a>
</g>
</g>
<!-- SampleInfo&#45;&gt;ImmunarchLoading -->
<g id="edge14" class="edge">
<title>SampleInfo&#45;&gt;ImmunarchLoading</title>
<path fill="none" stroke="#3d314a" d="M647.22,-885.34C632.72,-861.11 603.6,-812.47 585.85,-782.81"/>
<polygon fill="#3d314a" stroke="#3d314a" points="588.46,-781.71 581.95,-776.29 583.65,-784.59 588.46,-781.71"/>
</g>
<!-- SeuratPreparing -->
<g id="node30" class="node">
<title>SeuratPreparing</title>
<g id="a_node30"><a xlink:title="Load, prepare and apply QC to data, using `Seurat`">
<path fill="#219ebc" stroke="none" d="M764.5,-847C764.5,-847 675.5,-847 675.5,-847 669.5,-847 663.5,-841 663.5,-835 663.5,-835 663.5,-823 663.5,-823 663.5,-817 669.5,-811 675.5,-811 675.5,-811 764.5,-811 764.5,-811 770.5,-811 776.5,-817 776.5,-823 776.5,-823 776.5,-835 776.5,-835 776.5,-841 770.5,-847 764.5,-847"/>
<text text-anchor="middle" x="720" y="-825.9" font-family="Helvetica,sans-Serif" font-size="12.00" fill="#ffffff">SeuratPreparing</text>
</a>
</g>
</g>
<!-- SampleInfo&#45;&gt;SeuratPreparing -->
<g id="edge19" class="edge">
<title>SampleInfo&#45;&gt;SeuratPreparing</title>
<path fill="none" stroke="#3d314a" d="M668.64,-886.17C677.13,-876.89 688.53,-864.42 698.43,-853.59"/>
<polygon fill="#3d314a" stroke="#3d314a" points="700.32,-855.67 703.65,-847.88 696.19,-851.9 700.32,-855.67"/>
</g>
<!-- SeuratPreparing&#45;&gt;SeuratClusteringOfAllCells -->
<g id="edge24" class="edge">
<title>SeuratPreparing&#45;&gt;SeuratClusteringOfAllCells</title>
<path fill="none" stroke="#3d314a" d="M726.05,-811.05C729,-802.8 732.61,-792.7 735.88,-783.54"/>
<polygon fill="#3d314a" stroke="#3d314a" points="738.44,-784.69 738.49,-776.21 733.17,-782.81 738.44,-784.69"/>
</g>
</g>
</svg>
