<?xml version="1.0" encoding="UTF-8" standalone="no"?>
<!DOCTYPE svg PUBLIC "-//W3C//DTD SVG 1.1//EN"
 "http://www.w3.org/Graphics/SVG/1.1/DTD/svg11.dtd">
<!-- Generated by graphviz version 7.0.5 (20221231.0122)
 -->
<!-- Title: Immunopipe Pages: 1 -->
<svg width="1831pt" height="965pt"
 viewBox="0.00 0.00 1831.00 965.00" xmlns="http://www.w3.org/2000/svg" xmlns:xlink="http://www.w3.org/1999/xlink">
<g id="graph0" class="graph" transform="scale(1 1) rotate(0) translate(4 961)">
<title>Immunopipe</title>
<polygon fill="white" stroke="none" points="-4,4 -4,-961 1827,-961 1827,4 -4,4"/>
<text text-anchor="middle" x="911.5" y="-941.8" font-family="Helvetica,sans-Serif" font-size="14.00">Immunopipe</text>
<text text-anchor="middle" x="911.5" y="-926.8" font-family="Helvetica,sans-Serif" font-size="14.00"> </text>
<g id="clust1" class="cluster">
<title>cluster_ScrnaMetabolicLandscape</title>
<polygon fill="#eeeeee" stroke="#eeeeee" points="368,-8 368,-227 1135,-227 1135,-8 368,-8"/>
<text text-anchor="middle" x="466" y="-211.8" font-family="Helvetica,sans-Serif" font-size="14.00">ScrnaMetabolicLandscape</text>
</g>
<!-- MetabolicFeatures -->
<g id="node1" class="node">
<title>MetabolicFeatures</title>
<g id="a_node1"><a xlink:title="This process performs enrichment analysis for the metabolic pathways for each group in each subset.">
<polygon fill="#f26419" stroke="none" points="501.5,-52 376.5,-52 376.5,-16 501.5,-16 501.5,-52"/>
<text text-anchor="middle" x="439" y="-30.9" font-family="Helvetica,sans-Serif" font-size="12.00" fill="#ffffff">MetabolicFeatures</text>
</a>
</g>
</g>
<!-- MetabolicPathwayHeterogeneity -->
<g id="node2" class="node">
<title>MetabolicPathwayHeterogeneity</title>
<g id="a_node2"><a xlink:title="Calculate Metabolic Pathway heterogeneity.">
<polygon fill="#f26419" stroke="none" points="728.5,-52 519.5,-52 519.5,-16 728.5,-16 728.5,-52"/>
<text text-anchor="middle" x="624" y="-30.9" font-family="Helvetica,sans-Serif" font-size="12.00" fill="#ffffff">MetabolicPathwayHeterogeneity</text>
</a>
</g>
</g>
<!-- MetabolicPathwayActivity -->
<g id="node3" class="node">
<title>MetabolicPathwayActivity</title>
<g id="a_node3"><a xlink:title="This process calculates the pathway activities in different groups and subsets.">
<polygon fill="#f26419" stroke="none" points="915,-52 747,-52 747,-16 915,-16 915,-52"/>
<text text-anchor="middle" x="831" y="-30.9" font-family="Helvetica,sans-Serif" font-size="12.00" fill="#ffffff">MetabolicPathwayActivity</text>
</a>
</g>
</g>
<!-- MetabolicInput -->
<g id="node4" class="node">
<title>MetabolicInput</title>
<g id="a_node4"><a xlink:title="This process takes Seurat object as input and pass it to the next processes in the `ScrnaMetabolicLandscape` group.">
<path fill="#219ebc" stroke="none" d="M992.5,-196C992.5,-196 911.5,-196 911.5,-196 905.5,-196 899.5,-190 899.5,-184 899.5,-184 899.5,-172 899.5,-172 899.5,-166 905.5,-160 911.5,-160 911.5,-160 992.5,-160 992.5,-160 998.5,-160 1004.5,-166 1004.5,-172 1004.5,-172 1004.5,-184 1004.5,-184 1004.5,-190 998.5,-196 992.5,-196"/>
<text text-anchor="middle" x="952" y="-174.9" font-family="Helvetica,sans-Serif" font-size="12.00" fill="#ffffff">MetabolicInput</text>
</a>
</g>
</g>
<!-- MetabolicExprImpution -->
<g id="node5" class="node">
<title>MetabolicExprImpution</title>
<g id="a_node5"><a xlink:title="This process imputes the dropout values in scRNA&#45;seq data.">
<path fill="#219ebc" stroke="none" d="M896.5,-124C896.5,-124 765.5,-124 765.5,-124 759.5,-124 753.5,-118 753.5,-112 753.5,-112 753.5,-100 753.5,-100 753.5,-94 759.5,-88 765.5,-88 765.5,-88 896.5,-88 896.5,-88 902.5,-88 908.5,-94 908.5,-100 908.5,-100 908.5,-112 908.5,-112 908.5,-118 902.5,-124 896.5,-124"/>
<text text-anchor="middle" x="831" y="-102.9" font-family="Helvetica,sans-Serif" font-size="12.00" fill="#ffffff">MetabolicExprImpution</text>
</a>
</g>
</g>
<!-- MetabolicInput&#45;&gt;MetabolicExprImpution -->
<g id="edge5" class="edge">
<title>MetabolicInput&#45;&gt;MetabolicExprImpution</title>
<path fill="none" stroke="#3d314a" d="M922.71,-160.05C906.21,-150.51 885.45,-138.5 867.86,-128.32"/>
<polygon fill="#3d314a" stroke="#3d314a" points="869.66,-126.13 861.33,-124.55 866.85,-130.98 869.66,-126.13"/>
</g>
<!-- MetabolicExprImpution&#45;&gt;MetabolicFeatures -->
<g id="edge2" class="edge">
<title>MetabolicExprImpution&#45;&gt;MetabolicFeatures</title>
<path fill="none" stroke="#3d314a" d="M753.79,-93.71C688.81,-83.85 593.54,-68.56 511,-52 510.8,-51.96 510.61,-51.92 510.41,-51.88"/>
<polygon fill="#3d314a" stroke="#3d314a" points="511.27,-49.2 502.87,-50.31 510.13,-54.68 511.27,-49.2"/>
</g>
<!-- MetabolicExprImpution&#45;&gt;MetabolicPathwayHeterogeneity -->
<g id="edge3" class="edge">
<title>MetabolicExprImpution&#45;&gt;MetabolicPathwayHeterogeneity</title>
<path fill="none" stroke="#3d314a" d="M780.89,-88.05C751.38,-78.07 713.89,-65.4 682.96,-54.94"/>
<polygon fill="#3d314a" stroke="#3d314a" points="683.91,-52.31 675.44,-52.4 682.12,-57.61 683.91,-52.31"/>
</g>
<!-- MetabolicExprImpution&#45;&gt;MetabolicPathwayActivity -->
<g id="edge4" class="edge">
<title>MetabolicExprImpution&#45;&gt;MetabolicPathwayActivity</title>
<path fill="none" stroke="#3d314a" d="M831,-88.05C831,-79.97 831,-70.12 831,-61.11"/>
<polygon fill="#3d314a" stroke="#3d314a" points="833.8,-61.3 831,-53.3 828.2,-61.3 833.8,-61.3"/>
</g>
<!-- MetabolicFeaturesIntraSubset -->
<g id="node6" class="node">
<title>MetabolicFeaturesIntraSubset</title>
<g id="a_node6"><a xlink:title="Intra&#45;subset metabolic features &#45; Enrichment analysis in details">
<polygon fill="#f26419" stroke="none" points="1127,-52 933,-52 933,-16 1127,-16 1127,-52"/>
<text text-anchor="middle" x="1030" y="-30.9" font-family="Helvetica,sans-Serif" font-size="12.00" fill="#ffffff">MetabolicFeaturesIntraSubset</text>
</a>
</g>
</g>
<!-- MetabolicExprImpution&#45;&gt;MetabolicFeaturesIntraSubset -->
<g id="edge1" class="edge">
<title>MetabolicExprImpution&#45;&gt;MetabolicFeaturesIntraSubset</title>
<path fill="none" stroke="#3d314a" d="M879.17,-88.05C907.54,-78.07 943.58,-65.4 973.32,-54.94"/>
<polygon fill="#3d314a" stroke="#3d314a" points="973.88,-57.71 980.5,-52.41 972.02,-52.43 973.88,-57.71"/>
</g>
<!-- RadarPlots -->
<g id="node7" class="node">
<title>RadarPlots</title>
<g id="a_node7"><a xlink:title="Radar plots for cell proportion in different clusters.">
<polygon fill="#f26419" stroke="none" points="1224.5,-196 1143.5,-196 1143.5,-160 1224.5,-160 1224.5,-196"/>
<text text-anchor="middle" x="1184" y="-174.9" font-family="Helvetica,sans-Serif" font-size="12.00" fill="#ffffff">RadarPlots</text>
</a>
</g>
</g>
<!-- ClusterMarkersOfAllCells -->
<g id="node8" class="node">
<title>ClusterMarkersOfAllCells</title>
<g id="a_node8"><a xlink:title="Markers for clusters of all cells.">
<polygon fill="#f26419" stroke="none" points="1062,-703 898,-703 898,-667 1062,-667 1062,-703"/>
<text text-anchor="middle" x="980" y="-681.9" font-family="Helvetica,sans-Serif" font-size="12.00" fill="#ffffff">ClusterMarkersOfAllCells</text>
</a>
</g>
</g>
<!-- TopExpressingGenesOfAllCells -->
<g id="node9" class="node">
<title>TopExpressingGenesOfAllCells</title>
<g id="a_node9"><a xlink:title="Top expressing genes for clusters of all cells.">
<polygon fill="#f26419" stroke="none" points="880,-703 686,-703 686,-667 880,-667 880,-703"/>
<text text-anchor="middle" x="783" y="-681.9" font-family="Helvetica,sans-Serif" font-size="12.00" fill="#ffffff">TopExpressingGenesOfAllCells</text>
</a>
</g>
</g>
<!-- IntegratingTCRClusters -->
<g id="node10" class="node">
<title>IntegratingTCRClusters</title>
<g id="a_node10"><a xlink:title="Attach TCR clusters as meta columns to Seurat object">
<path fill="#219ebc" stroke="none" d="M1132.5,-271C1132.5,-271 1003.5,-271 1003.5,-271 997.5,-271 991.5,-265 991.5,-259 991.5,-259 991.5,-247 991.5,-247 991.5,-241 997.5,-235 1003.5,-235 1003.5,-235 1132.5,-235 1132.5,-235 1138.5,-235 1144.5,-241 1144.5,-247 1144.5,-247 1144.5,-259 1144.5,-259 1144.5,-265 1138.5,-271 1132.5,-271"/>
<text text-anchor="middle" x="1068" y="-249.9" font-family="Helvetica,sans-Serif" font-size="12.00" fill="#ffffff">IntegratingTCRClusters</text>
</a>
</g>
</g>
<!-- IntegratingTCRClusters&#45;&gt;MetabolicInput -->
<g id="edge36" class="edge">
<title>IntegratingTCRClusters&#45;&gt;MetabolicInput</title>
<path fill="none" stroke="#3d314a" d="M1041.1,-235.07C1024.84,-224.84 1003.97,-211.7 986.51,-200.72"/>
<polygon fill="#3d314a" stroke="#3d314a" points="988.3,-198.54 980.04,-196.65 985.32,-203.28 988.3,-198.54"/>
</g>
<!-- IntegratingTCRClusters&#45;&gt;RadarPlots -->
<g id="edge38" class="edge">
<title>IntegratingTCRClusters&#45;&gt;RadarPlots</title>
<path fill="none" stroke="#3d314a" d="M1124.26,-235.09C1129.4,-232.69 1134.4,-230 1139,-227 1148.91,-220.53 1158.18,-211.43 1165.69,-202.89"/>
<polygon fill="#3d314a" stroke="#3d314a" points="1167.83,-204.7 1170.84,-196.77 1163.55,-201.09 1167.83,-204.7"/>
</g>
<!-- CellsDistribution -->
<g id="node13" class="node">
<title>CellsDistribution</title>
<polygon fill="#f26419" stroke="none" points="1355.5,-196 1242.5,-196 1242.5,-160 1355.5,-160 1355.5,-196"/>
<text text-anchor="middle" x="1299" y="-174.9" font-family="Helvetica,sans-Serif" font-size="12.00" fill="#ffffff">CellsDistribution</text>
</g>
<!-- IntegratingTCRClusters&#45;&gt;CellsDistribution -->
<g id="edge23" class="edge">
<title>IntegratingTCRClusters&#45;&gt;CellsDistribution</title>
<path fill="none" stroke="#3d314a" d="M1144.45,-248.3C1173.35,-244.9 1206,-238.6 1234,-227 1248.46,-221.01 1262.66,-211.12 1274.08,-201.88"/>
<polygon fill="#3d314a" stroke="#3d314a" points="1275.67,-204.2 1280,-196.91 1272.07,-199.91 1275.67,-204.2"/>
</g>
<!-- MetaMarkers -->
<g id="node14" class="node">
<title>MetaMarkers</title>
<polygon fill="#f26419" stroke="none" points="1468.5,-196 1373.5,-196 1373.5,-160 1468.5,-160 1468.5,-196"/>
<text text-anchor="middle" x="1421" y="-174.9" font-family="Helvetica,sans-Serif" font-size="12.00" fill="#ffffff">MetaMarkers</text>
</g>
<!-- IntegratingTCRClusters&#45;&gt;MetaMarkers -->
<g id="edge28" class="edge">
<title>IntegratingTCRClusters&#45;&gt;MetaMarkers</title>
<path fill="none" stroke="#3d314a" d="M1144.47,-250.87C1219.01,-248.82 1326.57,-243.08 1365,-227 1378.12,-221.51 1390.39,-211.75 1400.09,-202.46"/>
<polygon fill="#3d314a" stroke="#3d314a" points="1401.94,-204.57 1405.6,-196.92 1397.97,-200.62 1401.94,-204.57"/>
</g>
<!-- ScFGSEA -->
<g id="node21" class="node">
<title>ScFGSEA</title>
<polygon fill="#f26419" stroke="none" points="1557,-196 1487,-196 1487,-160 1557,-160 1557,-196"/>
<text text-anchor="middle" x="1522" y="-174.9" font-family="Helvetica,sans-Serif" font-size="12.00" fill="#ffffff">ScFGSEA</text>
</g>
<!-- IntegratingTCRClusters&#45;&gt;ScFGSEA -->
<g id="edge35" class="edge">
<title>IntegratingTCRClusters&#45;&gt;ScFGSEA</title>
<path fill="none" stroke="#3d314a" d="M1144.08,-250.43C1254.38,-247.69 1448.75,-240.94 1478,-227 1489,-221.75 1498.54,-212.41 1505.9,-203.36"/>
<polygon fill="#3d314a" stroke="#3d314a" points="1508.03,-205.18 1510.63,-197.12 1503.57,-201.8 1508.03,-205.18"/>
</g>
<!-- Immunarch -->
<g id="node23" class="node">
<title>Immunarch</title>
<g id="a_node23"><a xlink:title="Exploration of Single&#45;cell and Bulk T&#45;cell/Antibody Immune Repertoires">
<polygon fill="#f26419" stroke="none" points="86,-196 0,-196 0,-160 86,-160 86,-196"/>
<text text-anchor="middle" x="43" y="-174.9" font-family="Helvetica,sans-Serif" font-size="12.00" fill="#ffffff">Immunarch</text>
</a>
</g>
</g>
<!-- IntegratingTCRClusters&#45;&gt;Immunarch -->
<g id="edge22" class="edge">
<title>IntegratingTCRClusters&#45;&gt;Immunarch</title>
<path fill="none" stroke="#3d314a" d="M991.81,-251.5C769.76,-249.87 136.27,-243.75 95,-227 82.3,-221.85 70.79,-212.07 61.85,-202.67"/>
<polygon fill="#3d314a" stroke="#3d314a" points="63.98,-200.85 56.55,-196.78 59.82,-204.6 63.98,-200.85"/>
</g>
<!-- SeuratClusterStats -->
<g id="node24" class="node">
<title>SeuratClusterStats</title>
<polygon fill="#f26419" stroke="none" points="1703,-196 1575,-196 1575,-160 1703,-160 1703,-196"/>
<text text-anchor="middle" x="1639" y="-174.9" font-family="Helvetica,sans-Serif" font-size="12.00" fill="#ffffff">SeuratClusterStats</text>
</g>
<!-- IntegratingTCRClusters&#45;&gt;SeuratClusterStats -->
<g id="edge21" class="edge">
<title>IntegratingTCRClusters&#45;&gt;SeuratClusterStats</title>
<path fill="none" stroke="#3d314a" d="M1144.49,-250.37C1274.21,-247.28 1527.12,-239.71 1566,-227 1582.75,-221.52 1599.34,-211.13 1612.45,-201.41"/>
<polygon fill="#3d314a" stroke="#3d314a" points="1613.91,-203.82 1618.55,-196.73 1610.5,-199.38 1613.91,-203.82"/>
</g>
<!-- CloneResidency -->
<g id="node27" class="node">
<title>CloneResidency</title>
<polygon fill="#f26419" stroke="none" points="214,-196 104,-196 104,-160 214,-160 214,-196"/>
<text text-anchor="middle" x="159" y="-174.9" font-family="Helvetica,sans-Serif" font-size="12.00" fill="#ffffff">CloneResidency</text>
</g>
<!-- IntegratingTCRClusters&#45;&gt;CloneResidency -->
<g id="edge27" class="edge">
<title>IntegratingTCRClusters&#45;&gt;CloneResidency</title>
<path fill="none" stroke="#3d314a" d="M991.7,-252.37C797.41,-252.94 294.3,-251.94 223,-227 208.05,-221.77 193.72,-211.68 182.43,-202.09"/>
<polygon fill="#3d314a" stroke="#3d314a" points="184.44,-200.13 176.6,-196.92 180.73,-204.33 184.44,-200.13"/>
</g>
<!-- MarkersFinder -->
<g id="node30" class="node">
<title>MarkersFinder</title>
<g id="a_node30"><a xlink:title="Find markers between different groups of cells">
<polygon fill="#f26419" stroke="none" points="1823,-196 1721,-196 1721,-160 1823,-160 1823,-196"/>
<text text-anchor="middle" x="1772" y="-174.9" font-family="Helvetica,sans-Serif" font-size="12.00" fill="#ffffff">MarkersFinder</text>
</a>
</g>
</g>
<!-- IntegratingTCRClusters&#45;&gt;MarkersFinder -->
<g id="edge25" class="edge">
<title>IntegratingTCRClusters&#45;&gt;MarkersFinder</title>
<path fill="none" stroke="#3d314a" d="M1144.2,-251.71C1303.24,-250.72 1660.1,-246.34 1712,-227 1726.22,-221.7 1739.65,-211.63 1750.18,-202.08"/>
<polygon fill="#3d314a" stroke="#3d314a" points="1752.02,-204.2 1755.89,-196.66 1748.16,-200.14 1752.02,-204.2"/>
</g>
<!-- CDR3AAPhyschem -->
<g id="node31" class="node">
<title>CDR3AAPhyschem</title>
<polygon fill="#f26419" stroke="none" points="360,-196 232,-196 232,-160 360,-160 360,-196"/>
<text text-anchor="middle" x="296" y="-174.9" font-family="Helvetica,sans-Serif" font-size="12.00" fill="#ffffff">CDR3AAPhyschem</text>
</g>
<!-- IntegratingTCRClusters&#45;&gt;CDR3AAPhyschem -->
<g id="edge19" class="edge">
<title>IntegratingTCRClusters&#45;&gt;CDR3AAPhyschem</title>
<path fill="none" stroke="#3d314a" d="M991.59,-251.75C821.52,-250.83 422.13,-246.59 364,-227 348.24,-221.69 332.9,-211.45 320.8,-201.79"/>
<polygon fill="#3d314a" stroke="#3d314a" points="322.81,-199.82 314.86,-196.86 319.23,-204.13 322.81,-199.82"/>
</g>
<!-- TCRClusterStats -->
<g id="node11" class="node">
<title>TCRClusterStats</title>
<polygon fill="#f26419" stroke="none" points="473.5,-631 362.5,-631 362.5,-595 473.5,-595 473.5,-631"/>
<text text-anchor="middle" x="418" y="-609.9" font-family="Helvetica,sans-Serif" font-size="12.00" fill="#ffffff">TCRClusterStats</text>
</g>
<!-- SeuratClusteringOfAllCells -->
<g id="node12" class="node">
<title>SeuratClusteringOfAllCells</title>
<g id="a_node12"><a xlink:title="Cluster all cells, including T cells and non&#45;T cells using Seurat">
<path fill="#219ebc" stroke="none" d="M726.5,-775C726.5,-775 577.5,-775 577.5,-775 571.5,-775 565.5,-769 565.5,-763 565.5,-763 565.5,-751 565.5,-751 565.5,-745 571.5,-739 577.5,-739 577.5,-739 726.5,-739 726.5,-739 732.5,-739 738.5,-745 738.5,-751 738.5,-751 738.5,-763 738.5,-763 738.5,-769 732.5,-775 726.5,-775"/>
<text text-anchor="middle" x="652" y="-753.9" font-family="Helvetica,sans-Serif" font-size="12.00" fill="#ffffff">SeuratClusteringOfAllCells</text>
</a>
</g>
</g>
<!-- SeuratClusteringOfAllCells&#45;&gt;ClusterMarkersOfAllCells -->
<g id="edge24" class="edge">
<title>SeuratClusteringOfAllCells&#45;&gt;ClusterMarkersOfAllCells</title>
<path fill="none" stroke="#3d314a" d="M731.4,-739.05C779.68,-728.75 841.43,-715.57 891.31,-704.93"/>
<polygon fill="#3d314a" stroke="#3d314a" points="891.76,-707.69 899,-703.29 890.59,-702.22 891.76,-707.69"/>
</g>
<!-- SeuratClusteringOfAllCells&#45;&gt;TopExpressingGenesOfAllCells -->
<g id="edge10" class="edge">
<title>SeuratClusteringOfAllCells&#45;&gt;TopExpressingGenesOfAllCells</title>
<path fill="none" stroke="#3d314a" d="M683.71,-739.05C701.65,-729.47 724.25,-717.39 743.36,-707.18"/>
<polygon fill="#3d314a" stroke="#3d314a" points="744.51,-709.74 750.25,-703.5 741.87,-704.8 744.51,-709.74"/>
</g>
<!-- TCellSelection -->
<g id="node26" class="node">
<title>TCellSelection</title>
<path fill="#219ebc" stroke="none" d="M656,-703C656,-703 580,-703 580,-703 574,-703 568,-697 568,-691 568,-691 568,-679 568,-679 568,-673 574,-667 580,-667 580,-667 656,-667 656,-667 662,-667 668,-673 668,-679 668,-679 668,-691 668,-691 668,-697 662,-703 656,-703"/>
<text text-anchor="middle" x="618" y="-681.9" font-family="Helvetica,sans-Serif" font-size="12.00" fill="#ffffff">TCellSelection</text>
</g>
<!-- SeuratClusteringOfAllCells&#45;&gt;TCellSelection -->
<g id="edge17" class="edge">
<title>SeuratClusteringOfAllCells&#45;&gt;TCellSelection</title>
<path fill="none" stroke="#3d314a" d="M643.77,-739.05C639.72,-730.71 634.75,-720.49 630.27,-711.25"/>
<polygon fill="#3d314a" stroke="#3d314a" points="632.83,-710.12 626.82,-704.15 627.79,-712.57 632.83,-710.12"/>
</g>
<!-- TCRClustering -->
<g id="node15" class="node">
<title>TCRClustering</title>
<g id="a_node15"><a xlink:title="Cluster the TCR clones by their CDR3 sequences">
<path fill="#219ebc" stroke="none" d="M455.5,-703C455.5,-703 380.5,-703 380.5,-703 374.5,-703 368.5,-697 368.5,-691 368.5,-691 368.5,-679 368.5,-679 368.5,-673 374.5,-667 380.5,-667 380.5,-667 455.5,-667 455.5,-667 461.5,-667 467.5,-673 467.5,-679 467.5,-679 467.5,-691 467.5,-691 467.5,-697 461.5,-703 455.5,-703"/>
<text text-anchor="middle" x="418" y="-681.9" font-family="Helvetica,sans-Serif" font-size="12.00" fill="#ffffff">TCRClustering</text>
</a>
</g>
</g>
<!-- TCRClustering&#45;&gt;IntegratingTCRClusters -->
<g id="edge20" class="edge">
<title>TCRClustering&#45;&gt;IntegratingTCRClusters</title>
<path fill="none" stroke="#3d314a" d="M389.51,-667.18C376.47,-658.07 361.96,-645.66 353,-631 331.91,-596.49 334,-582.45 334,-542 334,-542 334,-542 334,-396 334,-313.85 417.46,-331.07 496,-307 584.55,-279.86 845.7,-264.2 982.39,-257.65"/>
<polygon fill="#3d314a" stroke="#3d314a" points="982.24,-260.46 990.1,-257.29 981.97,-254.87 982.24,-260.46"/>
</g>
<!-- TCRClustering&#45;&gt;TCRClusterStats -->
<g id="edge32" class="edge">
<title>TCRClustering&#45;&gt;TCRClusterStats</title>
<path fill="none" stroke="#3d314a" d="M418,-667.05C418,-658.97 418,-649.12 418,-640.11"/>
<polygon fill="#3d314a" stroke="#3d314a" points="420.8,-640.3 418,-632.3 415.2,-640.3 420.8,-640.3"/>
</g>
<!-- SeuratPreparing -->
<g id="node16" class="node">
<title>SeuratPreparing</title>
<g id="a_node16"><a xlink:title="Load, prepare and apply QC to data, using `Seurat`">
<path fill="#219ebc" stroke="none" d="M660.5,-847C660.5,-847 571.5,-847 571.5,-847 565.5,-847 559.5,-841 559.5,-835 559.5,-835 559.5,-823 559.5,-823 559.5,-817 565.5,-811 571.5,-811 571.5,-811 660.5,-811 660.5,-811 666.5,-811 672.5,-817 672.5,-823 672.5,-823 672.5,-835 672.5,-835 672.5,-841 666.5,-847 660.5,-847"/>
<text text-anchor="middle" x="616" y="-825.9" font-family="Helvetica,sans-Serif" font-size="12.00" fill="#ffffff">SeuratPreparing</text>
</a>
</g>
</g>
<!-- SeuratPreparing&#45;&gt;SeuratClusteringOfAllCells -->
<g id="edge15" class="edge">
<title>SeuratPreparing&#45;&gt;SeuratClusteringOfAllCells</title>
<path fill="none" stroke="#3d314a" d="M624.71,-811.05C629.05,-802.63 634.37,-792.28 639.16,-782.97"/>
<polygon fill="#3d314a" stroke="#3d314a" points="641.5,-784.53 642.67,-776.13 636.52,-781.97 641.5,-784.53"/>
</g>
<!-- IntegratingTCR -->
<g id="node17" class="node">
<title>IntegratingTCR</title>
<g id="a_node17"><a xlink:title="Attach TCR clone information as meta columns to Seurat object">
<path fill="#219ebc" stroke="none" d="M599,-343C599,-343 517,-343 517,-343 511,-343 505,-337 505,-331 505,-331 505,-319 505,-319 505,-313 511,-307 517,-307 517,-307 599,-307 599,-307 605,-307 611,-313 611,-319 611,-319 611,-331 611,-331 611,-337 605,-343 599,-343"/>
<text text-anchor="middle" x="558" y="-321.9" font-family="Helvetica,sans-Serif" font-size="12.00" fill="#ffffff">IntegratingTCR</text>
</a>
</g>
</g>
<!-- IntegratingTCR&#45;&gt;IntegratingTCRClusters -->
<g id="edge7" class="edge">
<title>IntegratingTCR&#45;&gt;IntegratingTCRClusters</title>
<path fill="none" stroke="#3d314a" d="M610.66,-316.77C698.61,-304.7 876.17,-280.33 982.32,-265.76"/>
<polygon fill="#3d314a" stroke="#3d314a" points="982.69,-268.54 990.23,-264.67 981.93,-262.99 982.69,-268.54"/>
</g>
<!-- SeuratClustering -->
<g id="node18" class="node">
<title>SeuratClustering</title>
<g id="a_node18"><a xlink:title="Cluster all T cells or selected T cells selected by `TCellSelection`.">
<path fill="#219ebc" stroke="none" d="M708,-559C708,-559 616,-559 616,-559 610,-559 604,-553 604,-547 604,-547 604,-535 604,-535 604,-529 610,-523 616,-523 616,-523 708,-523 708,-523 714,-523 720,-529 720,-535 720,-535 720,-547 720,-547 720,-553 714,-559 708,-559"/>
<text text-anchor="middle" x="662" y="-537.9" font-family="Helvetica,sans-Serif" font-size="12.00" fill="#ffffff">SeuratClustering</text>
</a>
</g>
</g>
<!-- CellTypeAnnotation -->
<g id="node20" class="node">
<title>CellTypeAnnotation</title>
<g id="a_node20"><a xlink:title="Annotate the T cell clusters.">
<path fill="#219ebc" stroke="none" d="M722.5,-487C722.5,-487 615.5,-487 615.5,-487 609.5,-487 603.5,-481 603.5,-475 603.5,-475 603.5,-463 603.5,-463 603.5,-457 609.5,-451 615.5,-451 615.5,-451 722.5,-451 722.5,-451 728.5,-451 734.5,-457 734.5,-463 734.5,-463 734.5,-475 734.5,-475 734.5,-481 728.5,-487 722.5,-487"/>
<text text-anchor="middle" x="669" y="-465.9" font-family="Helvetica,sans-Serif" font-size="12.00" fill="#ffffff">CellTypeAnnotation</text>
</a>
</g>
</g>
<!-- SeuratClustering&#45;&gt;CellTypeAnnotation -->
<g id="edge30" class="edge">
<title>SeuratClustering&#45;&gt;CellTypeAnnotation</title>
<path fill="none" stroke="#3d314a" d="M663.69,-523.05C664.5,-514.97 665.49,-505.12 666.39,-496.11"/>
<polygon fill="#3d314a" stroke="#3d314a" points="669.16,-496.53 667.17,-488.3 663.59,-495.98 669.16,-496.53"/>
</g>
<!-- SampleInfo -->
<g id="node19" class="node">
<title>SampleInfo</title>
<g id="a_node19"><a xlink:title="List sample information and perform statistics">
<polygon fill="#4c956c" stroke="none" points="552,-919 478,-901 552,-883 626,-901 552,-919"/>
<text text-anchor="middle" x="552" y="-897.9" font-family="Helvetica,sans-Serif" font-size="12.00" fill="#ffffff">SampleInfo</text>
</a>
</g>
</g>
<!-- SampleInfo&#45;&gt;SeuratPreparing -->
<g id="edge11" class="edge">
<title>SampleInfo&#45;&gt;SeuratPreparing</title>
<path fill="none" stroke="#3d314a" d="M564.64,-886.17C573.13,-876.89 584.53,-864.42 594.43,-853.59"/>
<polygon fill="#3d314a" stroke="#3d314a" points="596.32,-855.67 599.65,-847.88 592.19,-851.9 596.32,-855.67"/>
</g>
<!-- ImmunarchLoading -->
<g id="node28" class="node">
<title>ImmunarchLoading</title>
<g id="a_node28"><a xlink:title="Immuarch &#45; Loading data">
<path fill="#219ebc" stroke="none" d="M521.5,-775C521.5,-775 412.5,-775 412.5,-775 406.5,-775 400.5,-769 400.5,-763 400.5,-763 400.5,-751 400.5,-751 400.5,-745 406.5,-739 412.5,-739 412.5,-739 521.5,-739 521.5,-739 527.5,-739 533.5,-745 533.5,-751 533.5,-751 533.5,-763 533.5,-763 533.5,-769 527.5,-775 521.5,-775"/>
<text text-anchor="middle" x="467" y="-753.9" font-family="Helvetica,sans-Serif" font-size="12.00" fill="#ffffff">ImmunarchLoading</text>
</a>
</g>
</g>
<!-- SampleInfo&#45;&gt;ImmunarchLoading -->
<g id="edge12" class="edge">
<title>SampleInfo&#45;&gt;ImmunarchLoading</title>
<path fill="none" stroke="#3d314a" d="M543.22,-885.34C528.72,-861.11 499.6,-812.47 481.85,-782.81"/>
<polygon fill="#3d314a" stroke="#3d314a" points="484.46,-781.71 477.95,-776.29 479.65,-784.59 484.46,-781.71"/>
</g>
<!-- TopExpressingGenes -->
<g id="node22" class="node">
<title>TopExpressingGenes</title>
<g id="a_node22"><a xlink:title="Top expressing genes for clusters of all or selected T cells.">
<polygon fill="#f26419" stroke="none" points="742,-415 604,-415 604,-379 742,-379 742,-415"/>
<text text-anchor="middle" x="673" y="-393.9" font-family="Helvetica,sans-Serif" font-size="12.00" fill="#ffffff">TopExpressingGenes</text>
</a>
</g>
</g>
<!-- CellTypeAnnotation&#45;&gt;TopExpressingGenes -->
<g id="edge18" class="edge">
<title>CellTypeAnnotation&#45;&gt;TopExpressingGenes</title>
<path fill="none" stroke="#3d314a" d="M669.97,-451.05C670.43,-442.97 670.99,-433.12 671.51,-424.11"/>
<polygon fill="#3d314a" stroke="#3d314a" points="674.29,-424.45 671.95,-416.3 668.7,-424.13 674.29,-424.45"/>
</g>
<!-- ClusterMarkers -->
<g id="node29" class="node">
<title>ClusterMarkers</title>
<g id="a_node29"><a xlink:title="Markers for clusters of all or selected T cells.">
<polygon fill="#f26419" stroke="none" points="867.5,-415 760.5,-415 760.5,-379 867.5,-379 867.5,-415"/>
<text text-anchor="middle" x="814" y="-393.9" font-family="Helvetica,sans-Serif" font-size="12.00" fill="#ffffff">ClusterMarkers</text>
</a>
</g>
</g>
<!-- CellTypeAnnotation&#45;&gt;ClusterMarkers -->
<g id="edge9" class="edge">
<title>CellTypeAnnotation&#45;&gt;ClusterMarkers</title>
<path fill="none" stroke="#3d314a" d="M704.1,-451.05C724.06,-441.42 749.24,-429.26 770.45,-419.02"/>
<polygon fill="#3d314a" stroke="#3d314a" points="771.62,-421.57 777.61,-415.57 769.19,-416.52 771.62,-421.57"/>
</g>
<!-- TESSA -->
<g id="node32" class="node">
<title>TESSA</title>
<g id="a_node32"><a xlink:title="Tessa is a Bayesian model to integrate T cell receptor (TCR) sequence profiling with transcriptomes of T cells.">
<path fill="#219ebc" stroke="none" d="M573.5,-415C573.5,-415 542.5,-415 542.5,-415 536.5,-415 530.5,-409 530.5,-403 530.5,-403 530.5,-391 530.5,-391 530.5,-385 536.5,-379 542.5,-379 542.5,-379 573.5,-379 573.5,-379 579.5,-379 585.5,-385 585.5,-391 585.5,-391 585.5,-403 585.5,-403 585.5,-409 579.5,-415 573.5,-415"/>
<text text-anchor="middle" x="558" y="-393.9" font-family="Helvetica,sans-Serif" font-size="12.00" fill="#ffffff">TESSA</text>
</a>
</g>
</g>
<!-- CellTypeAnnotation&#45;&gt;TESSA -->
<g id="edge26" class="edge">
<title>CellTypeAnnotation&#45;&gt;TESSA</title>
<path fill="none" stroke="#3d314a" d="M642.13,-451.05C627.13,-441.6 608.29,-429.72 592.25,-419.6"/>
<polygon fill="#3d314a" stroke="#3d314a" points="594.16,-417.5 585.9,-415.6 591.18,-422.23 594.16,-417.5"/>
</g>
<!-- ModuleScoreCalculator -->
<g id="node25" class="node">
<title>ModuleScoreCalculator</title>
<g id="a_node25"><a xlink:title="Calculate the module scores for each cell">
<path fill="#219ebc" stroke="none" d="M724.5,-631C724.5,-631 593.5,-631 593.5,-631 587.5,-631 581.5,-625 581.5,-619 581.5,-619 581.5,-607 581.5,-607 581.5,-601 587.5,-595 593.5,-595 593.5,-595 724.5,-595 724.5,-595 730.5,-595 736.5,-601 736.5,-607 736.5,-607 736.5,-619 736.5,-619 736.5,-625 730.5,-631 724.5,-631"/>
<text text-anchor="middle" x="659" y="-609.9" font-family="Helvetica,sans-Serif" font-size="12.00" fill="#ffffff">ModuleScoreCalculator</text>
</a>
</g>
</g>
<!-- ModuleScoreCalculator&#45;&gt;SeuratClustering -->
<g id="edge6" class="edge">
<title>ModuleScoreCalculator&#45;&gt;SeuratClustering</title>
<path fill="none" stroke="#3d314a" d="M659.73,-595.05C660.07,-586.97 660.49,-577.12 660.88,-568.11"/>
<polygon fill="#3d314a" stroke="#3d314a" points="663.67,-568.41 661.22,-560.3 658.08,-568.17 663.67,-568.41"/>
</g>
<!-- TCellSelection&#45;&gt;ModuleScoreCalculator -->
<g id="edge13" class="edge">
<title>TCellSelection&#45;&gt;ModuleScoreCalculator</title>
<path fill="none" stroke="#3d314a" d="M627.92,-667.05C632.86,-658.63 638.92,-648.28 644.38,-638.97"/>
<polygon fill="#3d314a" stroke="#3d314a" points="646.77,-640.41 648.4,-632.1 641.94,-637.58 646.77,-640.41"/>
</g>
<!-- ImmunarchLoading&#45;&gt;TCRClustering -->
<g id="edge37" class="edge">
<title>ImmunarchLoading&#45;&gt;TCRClustering</title>
<path fill="none" stroke="#3d314a" d="M455.14,-739.05C449.12,-730.46 441.7,-719.86 435.08,-710.4"/>
<polygon fill="#3d314a" stroke="#3d314a" points="437.5,-708.98 430.62,-704.03 432.91,-712.19 437.5,-708.98"/>
</g>
<!-- ImmunarchLoading&#45;&gt;IntegratingTCR -->
<g id="edge34" class="edge">
<title>ImmunarchLoading&#45;&gt;IntegratingTCR</title>
<path fill="none" stroke="#3d314a" d="M473.91,-739.28C484.11,-713.06 502,-660.46 502,-614 502,-614 502,-614 502,-468 502,-427.46 505.88,-416.2 522,-379 526.33,-369 532.63,-358.89 538.74,-350.22"/>
<polygon fill="#3d314a" stroke="#3d314a" points="540.88,-352.03 543.35,-343.92 536.36,-348.72 540.88,-352.03"/>
</g>
<!-- ImmunarchLoading&#45;&gt;Immunarch -->
<g id="edge14" class="edge">
<title>ImmunarchLoading&#45;&gt;Immunarch</title>
<path fill="none" stroke="#3d314a" d="M400.62,-756.22C302.7,-752.66 131,-729.89 131,-614 131,-614 131,-614 131,-324 131,-275.34 94.34,-229.09 68.34,-202.41"/>
<polygon fill="#3d314a" stroke="#3d314a" points="70.37,-200.48 62.73,-196.81 66.42,-204.44 70.37,-200.48"/>
</g>
<!-- ImmunarchLoading&#45;&gt;TCellSelection -->
<g id="edge31" class="edge">
<title>ImmunarchLoading&#45;&gt;TCellSelection</title>
<path fill="none" stroke="#3d314a" d="M503.55,-739.05C524.43,-729.37 550.79,-717.16 572.94,-706.89"/>
<polygon fill="#3d314a" stroke="#3d314a" points="574.07,-709.45 580.15,-703.55 571.71,-704.37 574.07,-709.45"/>
</g>
<!-- ImmunarchLoading&#45;&gt;CloneResidency -->
<g id="edge29" class="edge">
<title>ImmunarchLoading&#45;&gt;CloneResidency</title>
<path fill="none" stroke="#3d314a" d="M400.64,-748.49C323.9,-735.69 208,-701.82 208,-614 208,-614 208,-614 208,-324 208,-279.93 187.44,-232.11 172.95,-203.89"/>
<polygon fill="#3d314a" stroke="#3d314a" points="175.59,-202.9 169.39,-197.12 170.64,-205.51 175.59,-202.9"/>
</g>
<!-- ImmunarchLoading&#45;&gt;CDR3AAPhyschem -->
<g id="edge16" class="edge">
<title>ImmunarchLoading&#45;&gt;CDR3AAPhyschem</title>
<path fill="none" stroke="#3d314a" d="M417.54,-739.06C367.04,-718.26 296,-677.67 296,-614 296,-614 296,-614 296,-324 296,-282.57 296,-234.47 296,-205.41"/>
<polygon fill="#3d314a" stroke="#3d314a" points="298.8,-205.48 296,-197.48 293.2,-205.48 298.8,-205.48"/>
</g>
<!-- ImmunarchLoading&#45;&gt;TESSA -->
<g id="edge8" class="edge">
<title>ImmunarchLoading&#45;&gt;TESSA</title>
<path fill="none" stroke="#3d314a" d="M486.65,-739.11C496.75,-729.46 508.48,-716.6 516,-703 535.81,-667.14 540,-654.97 540,-614 540,-614 540,-614 540,-540 540,-499.32 547.36,-452.6 552.67,-424.2"/>
<polygon fill="#3d314a" stroke="#3d314a" points="555.4,-424.83 554.16,-416.45 549.9,-423.78 555.4,-424.83"/>
</g>
<!-- TESSA&#45;&gt;IntegratingTCR -->
<g id="edge33" class="edge">
<title>TESSA&#45;&gt;IntegratingTCR</title>
<path fill="none" stroke="#3d314a" d="M558,-379.05C558,-370.97 558,-361.12 558,-352.11"/>
<polygon fill="#3d314a" stroke="#3d314a" points="560.8,-352.3 558,-344.3 555.2,-352.3 560.8,-352.3"/>
</g>
</g>
</svg>
