<?xml version="1.0" encoding="UTF-8" standalone="no"?>
<!DOCTYPE svg PUBLIC "-//W3C//DTD SVG 1.1//EN"
 "http://www.w3.org/Graphics/SVG/1.1/DTD/svg11.dtd">
<!-- Generated by graphviz version 12.0.0 (20240803.0821)
 -->
<!-- Title: Immunopipe Pages: 1 -->
<svg width="1821pt" height="972pt"
 viewBox="0.00 0.00 1821.38 971.75" xmlns="http://www.w3.org/2000/svg" xmlns:xlink="http://www.w3.org/1999/xlink">
<g id="graph0" class="graph" transform="scale(1 1) rotate(0) translate(4 967.75)">
<title>Immunopipe</title>
<polygon fill="white" stroke="none" points="-4,4 -4,-967.75 1817.38,-967.75 1817.38,4 -4,4"/>
<text text-anchor="middle" x="906.69" y="-946.45" font-family="Helvetica,sans-Serif" font-size="14.00">Immunopipe</text>
<text text-anchor="middle" x="906.69" y="-929.2" font-family="Helvetica,sans-Serif" font-size="14.00"> </text>
<g id="clust1" class="cluster">
<title>cluster_ScrnaMetabolicLandscape</title>
<polygon fill="#eeeeee" stroke="#eeeeee" points="749.88,-8 749.88,-229.25 1513.88,-229.25 1513.88,-8 749.88,-8"/>
<text text-anchor="middle" x="847.5" y="-211.95" font-family="Helvetica,sans-Serif" font-size="14.00">ScrnaMetabolicLandscape</text>
</g>
<!-- MetabolicPathwayHeterogeneity -->
<g id="node1" class="node">
<title>MetabolicPathwayHeterogeneity</title>
<g id="a_node1"><a xlink:title="Calculate Metabolic Pathway heterogeneity.">
<polygon fill="#f26419" stroke="none" points="966.25,-52 757.5,-52 757.5,-16 966.25,-16 966.25,-52"/>
<text text-anchor="middle" x="861.88" y="-29.73" font-family="Helvetica,sans-Serif" font-size="12.00" fill="#ffffff">MetabolicPathwayHeterogeneity</text>
</a>
</g>
</g>
<!-- MetabolicInput -->
<g id="node2" class="node">
<title>MetabolicInput</title>
<g id="a_node2"><a xlink:title="This process takes Seurat object as input and pass it to the next processes in the `ScrnaMetabolicLandscape` group.">
<path fill="#219ebc" stroke="none" d="M986.12,-196C986.12,-196 905.62,-196 905.62,-196 899.62,-196 893.62,-190 893.62,-184 893.62,-184 893.62,-172 893.62,-172 893.62,-166 899.62,-160 905.62,-160 905.62,-160 986.12,-160 986.12,-160 992.12,-160 998.12,-166 998.12,-172 998.12,-172 998.12,-184 998.12,-184 998.12,-190 992.12,-196 986.12,-196"/>
<text text-anchor="middle" x="945.88" y="-173.72" font-family="Helvetica,sans-Serif" font-size="12.00" fill="#ffffff">MetabolicInput</text>
</a>
</g>
</g>
<!-- MetabolicExprImputation -->
<g id="node6" class="node">
<title>MetabolicExprImputation</title>
<g id="a_node6"><a xlink:title="This process imputes the dropout values in scRNA&#45;seq data.">
<path fill="#219ebc" stroke="none" d="M1151.88,-124C1151.88,-124 1009.88,-124 1009.88,-124 1003.88,-124 997.88,-118 997.88,-112 997.88,-112 997.88,-100 997.88,-100 997.88,-94 1003.88,-88 1009.88,-88 1009.88,-88 1151.88,-88 1151.88,-88 1157.88,-88 1163.88,-94 1163.88,-100 1163.88,-100 1163.88,-112 1163.88,-112 1163.88,-118 1157.88,-124 1151.88,-124"/>
<text text-anchor="middle" x="1080.88" y="-101.72" font-family="Helvetica,sans-Serif" font-size="12.00" fill="#ffffff">MetabolicExprImputation</text>
</a>
</g>
</g>
<!-- MetabolicInput&#45;&gt;MetabolicExprImputation -->
<g id="edge4" class="edge">
<title>MetabolicInput&#45;&gt;MetabolicExprImputation</title>
<path fill="none" stroke="#3d314a" d="M978.55,-160.05C997.13,-150.42 1020.54,-138.28 1040.28,-128.05"/>
<polygon fill="#3d314a" stroke="#3d314a" points="1041.34,-130.65 1047.15,-124.49 1038.76,-125.68 1041.34,-130.65"/>
</g>
<!-- MetabolicFeaturesIntraSubset -->
<g id="node3" class="node">
<title>MetabolicFeaturesIntraSubset</title>
<g id="a_node3"><a xlink:title="Intra&#45;subset metabolic features &#45; Enrichment analysis in details">
<polygon fill="#f26419" stroke="none" points="1177.75,-52 984,-52 984,-16 1177.75,-16 1177.75,-52"/>
<text text-anchor="middle" x="1080.88" y="-29.73" font-family="Helvetica,sans-Serif" font-size="12.00" fill="#ffffff">MetabolicFeaturesIntraSubset</text>
</a>
</g>
</g>
<!-- MetabolicPathwayActivity -->
<g id="node4" class="node">
<title>MetabolicPathwayActivity</title>
<g id="a_node4"><a xlink:title="This process calculates the pathway activities in different groups and subsets.">
<polygon fill="#f26419" stroke="none" points="1363.62,-52 1196.12,-52 1196.12,-16 1363.62,-16 1363.62,-52"/>
<text text-anchor="middle" x="1279.88" y="-29.73" font-family="Helvetica,sans-Serif" font-size="12.00" fill="#ffffff">MetabolicPathwayActivity</text>
</a>
</g>
</g>
<!-- MetabolicFeatures -->
<g id="node5" class="node">
<title>MetabolicFeatures</title>
<g id="a_node5"><a xlink:title="This process performs enrichment analysis for the metabolic pathways for each group in each subset.">
<polygon fill="#f26419" stroke="none" points="1506.25,-52 1381.5,-52 1381.5,-16 1506.25,-16 1506.25,-52"/>
<text text-anchor="middle" x="1443.88" y="-29.73" font-family="Helvetica,sans-Serif" font-size="12.00" fill="#ffffff">MetabolicFeatures</text>
</a>
</g>
</g>
<!-- MetabolicExprImputation&#45;&gt;MetabolicPathwayHeterogeneity -->
<g id="edge1" class="edge">
<title>MetabolicExprImputation&#45;&gt;MetabolicPathwayHeterogeneity</title>
<path fill="none" stroke="#3d314a" d="M1027.86,-88.05C996.5,-78.03 956.64,-65.29 923.83,-54.8"/>
<polygon fill="#3d314a" stroke="#3d314a" points="924.69,-52.14 916.22,-52.37 922.99,-57.47 924.69,-52.14"/>
</g>
<!-- MetabolicExprImputation&#45;&gt;MetabolicFeaturesIntraSubset -->
<g id="edge5" class="edge">
<title>MetabolicExprImputation&#45;&gt;MetabolicFeaturesIntraSubset</title>
<path fill="none" stroke="#3d314a" d="M1080.88,-88.05C1080.88,-79.97 1080.88,-70.12 1080.88,-61.11"/>
<polygon fill="#3d314a" stroke="#3d314a" points="1083.68,-61.3 1080.88,-53.3 1078.08,-61.3 1083.68,-61.3"/>
</g>
<!-- MetabolicExprImputation&#45;&gt;MetabolicPathwayActivity -->
<g id="edge3" class="edge">
<title>MetabolicExprImputation&#45;&gt;MetabolicPathwayActivity</title>
<path fill="none" stroke="#3d314a" d="M1129.05,-88.05C1157.42,-78.07 1193.46,-65.4 1223.19,-54.94"/>
<polygon fill="#3d314a" stroke="#3d314a" points="1223.76,-57.71 1230.37,-52.41 1221.9,-52.43 1223.76,-57.71"/>
</g>
<!-- MetabolicExprImputation&#45;&gt;MetabolicFeatures -->
<g id="edge2" class="edge">
<title>MetabolicExprImputation&#45;&gt;MetabolicFeatures</title>
<path fill="none" stroke="#3d314a" d="M1163.87,-91.2C1220.15,-81.54 1296.43,-67.88 1372.33,-52.06"/>
<polygon fill="#3d314a" stroke="#3d314a" points="1372.84,-54.81 1380.1,-50.43 1371.7,-49.33 1372.84,-54.81"/>
</g>
<!-- MarkersFinder -->
<g id="node7" class="node">
<title>MarkersFinder</title>
<g id="a_node7"><a xlink:title="Find markers between different groups of cells">
<polygon fill="#f26419" stroke="none" points="1623.62,-196 1522.12,-196 1522.12,-160 1623.62,-160 1623.62,-196"/>
<text text-anchor="middle" x="1572.88" y="-173.72" font-family="Helvetica,sans-Serif" font-size="12.00" fill="#ffffff">MarkersFinder</text>
</a>
</g>
</g>
<!-- CellTypeAnnotation -->
<g id="node8" class="node">
<title>CellTypeAnnotation</title>
<g id="a_node8"><a xlink:title="Annotate the T cell clusters.">
<path fill="#219ebc" stroke="none" d="M795.88,-489.25C795.88,-489.25 689.88,-489.25 689.88,-489.25 683.88,-489.25 677.88,-483.25 677.88,-477.25 677.88,-477.25 677.88,-465.25 677.88,-465.25 677.88,-459.25 683.88,-453.25 689.88,-453.25 689.88,-453.25 795.88,-453.25 795.88,-453.25 801.88,-453.25 807.88,-459.25 807.88,-465.25 807.88,-465.25 807.88,-477.25 807.88,-477.25 807.88,-483.25 801.88,-489.25 795.88,-489.25"/>
<text text-anchor="middle" x="742.88" y="-466.98" font-family="Helvetica,sans-Serif" font-size="12.00" fill="#ffffff">CellTypeAnnotation</text>
</a>
</g>
</g>
<!-- TESSA -->
<g id="node19" class="node">
<title>TESSA</title>
<g id="a_node19"><a xlink:title="Tessa is a Bayesian model to integrate T cell receptor (TCR) sequence profiling with transcriptomes of T cells.">
<path fill="#219ebc" stroke="none" d="M613,-417.25C613,-417.25 582.75,-417.25 582.75,-417.25 576.75,-417.25 570.75,-411.25 570.75,-405.25 570.75,-405.25 570.75,-393.25 570.75,-393.25 570.75,-387.25 576.75,-381.25 582.75,-381.25 582.75,-381.25 613,-381.25 613,-381.25 619,-381.25 625,-387.25 625,-393.25 625,-393.25 625,-405.25 625,-405.25 625,-411.25 619,-417.25 613,-417.25"/>
<text text-anchor="middle" x="597.88" y="-394.98" font-family="Helvetica,sans-Serif" font-size="12.00" fill="#ffffff">TESSA</text>
</a>
</g>
</g>
<!-- CellTypeAnnotation&#45;&gt;TESSA -->
<g id="edge15" class="edge">
<title>CellTypeAnnotation&#45;&gt;TESSA</title>
<path fill="none" stroke="#3d314a" d="M707.77,-453.3C685.18,-442.4 655.92,-428.27 633.27,-417.33"/>
<polygon fill="#3d314a" stroke="#3d314a" points="634.72,-414.93 626.3,-413.97 632.29,-419.97 634.72,-414.93"/>
</g>
<!-- ClusterMarkers -->
<g id="node26" class="node">
<title>ClusterMarkers</title>
<g id="a_node26"><a xlink:title="Markers for clusters of all or selected T cells.">
<polygon fill="#f26419" stroke="none" points="793.25,-417.25 686.5,-417.25 686.5,-381.25 793.25,-381.25 793.25,-417.25"/>
<text text-anchor="middle" x="739.88" y="-394.98" font-family="Helvetica,sans-Serif" font-size="12.00" fill="#ffffff">ClusterMarkers</text>
</a>
</g>
</g>
<!-- CellTypeAnnotation&#45;&gt;ClusterMarkers -->
<g id="edge21" class="edge">
<title>CellTypeAnnotation&#45;&gt;ClusterMarkers</title>
<path fill="none" stroke="#3d314a" d="M742.15,-453.3C741.8,-445.22 741.38,-435.37 740.99,-426.36"/>
<polygon fill="#3d314a" stroke="#3d314a" points="743.8,-426.42 740.66,-418.55 738.2,-426.66 743.8,-426.42"/>
</g>
<!-- TopExpressingGenes -->
<g id="node27" class="node">
<title>TopExpressingGenes</title>
<g id="a_node27"><a xlink:title="Top expressing genes for clusters of all or selected T cells.">
<polygon fill="#f26419" stroke="none" points="948.62,-417.25 811.12,-417.25 811.12,-381.25 948.62,-381.25 948.62,-417.25"/>
<text text-anchor="middle" x="879.88" y="-394.98" font-family="Helvetica,sans-Serif" font-size="12.00" fill="#ffffff">TopExpressingGenes</text>
</a>
</g>
</g>
<!-- CellTypeAnnotation&#45;&gt;TopExpressingGenes -->
<g id="edge26" class="edge">
<title>CellTypeAnnotation&#45;&gt;TopExpressingGenes</title>
<path fill="none" stroke="#3d314a" d="M776.04,-453.3C794.89,-443.67 818.65,-431.53 838.68,-421.3"/>
<polygon fill="#3d314a" stroke="#3d314a" points="839.82,-423.86 845.67,-417.73 837.27,-418.87 839.82,-423.86"/>
</g>
<!-- TCellSelection -->
<g id="node9" class="node">
<title>TCellSelection</title>
<path fill="#219ebc" stroke="none" d="M763.5,-705.25C763.5,-705.25 688.25,-705.25 688.25,-705.25 682.25,-705.25 676.25,-699.25 676.25,-693.25 676.25,-693.25 676.25,-681.25 676.25,-681.25 676.25,-675.25 682.25,-669.25 688.25,-669.25 688.25,-669.25 763.5,-669.25 763.5,-669.25 769.5,-669.25 775.5,-675.25 775.5,-681.25 775.5,-681.25 775.5,-693.25 775.5,-693.25 775.5,-699.25 769.5,-705.25 763.5,-705.25"/>
<text text-anchor="middle" x="725.88" y="-682.98" font-family="Helvetica,sans-Serif" font-size="12.00" fill="#ffffff">TCellSelection</text>
</g>
<!-- ModuleScoreCalculator -->
<g id="node22" class="node">
<title>ModuleScoreCalculator</title>
<g id="a_node22"><a xlink:title="Calculate the module scores for each cell">
<path fill="#219ebc" stroke="none" d="M817.88,-633.25C817.88,-633.25 687.88,-633.25 687.88,-633.25 681.88,-633.25 675.88,-627.25 675.88,-621.25 675.88,-621.25 675.88,-609.25 675.88,-609.25 675.88,-603.25 681.88,-597.25 687.88,-597.25 687.88,-597.25 817.88,-597.25 817.88,-597.25 823.88,-597.25 829.88,-603.25 829.88,-609.25 829.88,-609.25 829.88,-621.25 829.88,-621.25 829.88,-627.25 823.88,-633.25 817.88,-633.25"/>
<text text-anchor="middle" x="752.88" y="-610.98" font-family="Helvetica,sans-Serif" font-size="12.00" fill="#ffffff">ModuleScoreCalculator</text>
</a>
</g>
</g>
<!-- TCellSelection&#45;&gt;ModuleScoreCalculator -->
<g id="edge37" class="edge">
<title>TCellSelection&#45;&gt;ModuleScoreCalculator</title>
<path fill="none" stroke="#3d314a" d="M732.41,-669.3C735.59,-661.05 739.49,-650.95 743.02,-641.79"/>
<polygon fill="#3d314a" stroke="#3d314a" points="745.59,-642.92 745.85,-634.45 740.36,-640.91 745.59,-642.92"/>
</g>
<!-- SeuratClusteringOfAllCells -->
<g id="node10" class="node">
<title>SeuratClusteringOfAllCells</title>
<g id="a_node10"><a xlink:title="Cluster all cells, including T cells and non&#45;T cells using Seurat">
<path fill="#219ebc" stroke="none" d="M817.88,-777.25C817.88,-777.25 669.88,-777.25 669.88,-777.25 663.88,-777.25 657.88,-771.25 657.88,-765.25 657.88,-765.25 657.88,-753.25 657.88,-753.25 657.88,-747.25 663.88,-741.25 669.88,-741.25 669.88,-741.25 817.88,-741.25 817.88,-741.25 823.88,-741.25 829.88,-747.25 829.88,-753.25 829.88,-753.25 829.88,-765.25 829.88,-765.25 829.88,-771.25 823.88,-777.25 817.88,-777.25"/>
<text text-anchor="middle" x="743.88" y="-754.98" font-family="Helvetica,sans-Serif" font-size="12.00" fill="#ffffff">SeuratClusteringOfAllCells</text>
</a>
</g>
</g>
<!-- SeuratClusteringOfAllCells&#45;&gt;TCellSelection -->
<g id="edge17" class="edge">
<title>SeuratClusteringOfAllCells&#45;&gt;TCellSelection</title>
<path fill="none" stroke="#3d314a" d="M739.52,-741.3C737.42,-733.14 734.85,-723.16 732.52,-714.07"/>
<polygon fill="#3d314a" stroke="#3d314a" points="735.27,-713.56 730.57,-706.5 729.85,-714.95 735.27,-713.56"/>
</g>
<!-- ClusterMarkersOfAllCells -->
<g id="node14" class="node">
<title>ClusterMarkersOfAllCells</title>
<g id="a_node14"><a xlink:title="Markers for clusters of all cells.">
<polygon fill="#f26419" stroke="none" points="1168.38,-705.25 1005.38,-705.25 1005.38,-669.25 1168.38,-669.25 1168.38,-705.25"/>
<text text-anchor="middle" x="1086.88" y="-682.98" font-family="Helvetica,sans-Serif" font-size="12.00" fill="#ffffff">ClusterMarkersOfAllCells</text>
</a>
</g>
</g>
<!-- SeuratClusteringOfAllCells&#45;&gt;ClusterMarkersOfAllCells -->
<g id="edge33" class="edge">
<title>SeuratClusteringOfAllCells&#45;&gt;ClusterMarkersOfAllCells</title>
<path fill="none" stroke="#3d314a" d="M826.91,-741.3C878.06,-730.87 943.67,-717.47 996.19,-706.76"/>
<polygon fill="#3d314a" stroke="#3d314a" points="996.74,-709.5 1004.01,-705.16 995.62,-704.02 996.74,-709.5"/>
</g>
<!-- TopExpressingGenesOfAllCells -->
<g id="node16" class="node">
<title>TopExpressingGenesOfAllCells</title>
<g id="a_node16"><a xlink:title="Top expressing genes for clusters of all cells.">
<polygon fill="#f26419" stroke="none" points="987.75,-705.25 794,-705.25 794,-669.25 987.75,-669.25 987.75,-705.25"/>
<text text-anchor="middle" x="890.88" y="-682.98" font-family="Helvetica,sans-Serif" font-size="12.00" fill="#ffffff">TopExpressingGenesOfAllCells</text>
</a>
</g>
</g>
<!-- SeuratClusteringOfAllCells&#45;&gt;TopExpressingGenesOfAllCells -->
<g id="edge19" class="edge">
<title>SeuratClusteringOfAllCells&#45;&gt;TopExpressingGenesOfAllCells</title>
<path fill="none" stroke="#3d314a" d="M779.46,-741.3C799.79,-731.62 825.45,-719.41 847.01,-709.14"/>
<polygon fill="#3d314a" stroke="#3d314a" points="847.98,-711.78 854,-705.81 845.57,-706.72 847.98,-711.78"/>
</g>
<!-- CloneResidency -->
<g id="node11" class="node">
<title>CloneResidency</title>
<polygon fill="#f26419" stroke="none" points="109.75,-196 0,-196 0,-160 109.75,-160 109.75,-196"/>
<text text-anchor="middle" x="54.88" y="-173.72" font-family="Helvetica,sans-Serif" font-size="12.00" fill="#ffffff">CloneResidency</text>
</g>
<!-- ImmunarchLoading -->
<g id="node12" class="node">
<title>ImmunarchLoading</title>
<g id="a_node12"><a xlink:title="Immuarch &#45; Loading data">
<path fill="#219ebc" stroke="none" d="M625,-777.25C625,-777.25 516.75,-777.25 516.75,-777.25 510.75,-777.25 504.75,-771.25 504.75,-765.25 504.75,-765.25 504.75,-753.25 504.75,-753.25 504.75,-747.25 510.75,-741.25 516.75,-741.25 516.75,-741.25 625,-741.25 625,-741.25 631,-741.25 637,-747.25 637,-753.25 637,-753.25 637,-765.25 637,-765.25 637,-771.25 631,-777.25 625,-777.25"/>
<text text-anchor="middle" x="570.88" y="-754.98" font-family="Helvetica,sans-Serif" font-size="12.00" fill="#ffffff">ImmunarchLoading</text>
</a>
</g>
</g>
<!-- ImmunarchLoading&#45;&gt;TCellSelection -->
<g id="edge16" class="edge">
<title>ImmunarchLoading&#45;&gt;TCellSelection</title>
<path fill="none" stroke="#3d314a" d="M608.4,-741.3C629.93,-731.58 657.12,-719.3 679.93,-709"/>
<polygon fill="#3d314a" stroke="#3d314a" points="680.91,-711.63 687.05,-705.78 678.61,-706.52 680.91,-711.63"/>
</g>
<!-- ImmunarchLoading&#45;&gt;CloneResidency -->
<g id="edge25" class="edge">
<title>ImmunarchLoading&#45;&gt;CloneResidency</title>
<path fill="none" stroke="#3d314a" d="M505.02,-757.2C440.81,-753.84 341.85,-742.37 264.88,-705.25 211.28,-679.4 164.88,-675.75 164.88,-616.25 164.88,-616.25 164.88,-616.25 164.88,-326.25 164.88,-273.44 118.91,-227.38 86.41,-201.4"/>
<polygon fill="#3d314a" stroke="#3d314a" points="88.51,-199.5 80.48,-196.79 85.07,-203.91 88.51,-199.5"/>
</g>
<!-- CDR3AAPhyschem -->
<g id="node13" class="node">
<title>CDR3AAPhyschem</title>
<polygon fill="#f26419" stroke="none" points="254.38,-196 127.38,-196 127.38,-160 254.38,-160 254.38,-196"/>
<text text-anchor="middle" x="190.88" y="-173.72" font-family="Helvetica,sans-Serif" font-size="12.00" fill="#ffffff">CDR3AAPhyschem</text>
</g>
<!-- ImmunarchLoading&#45;&gt;CDR3AAPhyschem -->
<g id="edge35" class="edge">
<title>ImmunarchLoading&#45;&gt;CDR3AAPhyschem</title>
<path fill="none" stroke="#3d314a" d="M504.78,-757.08C411.34,-751.53 251.88,-725.97 251.88,-616.25 251.88,-616.25 251.88,-616.25 251.88,-326.25 251.88,-280.16 226.05,-231.71 208.01,-203.49"/>
<polygon fill="#3d314a" stroke="#3d314a" points="210.49,-202.16 203.76,-197 205.81,-205.23 210.49,-202.16"/>
</g>
<!-- Immunarch -->
<g id="node17" class="node">
<title>Immunarch</title>
<g id="a_node17"><a xlink:title="Exploration of Single&#45;cell and Bulk T&#45;cell/Antibody Immune Repertoires">
<polygon fill="#f26419" stroke="none" points="1813.38,-196 1728.38,-196 1728.38,-160 1813.38,-160 1813.38,-196"/>
<text text-anchor="middle" x="1770.88" y="-173.72" font-family="Helvetica,sans-Serif" font-size="12.00" fill="#ffffff">Immunarch</text>
</a>
</g>
</g>
<!-- ImmunarchLoading&#45;&gt;Immunarch -->
<g id="edge24" class="edge">
<title>ImmunarchLoading&#45;&gt;Immunarch</title>
<path fill="none" stroke="#3d314a" d="M580.25,-741.47C585.67,-731.24 592.3,-717.76 596.88,-705.25 647.85,-565.84 567.8,-480.82 677.88,-381.25 1024.96,-67.29 1300.81,-437.62 1719.88,-229.25 1732.29,-223.08 1743.57,-212.74 1752.35,-203.04"/>
<polygon fill="#3d314a" stroke="#3d314a" points="1754.47,-204.87 1757.56,-196.98 1750.22,-201.22 1754.47,-204.87"/>
</g>
<!-- ImmunarchLoading&#45;&gt;TESSA -->
<g id="edge11" class="edge">
<title>ImmunarchLoading&#45;&gt;TESSA</title>
<path fill="none" stroke="#3d314a" d="M574.43,-741.29C579.68,-714.75 588.88,-661.73 588.88,-616.25 588.88,-616.25 588.88,-616.25 588.88,-542.25 588.88,-501.59 592.6,-454.52 595.25,-426.08"/>
<polygon fill="#3d314a" stroke="#3d314a" points="598.02,-426.58 595.99,-418.35 592.44,-426.05 598.02,-426.58"/>
</g>
<!-- IntegratingTCR -->
<g id="node29" class="node">
<title>IntegratingTCR</title>
<g id="a_node29"><a xlink:title="Attach TCR clone information as meta columns to Seurat object">
<path fill="#219ebc" stroke="none" d="M601.5,-345.25C601.5,-345.25 520.25,-345.25 520.25,-345.25 514.25,-345.25 508.25,-339.25 508.25,-333.25 508.25,-333.25 508.25,-321.25 508.25,-321.25 508.25,-315.25 514.25,-309.25 520.25,-309.25 520.25,-309.25 601.5,-309.25 601.5,-309.25 607.5,-309.25 613.5,-315.25 613.5,-321.25 613.5,-321.25 613.5,-333.25 613.5,-333.25 613.5,-339.25 607.5,-345.25 601.5,-345.25"/>
<text text-anchor="middle" x="560.88" y="-322.98" font-family="Helvetica,sans-Serif" font-size="12.00" fill="#ffffff">IntegratingTCR</text>
</a>
</g>
</g>
<!-- ImmunarchLoading&#45;&gt;IntegratingTCR -->
<g id="edge34" class="edge">
<title>ImmunarchLoading&#45;&gt;IntegratingTCR</title>
<path fill="none" stroke="#3d314a" d="M565.34,-741.41C557.18,-715.04 542.88,-662.23 542.88,-616.25 542.88,-616.25 542.88,-616.25 542.88,-470.25 542.88,-429.57 550.24,-382.85 555.54,-354.45"/>
<polygon fill="#3d314a" stroke="#3d314a" points="558.27,-355.08 557.03,-346.7 552.77,-354.03 558.27,-355.08"/>
</g>
<!-- TCRClustering -->
<g id="node30" class="node">
<title>TCRClustering</title>
<g id="a_node30"><a xlink:title="Cluster the TCR clones by their CDR3 sequences">
<path fill="#219ebc" stroke="none" d="M503.12,-705.25C503.12,-705.25 428.62,-705.25 428.62,-705.25 422.62,-705.25 416.62,-699.25 416.62,-693.25 416.62,-693.25 416.62,-681.25 416.62,-681.25 416.62,-675.25 422.62,-669.25 428.62,-669.25 428.62,-669.25 503.12,-669.25 503.12,-669.25 509.12,-669.25 515.12,-675.25 515.12,-681.25 515.12,-681.25 515.12,-693.25 515.12,-693.25 515.12,-699.25 509.12,-705.25 503.12,-705.25"/>
<text text-anchor="middle" x="465.88" y="-682.98" font-family="Helvetica,sans-Serif" font-size="12.00" fill="#ffffff">TCRClustering</text>
</a>
</g>
</g>
<!-- ImmunarchLoading&#45;&gt;TCRClustering -->
<g id="edge8" class="edge">
<title>ImmunarchLoading&#45;&gt;TCRClustering</title>
<path fill="none" stroke="#3d314a" d="M545.46,-741.3C531.4,-731.93 513.77,-720.18 498.69,-710.12"/>
<polygon fill="#3d314a" stroke="#3d314a" points="500.53,-707.99 492.32,-705.88 497.42,-712.65 500.53,-707.99"/>
</g>
<!-- IntegratingTCRClusters -->
<g id="node15" class="node">
<title>IntegratingTCRClusters</title>
<g id="a_node15"><a xlink:title="Attach TCR clusters as meta columns to Seurat object">
<path fill="#219ebc" stroke="none" d="M613.12,-273.25C613.12,-273.25 484.62,-273.25 484.62,-273.25 478.62,-273.25 472.62,-267.25 472.62,-261.25 472.62,-261.25 472.62,-249.25 472.62,-249.25 472.62,-243.25 478.62,-237.25 484.62,-237.25 484.62,-237.25 613.12,-237.25 613.12,-237.25 619.12,-237.25 625.12,-243.25 625.12,-249.25 625.12,-249.25 625.12,-261.25 625.12,-261.25 625.12,-267.25 619.12,-273.25 613.12,-273.25"/>
<text text-anchor="middle" x="548.88" y="-250.97" font-family="Helvetica,sans-Serif" font-size="12.00" fill="#ffffff">IntegratingTCRClusters</text>
</a>
</g>
</g>
<!-- IntegratingTCRClusters&#45;&gt;MetabolicInput -->
<g id="edge30" class="edge">
<title>IntegratingTCRClusters&#45;&gt;MetabolicInput</title>
<path fill="none" stroke="#3d314a" d="M624.88,-239.25C629.61,-238.52 634.3,-237.84 638.88,-237.25 688.36,-230.83 701.62,-237.29 750.88,-229.25 796.39,-221.82 846.78,-208.71 884.93,-197.74"/>
<polygon fill="#3d314a" stroke="#3d314a" points="885.51,-200.48 892.41,-195.56 883.95,-195.11 885.51,-200.48"/>
</g>
<!-- IntegratingTCRClusters&#45;&gt;MarkersFinder -->
<g id="edge13" class="edge">
<title>IntegratingTCRClusters&#45;&gt;MarkersFinder</title>
<path fill="none" stroke="#3d314a" d="M624.85,-238.92C629.58,-238.27 634.29,-237.7 638.88,-237.25 663.18,-234.86 1495.15,-238.19 1517.88,-229.25 1531.96,-223.71 1544.66,-212.74 1554.29,-202.46"/>
<polygon fill="#3d314a" stroke="#3d314a" points="1556.23,-204.5 1559.45,-196.66 1552.04,-200.77 1556.23,-204.5"/>
</g>
<!-- IntegratingTCRClusters&#45;&gt;CloneResidency -->
<g id="edge18" class="edge">
<title>IntegratingTCRClusters&#45;&gt;CloneResidency</title>
<path fill="none" stroke="#3d314a" d="M472.69,-251C353.58,-245.76 135.09,-235.39 118.88,-229.25 103.34,-223.37 88.57,-212.29 77.14,-202.03"/>
<polygon fill="#3d314a" stroke="#3d314a" points="79.35,-200.25 71.59,-196.83 75.52,-204.34 79.35,-200.25"/>
</g>
<!-- IntegratingTCRClusters&#45;&gt;CDR3AAPhyschem -->
<g id="edge29" class="edge">
<title>IntegratingTCRClusters&#45;&gt;CDR3AAPhyschem</title>
<path fill="none" stroke="#3d314a" d="M472.8,-251.94C401.66,-249 300.97,-242.59 263.88,-229.25 246.81,-223.11 229.98,-211.98 216.79,-201.74"/>
<polygon fill="#3d314a" stroke="#3d314a" points="218.65,-199.64 210.66,-196.81 215.14,-204.01 218.65,-199.64"/>
</g>
<!-- IntegratingTCRClusters&#45;&gt;Immunarch -->
<g id="edge12" class="edge">
<title>IntegratingTCRClusters&#45;&gt;Immunarch</title>
<path fill="none" stroke="#3d314a" d="M624.85,-238.91C629.58,-238.26 634.29,-237.7 638.88,-237.25 668.76,-234.34 1692.13,-240.74 1719.88,-229.25 1733.18,-223.74 1744.89,-212.92 1753.72,-202.73"/>
<polygon fill="#3d314a" stroke="#3d314a" points="1755.78,-204.64 1758.67,-196.68 1751.44,-201.1 1755.78,-204.64"/>
</g>
<!-- ScFGSEA -->
<g id="node20" class="node">
<title>ScFGSEA</title>
<polygon fill="#f26419" stroke="none" points="1710.5,-196 1641.25,-196 1641.25,-160 1710.5,-160 1710.5,-196"/>
<text text-anchor="middle" x="1675.88" y="-173.72" font-family="Helvetica,sans-Serif" font-size="12.00" fill="#ffffff">ScFGSEA</text>
</g>
<!-- IntegratingTCRClusters&#45;&gt;ScFGSEA -->
<g id="edge23" class="edge">
<title>IntegratingTCRClusters&#45;&gt;ScFGSEA</title>
<path fill="none" stroke="#3d314a" d="M624.85,-238.91C629.58,-238.26 634.29,-237.7 638.88,-237.25 666.36,-234.57 1607.84,-240.9 1632.88,-229.25 1644.54,-223.82 1654.23,-213.52 1661.44,-203.65"/>
<polygon fill="#3d314a" stroke="#3d314a" points="1663.66,-205.37 1665.83,-197.18 1659.02,-202.23 1663.66,-205.37"/>
</g>
<!-- CellsDistribution -->
<g id="node23" class="node">
<title>CellsDistribution</title>
<polygon fill="#f26419" stroke="none" points="384.88,-196 272.88,-196 272.88,-160 384.88,-160 384.88,-196"/>
<text text-anchor="middle" x="328.88" y="-173.72" font-family="Helvetica,sans-Serif" font-size="12.00" fill="#ffffff">CellsDistribution</text>
</g>
<!-- IntegratingTCRClusters&#45;&gt;CellsDistribution -->
<g id="edge36" class="edge">
<title>IntegratingTCRClusters&#45;&gt;CellsDistribution</title>
<path fill="none" stroke="#3d314a" d="M472.64,-249.58C446.84,-246.03 418.38,-239.87 393.88,-229.25 378.95,-222.78 364.43,-212.11 352.91,-202.26"/>
<polygon fill="#3d314a" stroke="#3d314a" points="354.77,-200.17 346.93,-196.96 351.06,-204.36 354.77,-200.17"/>
</g>
<!-- RadarPlots -->
<g id="node25" class="node">
<title>RadarPlots</title>
<g id="a_node25"><a xlink:title="Radar plots for cell proportion in different clusters.">
<polygon fill="#f26419" stroke="none" points="483.12,-196 402.62,-196 402.62,-160 483.12,-160 483.12,-196"/>
<text text-anchor="middle" x="442.88" y="-173.72" font-family="Helvetica,sans-Serif" font-size="12.00" fill="#ffffff">RadarPlots</text>
</a>
</g>
</g>
<!-- IntegratingTCRClusters&#45;&gt;RadarPlots -->
<g id="edge27" class="edge">
<title>IntegratingTCRClusters&#45;&gt;RadarPlots</title>
<path fill="none" stroke="#3d314a" d="M506.37,-237.3C501.68,-234.84 497.08,-232.15 492.88,-229.25 482.16,-221.86 471.77,-212 463.26,-202.98"/>
<polygon fill="#3d314a" stroke="#3d314a" points="465.35,-201.12 457.89,-197.1 461.22,-204.89 465.35,-201.12"/>
</g>
<!-- MetaMarkers -->
<g id="node31" class="node">
<title>MetaMarkers</title>
<polygon fill="#f26419" stroke="none" points="596.25,-196 501.5,-196 501.5,-160 596.25,-160 596.25,-196"/>
<text text-anchor="middle" x="548.88" y="-173.72" font-family="Helvetica,sans-Serif" font-size="12.00" fill="#ffffff">MetaMarkers</text>
</g>
<!-- IntegratingTCRClusters&#45;&gt;MetaMarkers -->
<g id="edge28" class="edge">
<title>IntegratingTCRClusters&#45;&gt;MetaMarkers</title>
<path fill="none" stroke="#3d314a" d="M548.88,-237.55C548.88,-228.07 548.88,-215.99 548.88,-205.27"/>
<polygon fill="#3d314a" stroke="#3d314a" points="551.68,-205.43 548.88,-197.43 546.08,-205.43 551.68,-205.43"/>
</g>
<!-- SeuratClusterStats -->
<g id="node32" class="node">
<title>SeuratClusterStats</title>
<polygon fill="#f26419" stroke="none" points="741.75,-196 614,-196 614,-160 741.75,-160 741.75,-196"/>
<text text-anchor="middle" x="677.88" y="-173.72" font-family="Helvetica,sans-Serif" font-size="12.00" fill="#ffffff">SeuratClusterStats</text>
</g>
<!-- IntegratingTCRClusters&#45;&gt;SeuratClusterStats -->
<g id="edge22" class="edge">
<title>IntegratingTCRClusters&#45;&gt;SeuratClusterStats</title>
<path fill="none" stroke="#3d314a" d="M589.09,-237.37C594.47,-234.8 599.86,-232.06 604.88,-229.25 619.54,-221.02 634.99,-210.66 647.89,-201.48"/>
<polygon fill="#3d314a" stroke="#3d314a" points="649.47,-203.79 654.32,-196.84 646.2,-199.25 649.47,-203.79"/>
</g>
<!-- SeuratClustering -->
<g id="node18" class="node">
<title>SeuratClustering</title>
<g id="a_node18"><a xlink:title="Cluster all T cells or selected T cells selected by `TCellSelection`.">
<path fill="#219ebc" stroke="none" d="M793.75,-561.25C793.75,-561.25 702,-561.25 702,-561.25 696,-561.25 690,-555.25 690,-549.25 690,-549.25 690,-537.25 690,-537.25 690,-531.25 696,-525.25 702,-525.25 702,-525.25 793.75,-525.25 793.75,-525.25 799.75,-525.25 805.75,-531.25 805.75,-537.25 805.75,-537.25 805.75,-549.25 805.75,-549.25 805.75,-555.25 799.75,-561.25 793.75,-561.25"/>
<text text-anchor="middle" x="747.88" y="-538.98" font-family="Helvetica,sans-Serif" font-size="12.00" fill="#ffffff">SeuratClustering</text>
</a>
</g>
</g>
<!-- SeuratClustering&#45;&gt;CellTypeAnnotation -->
<g id="edge7" class="edge">
<title>SeuratClustering&#45;&gt;CellTypeAnnotation</title>
<path fill="none" stroke="#3d314a" d="M746.66,-525.3C746.09,-517.22 745.38,-507.37 744.74,-498.36"/>
<polygon fill="#3d314a" stroke="#3d314a" points="747.55,-498.33 744.18,-490.55 741.96,-498.73 747.55,-498.33"/>
</g>
<!-- TESSA&#45;&gt;IntegratingTCR -->
<g id="edge14" class="edge">
<title>TESSA&#45;&gt;IntegratingTCR</title>
<path fill="none" stroke="#3d314a" d="M588.92,-381.3C584.46,-372.88 578.99,-362.53 574.07,-353.22"/>
<polygon fill="#3d314a" stroke="#3d314a" points="576.67,-352.14 570.46,-346.38 571.72,-354.76 576.67,-352.14"/>
</g>
<!-- SeuratPreparing -->
<g id="node21" class="node">
<title>SeuratPreparing</title>
<g id="a_node21"><a xlink:title="Load, prepare and apply QC to data, using `Seurat`">
<path fill="#219ebc" stroke="none" d="M763.25,-849.25C763.25,-849.25 674.5,-849.25 674.5,-849.25 668.5,-849.25 662.5,-843.25 662.5,-837.25 662.5,-837.25 662.5,-825.25 662.5,-825.25 662.5,-819.25 668.5,-813.25 674.5,-813.25 674.5,-813.25 763.25,-813.25 763.25,-813.25 769.25,-813.25 775.25,-819.25 775.25,-825.25 775.25,-825.25 775.25,-837.25 775.25,-837.25 775.25,-843.25 769.25,-849.25 763.25,-849.25"/>
<text text-anchor="middle" x="718.88" y="-826.98" font-family="Helvetica,sans-Serif" font-size="12.00" fill="#ffffff">SeuratPreparing</text>
</a>
</g>
</g>
<!-- SeuratPreparing&#45;&gt;SeuratClusteringOfAllCells -->
<g id="edge38" class="edge">
<title>SeuratPreparing&#45;&gt;SeuratClusteringOfAllCells</title>
<path fill="none" stroke="#3d314a" d="M724.93,-813.3C727.87,-805.05 731.48,-794.95 734.75,-785.79"/>
<polygon fill="#3d314a" stroke="#3d314a" points="737.32,-786.94 737.37,-778.46 732.04,-785.06 737.32,-786.94"/>
</g>
<!-- ModuleScoreCalculator&#45;&gt;SeuratClustering -->
<g id="edge6" class="edge">
<title>ModuleScoreCalculator&#45;&gt;SeuratClustering</title>
<path fill="none" stroke="#3d314a" d="M751.66,-597.3C751.09,-589.22 750.38,-579.37 749.74,-570.36"/>
<polygon fill="#3d314a" stroke="#3d314a" points="752.55,-570.33 749.18,-562.55 746.96,-570.73 752.55,-570.33"/>
</g>
<!-- SampleInfo -->
<g id="node24" class="node">
<title>SampleInfo</title>
<g id="a_node24"><a xlink:title="List sample information and perform statistics">
<polygon fill="#4c956c" stroke="none" points="655.88,-921.25 580.09,-903.25 655.88,-885.25 731.66,-903.25 655.88,-921.25"/>
<text text-anchor="middle" x="655.88" y="-898.98" font-family="Helvetica,sans-Serif" font-size="12.00" fill="#ffffff">SampleInfo</text>
</a>
</g>
</g>
<!-- SampleInfo&#45;&gt;ImmunarchLoading -->
<g id="edge10" class="edge">
<title>SampleInfo&#45;&gt;ImmunarchLoading</title>
<path fill="none" stroke="#3d314a" d="M647.1,-887.59C632.6,-863.36 603.48,-814.72 585.73,-785.06"/>
<polygon fill="#3d314a" stroke="#3d314a" points="588.33,-783.96 581.82,-778.54 583.53,-786.84 588.33,-783.96"/>
</g>
<!-- SampleInfo&#45;&gt;SeuratPreparing -->
<g id="edge31" class="edge">
<title>SampleInfo&#45;&gt;SeuratPreparing</title>
<path fill="none" stroke="#3d314a" d="M668.32,-888.42C676.68,-879.14 687.89,-866.67 697.64,-855.84"/>
<polygon fill="#3d314a" stroke="#3d314a" points="699.5,-857.96 702.77,-850.14 695.34,-854.21 699.5,-857.96"/>
</g>
<!-- TCRClusterStats -->
<g id="node28" class="node">
<title>TCRClusterStats</title>
<polygon fill="#f26419" stroke="none" points="452.12,-633.25 341.62,-633.25 341.62,-597.25 452.12,-597.25 452.12,-633.25"/>
<text text-anchor="middle" x="396.88" y="-610.98" font-family="Helvetica,sans-Serif" font-size="12.00" fill="#ffffff">TCRClusterStats</text>
</g>
<!-- IntegratingTCR&#45;&gt;IntegratingTCRClusters -->
<g id="edge32" class="edge">
<title>IntegratingTCR&#45;&gt;IntegratingTCRClusters</title>
<path fill="none" stroke="#3d314a" d="M557.97,-309.3C556.58,-301.22 554.9,-291.37 553.35,-282.36"/>
<polygon fill="#3d314a" stroke="#3d314a" points="556.12,-281.94 552.01,-274.53 550.6,-282.89 556.12,-281.94"/>
</g>
<!-- TCRClustering&#45;&gt;IntegratingTCRClusters -->
<g id="edge20" class="edge">
<title>TCRClustering&#45;&gt;IntegratingTCRClusters</title>
<path fill="none" stroke="#3d314a" d="M468.64,-669.25C472.72,-642.67 479.88,-589.58 479.88,-544.25 479.88,-544.25 479.88,-544.25 479.88,-398.25 479.88,-357.8 480.08,-345.06 498.88,-309.25 504.58,-298.38 513.15,-288.13 521.58,-279.6"/>
<polygon fill="#3d314a" stroke="#3d314a" points="523.37,-281.77 527.18,-274.2 519.48,-277.74 523.37,-281.77"/>
</g>
<!-- TCRClustering&#45;&gt;TCRClusterStats -->
<g id="edge9" class="edge">
<title>TCRClustering&#45;&gt;TCRClusterStats</title>
<path fill="none" stroke="#3d314a" d="M449.17,-669.3C440.44,-660.45 429.62,-649.47 420.09,-639.8"/>
<polygon fill="#3d314a" stroke="#3d314a" points="422.1,-637.85 414.49,-634.12 418.11,-641.78 422.1,-637.85"/>
</g>
</g>
</svg>
