<?xml version="1.0" encoding="UTF-8" standalone="no"?>
<!DOCTYPE svg PUBLIC "-//W3C//DTD SVG 1.1//EN"
 "http://www.w3.org/Graphics/SVG/1.1/DTD/svg11.dtd">
<!-- Generated by graphviz version 11.0.0 (20240519.1550)
 -->
<!-- Title: Immunopipe Pages: 1 -->
<svg width="1824pt" height="972pt"
 viewBox="0.00 0.00 1823.88 971.75" xmlns="http://www.w3.org/2000/svg" xmlns:xlink="http://www.w3.org/1999/xlink">
<g id="graph0" class="graph" transform="scale(1 1) rotate(0) translate(4 967.75)">
<title>Immunopipe</title>
<polygon fill="white" stroke="none" points="-4,4 -4,-967.75 1819.88,-967.75 1819.88,4 -4,4"/>
<text text-anchor="middle" x="907.94" y="-946.45" font-family="Helvetica,sans-Serif" font-size="14.00">Immunopipe</text>
<text text-anchor="middle" x="907.94" y="-929.2" font-family="Helvetica,sans-Serif" font-size="14.00"> </text>
<g id="clust1" class="cluster">
<title>cluster_ScrnaMetabolicLandscape</title>
<polygon fill="#eeeeee" stroke="#eeeeee" points="664.88,-8 664.88,-229.25 1429.88,-229.25 1429.88,-8 664.88,-8"/>
<text text-anchor="middle" x="762.5" y="-211.95" font-family="Helvetica,sans-Serif" font-size="14.00">ScrnaMetabolicLandscape</text>
</g>
<!-- MetabolicFeaturesIntraSubset -->
<g id="node1" class="node">
<title>MetabolicFeaturesIntraSubset</title>
<g id="a_node1"><a xlink:title="Intra&#45;subset metabolic features &#45; Enrichment analysis in details">
<polygon fill="#f26419" stroke="none" points="866.75,-52 673,-52 673,-16 866.75,-16 866.75,-52"/>
<text text-anchor="middle" x="769.88" y="-29.73" font-family="Helvetica,sans-Serif" font-size="12.00" fill="#ffffff">MetabolicFeaturesIntraSubset</text>
</a>
</g>
</g>
<!-- MetabolicPathwayActivity -->
<g id="node2" class="node">
<title>MetabolicPathwayActivity</title>
<g id="a_node2"><a xlink:title="This process calculates the pathway activities in different groups and subsets.">
<polygon fill="#f26419" stroke="none" points="1052.62,-52 885.12,-52 885.12,-16 1052.62,-16 1052.62,-52"/>
<text text-anchor="middle" x="968.88" y="-29.73" font-family="Helvetica,sans-Serif" font-size="12.00" fill="#ffffff">MetabolicPathwayActivity</text>
</a>
</g>
</g>
<!-- MetabolicInput -->
<g id="node3" class="node">
<title>MetabolicInput</title>
<g id="a_node3"><a xlink:title="This process takes Seurat object as input and pass it to the next processes in the `ScrnaMetabolicLandscape` group.">
<path fill="#219ebc" stroke="none" d="M888.12,-196C888.12,-196 807.62,-196 807.62,-196 801.62,-196 795.62,-190 795.62,-184 795.62,-184 795.62,-172 795.62,-172 795.62,-166 801.62,-160 807.62,-160 807.62,-160 888.12,-160 888.12,-160 894.12,-160 900.12,-166 900.12,-172 900.12,-172 900.12,-184 900.12,-184 900.12,-190 894.12,-196 888.12,-196"/>
<text text-anchor="middle" x="847.88" y="-173.72" font-family="Helvetica,sans-Serif" font-size="12.00" fill="#ffffff">MetabolicInput</text>
</a>
</g>
</g>
<!-- MetabolicExprImputation -->
<g id="node4" class="node">
<title>MetabolicExprImputation</title>
<g id="a_node4"><a xlink:title="This process imputes the dropout values in scRNA&#45;seq data.">
<path fill="#219ebc" stroke="none" d="M1039.88,-124C1039.88,-124 897.88,-124 897.88,-124 891.88,-124 885.88,-118 885.88,-112 885.88,-112 885.88,-100 885.88,-100 885.88,-94 891.88,-88 897.88,-88 897.88,-88 1039.88,-88 1039.88,-88 1045.88,-88 1051.88,-94 1051.88,-100 1051.88,-100 1051.88,-112 1051.88,-112 1051.88,-118 1045.88,-124 1039.88,-124"/>
<text text-anchor="middle" x="968.88" y="-101.72" font-family="Helvetica,sans-Serif" font-size="12.00" fill="#ffffff">MetabolicExprImputation</text>
</a>
</g>
</g>
<!-- MetabolicInput&#45;&gt;MetabolicExprImputation -->
<g id="edge4" class="edge">
<title>MetabolicInput&#45;&gt;MetabolicExprImputation</title>
<path fill="none" stroke="#3d314a" d="M877.17,-160.05C893.66,-150.51 914.42,-138.5 932.02,-128.32"/>
<polygon fill="#3d314a" stroke="#3d314a" points="933.02,-130.98 938.54,-124.55 930.22,-126.13 933.02,-130.98"/>
</g>
<!-- MetabolicExprImputation&#45;&gt;MetabolicFeaturesIntraSubset -->
<g id="edge1" class="edge">
<title>MetabolicExprImputation&#45;&gt;MetabolicFeaturesIntraSubset</title>
<path fill="none" stroke="#3d314a" d="M920.7,-88.05C892.33,-78.07 856.29,-65.4 826.56,-54.94"/>
<polygon fill="#3d314a" stroke="#3d314a" points="827.85,-52.43 819.38,-52.41 825.99,-57.71 827.85,-52.43"/>
</g>
<!-- MetabolicExprImputation&#45;&gt;MetabolicPathwayActivity -->
<g id="edge2" class="edge">
<title>MetabolicExprImputation&#45;&gt;MetabolicPathwayActivity</title>
<path fill="none" stroke="#3d314a" d="M968.88,-88.05C968.88,-79.97 968.88,-70.12 968.88,-61.11"/>
<polygon fill="#3d314a" stroke="#3d314a" points="971.68,-61.3 968.88,-53.3 966.08,-61.3 971.68,-61.3"/>
</g>
<!-- MetabolicPathwayHeterogeneity -->
<g id="node5" class="node">
<title>MetabolicPathwayHeterogeneity</title>
<g id="a_node5"><a xlink:title="Calculate Metabolic Pathway heterogeneity.">
<polygon fill="#f26419" stroke="none" points="1279.25,-52 1070.5,-52 1070.5,-16 1279.25,-16 1279.25,-52"/>
<text text-anchor="middle" x="1174.88" y="-29.73" font-family="Helvetica,sans-Serif" font-size="12.00" fill="#ffffff">MetabolicPathwayHeterogeneity</text>
</a>
</g>
</g>
<!-- MetabolicExprImputation&#45;&gt;MetabolicPathwayHeterogeneity -->
<g id="edge5" class="edge">
<title>MetabolicExprImputation&#45;&gt;MetabolicPathwayHeterogeneity</title>
<path fill="none" stroke="#3d314a" d="M1018.74,-88.05C1048.11,-78.07 1085.42,-65.4 1116.2,-54.94"/>
<polygon fill="#3d314a" stroke="#3d314a" points="1117,-57.62 1123.68,-52.4 1115.2,-52.32 1117,-57.62"/>
</g>
<!-- MetabolicFeatures -->
<g id="node6" class="node">
<title>MetabolicFeatures</title>
<g id="a_node6"><a xlink:title="This process performs enrichment analysis for the metabolic pathways for each group in each subset.">
<polygon fill="#f26419" stroke="none" points="1422.25,-52 1297.5,-52 1297.5,-16 1422.25,-16 1422.25,-52"/>
<text text-anchor="middle" x="1359.88" y="-29.73" font-family="Helvetica,sans-Serif" font-size="12.00" fill="#ffffff">MetabolicFeatures</text>
</a>
</g>
</g>
<!-- MetabolicExprImputation&#45;&gt;MetabolicFeatures -->
<g id="edge3" class="edge">
<title>MetabolicExprImputation&#45;&gt;MetabolicFeatures</title>
<path fill="none" stroke="#3d314a" d="M1051.77,-92.79C1116.32,-82.91 1208.06,-68.03 1287.88,-52 1288.18,-51.94 1288.49,-51.88 1288.8,-51.81"/>
<polygon fill="#3d314a" stroke="#3d314a" points="1289.14,-54.6 1296.4,-50.23 1288,-49.12 1289.14,-54.6"/>
</g>
<!-- Immunarch -->
<g id="node7" class="node">
<title>Immunarch</title>
<g id="a_node7"><a xlink:title="Exploration of Single&#45;cell and Bulk T&#45;cell/Antibody Immune Repertoires">
<polygon fill="#f26419" stroke="none" points="357.38,-196 272.38,-196 272.38,-160 357.38,-160 357.38,-196"/>
<text text-anchor="middle" x="314.88" y="-173.72" font-family="Helvetica,sans-Serif" font-size="12.00" fill="#ffffff">Immunarch</text>
</a>
</g>
</g>
<!-- MarkersFinder -->
<g id="node8" class="node">
<title>MarkersFinder</title>
<g id="a_node8"><a xlink:title="Find markers between different groups of cells">
<polygon fill="#f26419" stroke="none" points="1539.62,-196 1438.12,-196 1438.12,-160 1539.62,-160 1539.62,-196"/>
<text text-anchor="middle" x="1488.88" y="-173.72" font-family="Helvetica,sans-Serif" font-size="12.00" fill="#ffffff">MarkersFinder</text>
</a>
</g>
</g>
<!-- TCellSelection -->
<g id="node9" class="node">
<title>TCellSelection</title>
<path fill="#219ebc" stroke="none" d="M649.5,-705.25C649.5,-705.25 574.25,-705.25 574.25,-705.25 568.25,-705.25 562.25,-699.25 562.25,-693.25 562.25,-693.25 562.25,-681.25 562.25,-681.25 562.25,-675.25 568.25,-669.25 574.25,-669.25 574.25,-669.25 649.5,-669.25 649.5,-669.25 655.5,-669.25 661.5,-675.25 661.5,-681.25 661.5,-681.25 661.5,-693.25 661.5,-693.25 661.5,-699.25 655.5,-705.25 649.5,-705.25"/>
<text text-anchor="middle" x="611.88" y="-682.98" font-family="Helvetica,sans-Serif" font-size="12.00" fill="#ffffff">TCellSelection</text>
</g>
<!-- ModuleScoreCalculator -->
<g id="node24" class="node">
<title>ModuleScoreCalculator</title>
<g id="a_node24"><a xlink:title="Calculate the module scores for each cell">
<path fill="#219ebc" stroke="none" d="M708.88,-633.25C708.88,-633.25 578.88,-633.25 578.88,-633.25 572.88,-633.25 566.88,-627.25 566.88,-621.25 566.88,-621.25 566.88,-609.25 566.88,-609.25 566.88,-603.25 572.88,-597.25 578.88,-597.25 578.88,-597.25 708.88,-597.25 708.88,-597.25 714.88,-597.25 720.88,-603.25 720.88,-609.25 720.88,-609.25 720.88,-621.25 720.88,-621.25 720.88,-627.25 714.88,-633.25 708.88,-633.25"/>
<text text-anchor="middle" x="643.88" y="-610.98" font-family="Helvetica,sans-Serif" font-size="12.00" fill="#ffffff">ModuleScoreCalculator</text>
</a>
</g>
</g>
<!-- TCellSelection&#45;&gt;ModuleScoreCalculator -->
<g id="edge13" class="edge">
<title>TCellSelection&#45;&gt;ModuleScoreCalculator</title>
<path fill="none" stroke="#3d314a" d="M619.62,-669.3C623.43,-660.96 628.11,-650.74 632.33,-641.5"/>
<polygon fill="#3d314a" stroke="#3d314a" points="634.79,-642.86 635.57,-634.42 629.7,-640.53 634.79,-642.86"/>
</g>
<!-- SeuratClusteringOfAllCells -->
<g id="node10" class="node">
<title>SeuratClusteringOfAllCells</title>
<g id="a_node10"><a xlink:title="Cluster all cells, including T cells and non&#45;T cells using Seurat">
<path fill="#219ebc" stroke="none" d="M719.88,-777.25C719.88,-777.25 571.88,-777.25 571.88,-777.25 565.88,-777.25 559.88,-771.25 559.88,-765.25 559.88,-765.25 559.88,-753.25 559.88,-753.25 559.88,-747.25 565.88,-741.25 571.88,-741.25 571.88,-741.25 719.88,-741.25 719.88,-741.25 725.88,-741.25 731.88,-747.25 731.88,-753.25 731.88,-753.25 731.88,-765.25 731.88,-765.25 731.88,-771.25 725.88,-777.25 719.88,-777.25"/>
<text text-anchor="middle" x="645.88" y="-754.98" font-family="Helvetica,sans-Serif" font-size="12.00" fill="#ffffff">SeuratClusteringOfAllCells</text>
</a>
</g>
</g>
<!-- SeuratClusteringOfAllCells&#45;&gt;TCellSelection -->
<g id="edge17" class="edge">
<title>SeuratClusteringOfAllCells&#45;&gt;TCellSelection</title>
<path fill="none" stroke="#3d314a" d="M637.64,-741.3C633.59,-732.96 628.63,-722.74 624.14,-713.5"/>
<polygon fill="#3d314a" stroke="#3d314a" points="626.7,-712.37 620.69,-706.4 621.67,-714.82 626.7,-712.37"/>
</g>
<!-- TopExpressingGenesOfAllCells -->
<g id="node12" class="node">
<title>TopExpressingGenesOfAllCells</title>
<g id="a_node12"><a xlink:title="Top expressing genes for clusters of all cells.">
<polygon fill="#f26419" stroke="none" points="873.75,-705.25 680,-705.25 680,-669.25 873.75,-669.25 873.75,-705.25"/>
<text text-anchor="middle" x="776.88" y="-682.98" font-family="Helvetica,sans-Serif" font-size="12.00" fill="#ffffff">TopExpressingGenesOfAllCells</text>
</a>
</g>
</g>
<!-- SeuratClusteringOfAllCells&#45;&gt;TopExpressingGenesOfAllCells -->
<g id="edge20" class="edge">
<title>SeuratClusteringOfAllCells&#45;&gt;TopExpressingGenesOfAllCells</title>
<path fill="none" stroke="#3d314a" d="M677.59,-741.3C695.53,-731.72 718.13,-719.64 737.23,-709.43"/>
<polygon fill="#3d314a" stroke="#3d314a" points="738.38,-711.99 744.12,-705.75 735.75,-707.05 738.38,-711.99"/>
</g>
<!-- ClusterMarkersOfAllCells -->
<g id="node23" class="node">
<title>ClusterMarkersOfAllCells</title>
<g id="a_node23"><a xlink:title="Markers for clusters of all cells.">
<polygon fill="#f26419" stroke="none" points="1054.38,-705.25 891.38,-705.25 891.38,-669.25 1054.38,-669.25 1054.38,-705.25"/>
<text text-anchor="middle" x="972.88" y="-682.98" font-family="Helvetica,sans-Serif" font-size="12.00" fill="#ffffff">ClusterMarkersOfAllCells</text>
</a>
</g>
</g>
<!-- SeuratClusteringOfAllCells&#45;&gt;ClusterMarkersOfAllCells -->
<g id="edge32" class="edge">
<title>SeuratClusteringOfAllCells&#45;&gt;ClusterMarkersOfAllCells</title>
<path fill="none" stroke="#3d314a" d="M725.03,-741.3C773.17,-731 834.73,-717.82 884.46,-707.18"/>
<polygon fill="#3d314a" stroke="#3d314a" points="884.88,-709.95 892.12,-705.54 883.71,-704.47 884.88,-709.95"/>
</g>
<!-- ClusterMarkers -->
<g id="node11" class="node">
<title>ClusterMarkers</title>
<g id="a_node11"><a xlink:title="Markers for clusters of all or selected T cells.">
<polygon fill="#f26419" stroke="none" points="703.25,-417.25 596.5,-417.25 596.5,-381.25 703.25,-381.25 703.25,-417.25"/>
<text text-anchor="middle" x="649.88" y="-394.98" font-family="Helvetica,sans-Serif" font-size="12.00" fill="#ffffff">ClusterMarkers</text>
</a>
</g>
</g>
<!-- CloneResidency -->
<g id="node13" class="node">
<title>CloneResidency</title>
<polygon fill="#f26419" stroke="none" points="109.75,-196 0,-196 0,-160 109.75,-160 109.75,-196"/>
<text text-anchor="middle" x="54.88" y="-173.72" font-family="Helvetica,sans-Serif" font-size="12.00" fill="#ffffff">CloneResidency</text>
</g>
<!-- CellTypeAnnotation -->
<g id="node14" class="node">
<title>CellTypeAnnotation</title>
<g id="a_node14"><a xlink:title="Annotate the T cell clusters.">
<path fill="#219ebc" stroke="none" d="M700.88,-489.25C700.88,-489.25 594.88,-489.25 594.88,-489.25 588.88,-489.25 582.88,-483.25 582.88,-477.25 582.88,-477.25 582.88,-465.25 582.88,-465.25 582.88,-459.25 588.88,-453.25 594.88,-453.25 594.88,-453.25 700.88,-453.25 700.88,-453.25 706.88,-453.25 712.88,-459.25 712.88,-465.25 712.88,-465.25 712.88,-477.25 712.88,-477.25 712.88,-483.25 706.88,-489.25 700.88,-489.25"/>
<text text-anchor="middle" x="647.88" y="-466.98" font-family="Helvetica,sans-Serif" font-size="12.00" fill="#ffffff">CellTypeAnnotation</text>
</a>
</g>
</g>
<!-- CellTypeAnnotation&#45;&gt;ClusterMarkers -->
<g id="edge19" class="edge">
<title>CellTypeAnnotation&#45;&gt;ClusterMarkers</title>
<path fill="none" stroke="#3d314a" d="M648.36,-453.3C648.59,-445.22 648.87,-435.37 649.13,-426.36"/>
<polygon fill="#3d314a" stroke="#3d314a" points="651.92,-426.63 649.35,-418.55 646.32,-426.47 651.92,-426.63"/>
</g>
<!-- TopExpressingGenes -->
<g id="node19" class="node">
<title>TopExpressingGenes</title>
<g id="a_node19"><a xlink:title="Top expressing genes for clusters of all or selected T cells.">
<polygon fill="#f26419" stroke="none" points="858.62,-417.25 721.12,-417.25 721.12,-381.25 858.62,-381.25 858.62,-417.25"/>
<text text-anchor="middle" x="789.88" y="-394.98" font-family="Helvetica,sans-Serif" font-size="12.00" fill="#ffffff">TopExpressingGenes</text>
</a>
</g>
</g>
<!-- CellTypeAnnotation&#45;&gt;TopExpressingGenes -->
<g id="edge23" class="edge">
<title>CellTypeAnnotation&#45;&gt;TopExpressingGenes</title>
<path fill="none" stroke="#3d314a" d="M682.25,-453.3C701.87,-443.63 726.63,-431.43 747.46,-421.16"/>
<polygon fill="#3d314a" stroke="#3d314a" points="748.52,-423.76 754.46,-417.71 746.05,-418.73 748.52,-423.76"/>
</g>
<!-- TESSA -->
<g id="node28" class="node">
<title>TESSA</title>
<g id="a_node28"><a xlink:title="Tessa is a Bayesian model to integrate T cell receptor (TCR) sequence profiling with transcriptomes of T cells.">
<path fill="#219ebc" stroke="none" d="M566,-417.25C566,-417.25 535.75,-417.25 535.75,-417.25 529.75,-417.25 523.75,-411.25 523.75,-405.25 523.75,-405.25 523.75,-393.25 523.75,-393.25 523.75,-387.25 529.75,-381.25 535.75,-381.25 535.75,-381.25 566,-381.25 566,-381.25 572,-381.25 578,-387.25 578,-393.25 578,-393.25 578,-405.25 578,-405.25 578,-411.25 572,-417.25 566,-417.25"/>
<text text-anchor="middle" x="550.88" y="-394.98" font-family="Helvetica,sans-Serif" font-size="12.00" fill="#ffffff">TESSA</text>
</a>
</g>
</g>
<!-- CellTypeAnnotation&#45;&gt;TESSA -->
<g id="edge14" class="edge">
<title>CellTypeAnnotation&#45;&gt;TESSA</title>
<path fill="none" stroke="#3d314a" d="M624.39,-453.3C611.53,-444.02 595.42,-432.4 581.57,-422.4"/>
<polygon fill="#3d314a" stroke="#3d314a" points="583.49,-420.34 575.37,-417.92 580.22,-424.88 583.49,-420.34"/>
</g>
<!-- SeuratClusterStats -->
<g id="node15" class="node">
<title>SeuratClusterStats</title>
<polygon fill="#f26419" stroke="none" points="1685.75,-196 1558,-196 1558,-160 1685.75,-160 1685.75,-196"/>
<text text-anchor="middle" x="1621.88" y="-173.72" font-family="Helvetica,sans-Serif" font-size="12.00" fill="#ffffff">SeuratClusterStats</text>
</g>
<!-- SampleInfo -->
<g id="node16" class="node">
<title>SampleInfo</title>
<g id="a_node16"><a xlink:title="List sample information and perform statistics">
<polygon fill="#4c956c" stroke="none" points="546.88,-921.25 471.09,-903.25 546.88,-885.25 622.66,-903.25 546.88,-921.25"/>
<text text-anchor="middle" x="546.88" y="-898.98" font-family="Helvetica,sans-Serif" font-size="12.00" fill="#ffffff">SampleInfo</text>
</a>
</g>
</g>
<!-- SeuratPreparing -->
<g id="node20" class="node">
<title>SeuratPreparing</title>
<g id="a_node20"><a xlink:title="Load, prepare and apply QC to data, using `Seurat`">
<path fill="#219ebc" stroke="none" d="M654.25,-849.25C654.25,-849.25 565.5,-849.25 565.5,-849.25 559.5,-849.25 553.5,-843.25 553.5,-837.25 553.5,-837.25 553.5,-825.25 553.5,-825.25 553.5,-819.25 559.5,-813.25 565.5,-813.25 565.5,-813.25 654.25,-813.25 654.25,-813.25 660.25,-813.25 666.25,-819.25 666.25,-825.25 666.25,-825.25 666.25,-837.25 666.25,-837.25 666.25,-843.25 660.25,-849.25 654.25,-849.25"/>
<text text-anchor="middle" x="609.88" y="-826.98" font-family="Helvetica,sans-Serif" font-size="12.00" fill="#ffffff">SeuratPreparing</text>
</a>
</g>
</g>
<!-- SampleInfo&#45;&gt;SeuratPreparing -->
<g id="edge10" class="edge">
<title>SampleInfo&#45;&gt;SeuratPreparing</title>
<path fill="none" stroke="#3d314a" d="M559.32,-888.42C567.68,-879.14 578.89,-866.67 588.64,-855.84"/>
<polygon fill="#3d314a" stroke="#3d314a" points="590.5,-857.96 593.77,-850.14 586.34,-854.21 590.5,-857.96"/>
</g>
<!-- ImmunarchLoading -->
<g id="node27" class="node">
<title>ImmunarchLoading</title>
<g id="a_node27"><a xlink:title="Immuarch &#45; Loading data">
<path fill="#219ebc" stroke="none" d="M516,-777.25C516,-777.25 407.75,-777.25 407.75,-777.25 401.75,-777.25 395.75,-771.25 395.75,-765.25 395.75,-765.25 395.75,-753.25 395.75,-753.25 395.75,-747.25 401.75,-741.25 407.75,-741.25 407.75,-741.25 516,-741.25 516,-741.25 522,-741.25 528,-747.25 528,-753.25 528,-753.25 528,-765.25 528,-765.25 528,-771.25 522,-777.25 516,-777.25"/>
<text text-anchor="middle" x="461.88" y="-754.98" font-family="Helvetica,sans-Serif" font-size="12.00" fill="#ffffff">ImmunarchLoading</text>
</a>
</g>
</g>
<!-- SampleInfo&#45;&gt;ImmunarchLoading -->
<g id="edge31" class="edge">
<title>SampleInfo&#45;&gt;ImmunarchLoading</title>
<path fill="none" stroke="#3d314a" d="M538.1,-887.59C523.6,-863.36 494.48,-814.72 476.73,-785.06"/>
<polygon fill="#3d314a" stroke="#3d314a" points="479.33,-783.96 472.82,-778.54 474.53,-786.84 479.33,-783.96"/>
</g>
<!-- IntegratingTCRClusters -->
<g id="node17" class="node">
<title>IntegratingTCRClusters</title>
<g id="a_node17"><a xlink:title="Attach TCR clusters as meta columns to Seurat object">
<path fill="#219ebc" stroke="none" d="M593.12,-273.25C593.12,-273.25 464.62,-273.25 464.62,-273.25 458.62,-273.25 452.62,-267.25 452.62,-261.25 452.62,-261.25 452.62,-249.25 452.62,-249.25 452.62,-243.25 458.62,-237.25 464.62,-237.25 464.62,-237.25 593.12,-237.25 593.12,-237.25 599.12,-237.25 605.12,-243.25 605.12,-249.25 605.12,-249.25 605.12,-261.25 605.12,-261.25 605.12,-267.25 599.12,-273.25 593.12,-273.25"/>
<text text-anchor="middle" x="528.88" y="-250.97" font-family="Helvetica,sans-Serif" font-size="12.00" fill="#ffffff">IntegratingTCRClusters</text>
</a>
</g>
</g>
<!-- IntegratingTCRClusters&#45;&gt;MetabolicInput -->
<g id="edge21" class="edge">
<title>IntegratingTCRClusters&#45;&gt;MetabolicInput</title>
<path fill="none" stroke="#3d314a" d="M604.85,-241.63C624.78,-237.98 646.2,-233.75 665.88,-229.25 706.67,-219.91 752.05,-207.39 787.29,-197.18"/>
<polygon fill="#3d314a" stroke="#3d314a" points="787.67,-199.99 794.56,-195.06 786.1,-194.61 787.67,-199.99"/>
</g>
<!-- IntegratingTCRClusters&#45;&gt;Immunarch -->
<g id="edge16" class="edge">
<title>IntegratingTCRClusters&#45;&gt;Immunarch</title>
<path fill="none" stroke="#3d314a" d="M452.99,-252.15C424.79,-248.94 393.26,-242.34 366.88,-229.25 354.21,-222.96 342.62,-212.48 333.61,-202.71"/>
<polygon fill="#3d314a" stroke="#3d314a" points="335.92,-201.09 328.53,-196.93 331.71,-204.78 335.92,-201.09"/>
</g>
<!-- IntegratingTCRClusters&#45;&gt;MarkersFinder -->
<g id="edge22" class="edge">
<title>IntegratingTCRClusters&#45;&gt;MarkersFinder</title>
<path fill="none" stroke="#3d314a" d="M604.96,-253.59C816,-251.57 1395.78,-244.64 1433.88,-229.25 1447.71,-223.66 1460.25,-212.9 1469.84,-202.77"/>
<polygon fill="#3d314a" stroke="#3d314a" points="1471.72,-204.87 1474.99,-197.05 1467.56,-201.13 1471.72,-204.87"/>
</g>
<!-- IntegratingTCRClusters&#45;&gt;CloneResidency -->
<g id="edge26" class="edge">
<title>IntegratingTCRClusters&#45;&gt;CloneResidency</title>
<path fill="none" stroke="#3d314a" d="M453.05,-252.07C343.1,-248.53 149.16,-240.76 118.88,-229.25 103.35,-223.35 88.58,-212.26 77.15,-202.01"/>
<polygon fill="#3d314a" stroke="#3d314a" points="79.35,-200.23 71.6,-196.81 75.53,-204.32 79.35,-200.23"/>
</g>
<!-- IntegratingTCRClusters&#45;&gt;SeuratClusterStats -->
<g id="edge38" class="edge">
<title>IntegratingTCRClusters&#45;&gt;SeuratClusterStats</title>
<path fill="none" stroke="#3d314a" d="M604.96,-253.57C834.02,-251.37 1504.22,-243.73 1548.88,-229.25 1566.37,-223.57 1583.44,-212.24 1596.67,-201.77"/>
<polygon fill="#3d314a" stroke="#3d314a" points="1598.42,-203.96 1602.83,-196.72 1594.87,-199.64 1598.42,-203.96"/>
</g>
<!-- CellsDistribution -->
<g id="node18" class="node">
<title>CellsDistribution</title>
<polygon fill="#f26419" stroke="none" points="1815.88,-196 1703.88,-196 1703.88,-160 1815.88,-160 1815.88,-196"/>
<text text-anchor="middle" x="1759.88" y="-173.72" font-family="Helvetica,sans-Serif" font-size="12.00" fill="#ffffff">CellsDistribution</text>
</g>
<!-- IntegratingTCRClusters&#45;&gt;CellsDistribution -->
<g id="edge30" class="edge">
<title>IntegratingTCRClusters&#45;&gt;CellsDistribution</title>
<path fill="none" stroke="#3d314a" d="M605.07,-253.93C856.02,-252.69 1643.57,-247.39 1694.88,-229.25 1710.8,-223.62 1725.9,-212.45 1737.53,-202.06"/>
<polygon fill="#3d314a" stroke="#3d314a" points="1739.25,-204.29 1743.2,-196.79 1735.43,-200.19 1739.25,-204.29"/>
</g>
<!-- MetaMarkers -->
<g id="node21" class="node">
<title>MetaMarkers</title>
<polygon fill="#f26419" stroke="none" points="470.25,-196 375.5,-196 375.5,-160 470.25,-160 470.25,-196"/>
<text text-anchor="middle" x="422.88" y="-173.72" font-family="Helvetica,sans-Serif" font-size="12.00" fill="#ffffff">MetaMarkers</text>
</g>
<!-- IntegratingTCRClusters&#45;&gt;MetaMarkers -->
<g id="edge12" class="edge">
<title>IntegratingTCRClusters&#45;&gt;MetaMarkers</title>
<path fill="none" stroke="#3d314a" d="M493.2,-237.39C488.61,-234.84 484.06,-232.1 479.88,-229.25 468.11,-221.25 456.15,-211.08 446.23,-201.98"/>
<polygon fill="#3d314a" stroke="#3d314a" points="448.27,-200.05 440.52,-196.62 444.44,-204.13 448.27,-200.05"/>
</g>
<!-- RadarPlots -->
<g id="node26" class="node">
<title>RadarPlots</title>
<g id="a_node26"><a xlink:title="Radar plots for cell proportion in different clusters.">
<polygon fill="#f26419" stroke="none" points="569.12,-196 488.62,-196 488.62,-160 569.12,-160 569.12,-196"/>
<text text-anchor="middle" x="528.88" y="-173.72" font-family="Helvetica,sans-Serif" font-size="12.00" fill="#ffffff">RadarPlots</text>
</a>
</g>
</g>
<!-- IntegratingTCRClusters&#45;&gt;RadarPlots -->
<g id="edge7" class="edge">
<title>IntegratingTCRClusters&#45;&gt;RadarPlots</title>
<path fill="none" stroke="#3d314a" d="M528.88,-237.55C528.88,-228.07 528.88,-215.99 528.88,-205.27"/>
<polygon fill="#3d314a" stroke="#3d314a" points="531.68,-205.43 528.88,-197.43 526.08,-205.43 531.68,-205.43"/>
</g>
<!-- ScFGSEA -->
<g id="node31" class="node">
<title>ScFGSEA</title>
<polygon fill="#f26419" stroke="none" points="656.5,-196 587.25,-196 587.25,-160 656.5,-160 656.5,-196"/>
<text text-anchor="middle" x="621.88" y="-173.72" font-family="Helvetica,sans-Serif" font-size="12.00" fill="#ffffff">ScFGSEA</text>
</g>
<!-- IntegratingTCRClusters&#45;&gt;ScFGSEA -->
<g id="edge34" class="edge">
<title>IntegratingTCRClusters&#45;&gt;ScFGSEA</title>
<path fill="none" stroke="#3d314a" d="M565.93,-237.29C570.11,-234.82 574.18,-232.13 577.88,-229.25 587.45,-221.79 596.55,-212.03 603.97,-203.1"/>
<polygon fill="#3d314a" stroke="#3d314a" points="606.01,-205.03 608.83,-197.04 601.64,-201.53 606.01,-205.03"/>
</g>
<!-- CDR3AAPhyschem -->
<g id="node32" class="node">
<title>CDR3AAPhyschem</title>
<polygon fill="#f26419" stroke="none" points="254.38,-196 127.38,-196 127.38,-160 254.38,-160 254.38,-196"/>
<text text-anchor="middle" x="190.88" y="-173.72" font-family="Helvetica,sans-Serif" font-size="12.00" fill="#ffffff">CDR3AAPhyschem</text>
</g>
<!-- IntegratingTCRClusters&#45;&gt;CDR3AAPhyschem -->
<g id="edge35" class="edge">
<title>IntegratingTCRClusters&#45;&gt;CDR3AAPhyschem</title>
<path fill="none" stroke="#3d314a" d="M452.76,-251.32C387,-248.02 297.43,-241.44 263.88,-229.25 246.83,-223.06 230.01,-211.92 216.81,-201.69"/>
<polygon fill="#3d314a" stroke="#3d314a" points="218.66,-199.59 210.67,-196.77 215.16,-203.96 218.66,-199.59"/>
</g>
<!-- SeuratPreparing&#45;&gt;SeuratClusteringOfAllCells -->
<g id="edge8" class="edge">
<title>SeuratPreparing&#45;&gt;SeuratClusteringOfAllCells</title>
<path fill="none" stroke="#3d314a" d="M618.59,-813.3C622.92,-804.88 628.25,-794.53 633.04,-785.22"/>
<polygon fill="#3d314a" stroke="#3d314a" points="635.38,-786.78 636.55,-778.38 630.4,-784.22 635.38,-786.78"/>
</g>
<!-- IntegratingTCR -->
<g id="node22" class="node">
<title>IntegratingTCR</title>
<g id="a_node22"><a xlink:title="Attach TCR clone information as meta columns to Seurat object">
<path fill="#219ebc" stroke="none" d="M569.5,-345.25C569.5,-345.25 488.25,-345.25 488.25,-345.25 482.25,-345.25 476.25,-339.25 476.25,-333.25 476.25,-333.25 476.25,-321.25 476.25,-321.25 476.25,-315.25 482.25,-309.25 488.25,-309.25 488.25,-309.25 569.5,-309.25 569.5,-309.25 575.5,-309.25 581.5,-315.25 581.5,-321.25 581.5,-321.25 581.5,-333.25 581.5,-333.25 581.5,-339.25 575.5,-345.25 569.5,-345.25"/>
<text text-anchor="middle" x="528.88" y="-322.98" font-family="Helvetica,sans-Serif" font-size="12.00" fill="#ffffff">IntegratingTCR</text>
</a>
</g>
</g>
<!-- IntegratingTCR&#45;&gt;IntegratingTCRClusters -->
<g id="edge9" class="edge">
<title>IntegratingTCR&#45;&gt;IntegratingTCRClusters</title>
<path fill="none" stroke="#3d314a" d="M528.88,-309.3C528.88,-301.22 528.88,-291.37 528.88,-282.36"/>
<polygon fill="#3d314a" stroke="#3d314a" points="531.68,-282.55 528.88,-274.55 526.08,-282.55 531.68,-282.55"/>
</g>
<!-- SeuratClustering -->
<g id="node29" class="node">
<title>SeuratClustering</title>
<g id="a_node29"><a xlink:title="Cluster all T cells or selected T cells selected by `TCellSelection`.">
<path fill="#219ebc" stroke="none" d="M690.75,-561.25C690.75,-561.25 599,-561.25 599,-561.25 593,-561.25 587,-555.25 587,-549.25 587,-549.25 587,-537.25 587,-537.25 587,-531.25 593,-525.25 599,-525.25 599,-525.25 690.75,-525.25 690.75,-525.25 696.75,-525.25 702.75,-531.25 702.75,-537.25 702.75,-537.25 702.75,-549.25 702.75,-549.25 702.75,-555.25 696.75,-561.25 690.75,-561.25"/>
<text text-anchor="middle" x="644.88" y="-538.98" font-family="Helvetica,sans-Serif" font-size="12.00" fill="#ffffff">SeuratClustering</text>
</a>
</g>
</g>
<!-- ModuleScoreCalculator&#45;&gt;SeuratClustering -->
<g id="edge37" class="edge">
<title>ModuleScoreCalculator&#45;&gt;SeuratClustering</title>
<path fill="none" stroke="#3d314a" d="M644.12,-597.3C644.23,-589.22 644.37,-579.37 644.5,-570.36"/>
<polygon fill="#3d314a" stroke="#3d314a" points="647.3,-570.59 644.61,-562.55 641.7,-570.51 647.3,-570.59"/>
</g>
<!-- TCRClusterStats -->
<g id="node25" class="node">
<title>TCRClusterStats</title>
<polygon fill="#f26419" stroke="none" points="468.12,-633.25 357.62,-633.25 357.62,-597.25 468.12,-597.25 468.12,-633.25"/>
<text text-anchor="middle" x="412.88" y="-610.98" font-family="Helvetica,sans-Serif" font-size="12.00" fill="#ffffff">TCRClusterStats</text>
</g>
<!-- ImmunarchLoading&#45;&gt;Immunarch -->
<g id="edge29" class="edge">
<title>ImmunarchLoading&#45;&gt;Immunarch</title>
<path fill="none" stroke="#3d314a" d="M413.16,-741.42C362.93,-720.6 291.88,-679.89 291.88,-616.25 291.88,-616.25 291.88,-616.25 291.88,-326.25 291.88,-283.24 301.57,-234.01 308.37,-204.76"/>
<polygon fill="#3d314a" stroke="#3d314a" points="311.06,-205.55 310.2,-197.12 305.61,-204.25 311.06,-205.55"/>
</g>
<!-- ImmunarchLoading&#45;&gt;TCellSelection -->
<g id="edge25" class="edge">
<title>ImmunarchLoading&#45;&gt;TCellSelection</title>
<path fill="none" stroke="#3d314a" d="M498.19,-741.3C518.93,-731.62 545.11,-719.41 567.12,-709.14"/>
<polygon fill="#3d314a" stroke="#3d314a" points="568.2,-711.72 574.27,-705.8 565.83,-706.65 568.2,-711.72"/>
</g>
<!-- ImmunarchLoading&#45;&gt;CloneResidency -->
<g id="edge36" class="edge">
<title>ImmunarchLoading&#45;&gt;CloneResidency</title>
<path fill="none" stroke="#3d314a" d="M396.1,-757.77C300.61,-753.21 134.88,-729.05 134.88,-616.25 134.88,-616.25 134.88,-616.25 134.88,-326.25 134.88,-277.91 101.18,-230.29 77.52,-202.82"/>
<polygon fill="#3d314a" stroke="#3d314a" points="79.85,-201.23 72.45,-197.09 75.65,-204.93 79.85,-201.23"/>
</g>
<!-- ImmunarchLoading&#45;&gt;IntegratingTCR -->
<g id="edge24" class="edge">
<title>ImmunarchLoading&#45;&gt;IntegratingTCR</title>
<path fill="none" stroke="#3d314a" d="M468.59,-741.51C478.5,-715.27 495.88,-662.64 495.88,-616.25 495.88,-616.25 495.88,-616.25 495.88,-470.25 495.88,-428.64 509.49,-381.9 519.23,-353.79"/>
<polygon fill="#3d314a" stroke="#3d314a" points="521.8,-354.91 521.85,-346.43 516.53,-353.03 521.8,-354.91"/>
</g>
<!-- ImmunarchLoading&#45;&gt;TESSA -->
<g id="edge27" class="edge">
<title>ImmunarchLoading&#45;&gt;TESSA</title>
<path fill="none" stroke="#3d314a" d="M481.12,-741.29C491.01,-731.62 502.5,-718.76 509.88,-705.25 529.5,-669.29 533.88,-657.22 533.88,-616.25 533.88,-616.25 533.88,-616.25 533.88,-542.25 533.88,-501.61 540.83,-454.88 545.84,-426.47"/>
<polygon fill="#3d314a" stroke="#3d314a" points="548.57,-427.08 547.25,-418.71 543.06,-426.08 548.57,-427.08"/>
</g>
<!-- TCRClustering -->
<g id="node30" class="node">
<title>TCRClustering</title>
<g id="a_node30"><a xlink:title="Cluster the TCR clones by their CDR3 sequences">
<path fill="#219ebc" stroke="none" d="M450.12,-705.25C450.12,-705.25 375.62,-705.25 375.62,-705.25 369.62,-705.25 363.62,-699.25 363.62,-693.25 363.62,-693.25 363.62,-681.25 363.62,-681.25 363.62,-675.25 369.62,-669.25 375.62,-669.25 375.62,-669.25 450.12,-669.25 450.12,-669.25 456.12,-669.25 462.12,-675.25 462.12,-681.25 462.12,-681.25 462.12,-693.25 462.12,-693.25 462.12,-699.25 456.12,-705.25 450.12,-705.25"/>
<text text-anchor="middle" x="412.88" y="-682.98" font-family="Helvetica,sans-Serif" font-size="12.00" fill="#ffffff">TCRClustering</text>
</a>
</g>
</g>
<!-- ImmunarchLoading&#45;&gt;TCRClustering -->
<g id="edge18" class="edge">
<title>ImmunarchLoading&#45;&gt;TCRClustering</title>
<path fill="none" stroke="#3d314a" d="M450.01,-741.3C443.99,-732.71 436.57,-722.11 429.95,-712.65"/>
<polygon fill="#3d314a" stroke="#3d314a" points="432.38,-711.23 425.5,-706.28 427.79,-714.44 432.38,-711.23"/>
</g>
<!-- ImmunarchLoading&#45;&gt;CDR3AAPhyschem -->
<g id="edge15" class="edge">
<title>ImmunarchLoading&#45;&gt;CDR3AAPhyschem</title>
<path fill="none" stroke="#3d314a" d="M395.98,-748.21C324.93,-733.22 221.88,-697.46 221.88,-616.25 221.88,-616.25 221.88,-616.25 221.88,-326.25 221.88,-282.87 208.84,-233.82 199.67,-204.71"/>
<polygon fill="#3d314a" stroke="#3d314a" points="202.44,-204.18 197.32,-197.42 197.11,-205.9 202.44,-204.18"/>
</g>
<!-- TESSA&#45;&gt;IntegratingTCR -->
<g id="edge11" class="edge">
<title>TESSA&#45;&gt;IntegratingTCR</title>
<path fill="none" stroke="#3d314a" d="M545.55,-381.3C542.98,-373.14 539.85,-363.16 536.99,-354.07"/>
<polygon fill="#3d314a" stroke="#3d314a" points="539.68,-353.28 534.61,-346.48 534.33,-354.95 539.68,-353.28"/>
</g>
<!-- SeuratClustering&#45;&gt;CellTypeAnnotation -->
<g id="edge28" class="edge">
<title>SeuratClustering&#45;&gt;CellTypeAnnotation</title>
<path fill="none" stroke="#3d314a" d="M645.6,-525.3C645.95,-517.22 646.37,-507.37 646.76,-498.36"/>
<polygon fill="#3d314a" stroke="#3d314a" points="649.55,-498.66 647.09,-490.55 643.95,-498.42 649.55,-498.66"/>
</g>
<!-- TCRClustering&#45;&gt;IntegratingTCRClusters -->
<g id="edge6" class="edge">
<title>TCRClustering&#45;&gt;IntegratingTCRClusters</title>
<path fill="none" stroke="#3d314a" d="M384.82,-669.34C371.98,-660.21 357.7,-647.81 348.88,-633.25 327.92,-598.66 329.88,-584.7 329.88,-544.25 329.88,-544.25 329.88,-544.25 329.88,-398.25 329.88,-334.5 398.39,-296.67 455.02,-276.29"/>
<polygon fill="#3d314a" stroke="#3d314a" points="455.92,-278.94 462.56,-273.67 454.08,-273.65 455.92,-278.94"/>
</g>
<!-- TCRClustering&#45;&gt;TCRClusterStats -->
<g id="edge33" class="edge">
<title>TCRClustering&#45;&gt;TCRClusterStats</title>
<path fill="none" stroke="#3d314a" d="M412.88,-669.3C412.88,-661.22 412.88,-651.37 412.88,-642.36"/>
<polygon fill="#3d314a" stroke="#3d314a" points="415.68,-642.55 412.88,-634.55 410.08,-642.55 415.68,-642.55"/>
</g>
</g>
</svg>
