<?xml version="1.0" encoding="UTF-8" standalone="no"?>
<!DOCTYPE svg PUBLIC "-//W3C//DTD SVG 1.1//EN"
 "http://www.w3.org/Graphics/SVG/1.1/DTD/svg11.dtd">
<!-- Generated by graphviz version 12.2.1 (20250203.1708)
 -->
<!-- Title: Immunopipe Pages: 1 -->
<svg width="1378pt" height="967pt"
 viewBox="0.00 0.00 1377.50 967.25" xmlns="http://www.w3.org/2000/svg" xmlns:xlink="http://www.w3.org/1999/xlink">
<g id="graph0" class="graph" transform="scale(1 1) rotate(0) translate(4 963.25)">
<title>Immunopipe</title>
<polygon fill="white" stroke="none" points="-4,4 -4,-963.25 1373.5,-963.25 1373.5,4 -4,4"/>
<text text-anchor="middle" x="684.75" y="-941.95" font-family="Helvetica,sans-Serif" font-size="14.00">Immunopipe</text>
<text text-anchor="middle" x="684.75" y="-926.2" font-family="Helvetica,sans-Serif" font-size="14.00"> </text>
<g id="clust1" class="cluster">
<title>cluster_ScrnaMetabolicLandscape</title>
<polygon fill="#eeeeee" stroke="#eeeeee" points="8,-8 8,-155.75 518,-155.75 518,-8 8,-8"/>
<text text-anchor="middle" x="95.88" y="-138.45" font-family="Helvetica,sans-Serif" font-size="14.00">ScrnaMetabolicLandscape</text>
</g>
<!-- MetabolicPathwayHeterogeneity -->
<g id="node1" class="node">
<title>MetabolicPathwayHeterogeneity</title>
<g id="a_node1"><a xlink:title="Calculate Metabolic Pathway heterogeneity.">
<polygon fill="#f26419" stroke="none" points="205.62,-52 16.38,-52 16.38,-16 205.62,-16 205.62,-52"/>
<text text-anchor="middle" x="111" y="-29.73" font-family="Helvetica,sans-Serif" font-size="12.00" fill="#ffffff">MetabolicPathwayHeterogeneity</text>
</a>
</g>
</g>
<!-- MetabolicPathwayActivity -->
<g id="node2" class="node">
<title>MetabolicPathwayActivity</title>
<g id="a_node2"><a xlink:title="This process calculates the pathway activities in different groups and subsets.">
<polygon fill="#f26419" stroke="none" points="376.25,-52 223.75,-52 223.75,-16 376.25,-16 376.25,-52"/>
<text text-anchor="middle" x="300" y="-29.73" font-family="Helvetica,sans-Serif" font-size="12.00" fill="#ffffff">MetabolicPathwayActivity</text>
</a>
</g>
</g>
<!-- MetabolicInput -->
<g id="node3" class="node">
<title>MetabolicInput</title>
<g id="a_node3"><a xlink:title="This process takes Seurat object as input and pass it to the next processes in the `ScrnaMetabolicLandscape` group.">
<path fill="#219ebc" stroke="none" d="M411,-124C411,-124 341,-124 341,-124 335,-124 329,-118 329,-112 329,-112 329,-100 329,-100 329,-94 335,-88 341,-88 341,-88 411,-88 411,-88 417,-88 423,-94 423,-100 423,-100 423,-112 423,-112 423,-118 417,-124 411,-124"/>
<text text-anchor="middle" x="376" y="-101.72" font-family="Helvetica,sans-Serif" font-size="12.00" fill="#ffffff">MetabolicInput</text>
</a>
</g>
</g>
<!-- MetabolicInput&#45;&gt;MetabolicPathwayHeterogeneity -->
<g id="edge3" class="edge">
<title>MetabolicInput&#45;&gt;MetabolicPathwayHeterogeneity</title>
<path fill="none" stroke="#3d314a" d="M329.23,-92.65C289.11,-82.05 230.62,-66.6 184.29,-54.36"/>
<polygon fill="#3d314a" stroke="#3d314a" points="185.1,-51.68 176.65,-52.34 183.67,-57.09 185.1,-51.68"/>
</g>
<!-- MetabolicInput&#45;&gt;MetabolicPathwayActivity -->
<g id="edge2" class="edge">
<title>MetabolicInput&#45;&gt;MetabolicPathwayActivity</title>
<path fill="none" stroke="#3d314a" d="M357.6,-88.05C347.8,-79.03 335.6,-67.79 324.96,-57.99"/>
<polygon fill="#3d314a" stroke="#3d314a" points="327.12,-56.17 319.34,-52.81 323.33,-60.29 327.12,-56.17"/>
</g>
<!-- MetabolicFeatures -->
<g id="node4" class="node">
<title>MetabolicFeatures</title>
<g id="a_node4"><a xlink:title="This process performs enrichment analysis for the metabolic pathways for each group in each subset.">
<polygon fill="#f26419" stroke="none" points="509.5,-52 394.5,-52 394.5,-16 509.5,-16 509.5,-52"/>
<text text-anchor="middle" x="452" y="-29.73" font-family="Helvetica,sans-Serif" font-size="12.00" fill="#ffffff">MetabolicFeatures</text>
</a>
</g>
</g>
<!-- MetabolicInput&#45;&gt;MetabolicFeatures -->
<g id="edge1" class="edge">
<title>MetabolicInput&#45;&gt;MetabolicFeatures</title>
<path fill="none" stroke="#3d314a" d="M394.4,-88.05C404.2,-79.03 416.4,-67.79 427.04,-57.99"/>
<polygon fill="#3d314a" stroke="#3d314a" points="428.67,-60.29 432.66,-52.81 424.88,-56.17 428.67,-60.29"/>
</g>
<!-- SeuratClusterStats -->
<g id="node5" class="node">
<title>SeuratClusterStats</title>
<polygon fill="#f26419" stroke="none" points="642.25,-124 525.75,-124 525.75,-88 642.25,-88 642.25,-124"/>
<text text-anchor="middle" x="584" y="-101.72" font-family="Helvetica,sans-Serif" font-size="12.00" fill="#ffffff">SeuratClusterStats</text>
</g>
<!-- ClonalStats -->
<g id="node6" class="node">
<title>ClonalStats</title>
<polygon fill="#f26419" stroke="none" points="738.12,-124 659.88,-124 659.88,-88 738.12,-88 738.12,-124"/>
<text text-anchor="middle" x="699" y="-101.72" font-family="Helvetica,sans-Serif" font-size="12.00" fill="#ffffff">ClonalStats</text>
</g>
<!-- CDR3AAPhyschem -->
<g id="node7" class="node">
<title>CDR3AAPhyschem</title>
<polygon fill="#f26419" stroke="none" points="878.25,-124 755.75,-124 755.75,-88 878.25,-88 878.25,-124"/>
<text text-anchor="middle" x="817" y="-101.72" font-family="Helvetica,sans-Serif" font-size="12.00" fill="#ffffff">CDR3AAPhyschem</text>
</g>
<!-- ScRepCombiningExpression -->
<g id="node8" class="node">
<title>ScRepCombiningExpression</title>
<path fill="#219ebc" stroke="none" d="M890.62,-343.75C890.62,-343.75 743.38,-343.75 743.38,-343.75 737.38,-343.75 731.38,-337.75 731.38,-331.75 731.38,-331.75 731.38,-319.75 731.38,-319.75 731.38,-313.75 737.38,-307.75 743.38,-307.75 743.38,-307.75 890.62,-307.75 890.62,-307.75 896.62,-307.75 902.62,-313.75 902.62,-319.75 902.62,-319.75 902.62,-331.75 902.62,-331.75 902.62,-337.75 896.62,-343.75 890.62,-343.75"/>
<text text-anchor="middle" x="817" y="-321.48" font-family="Helvetica,sans-Serif" font-size="12.00" fill="#ffffff">ScRepCombiningExpression</text>
</g>
<!-- CDR3Clustering -->
<g id="node15" class="node">
<title>CDR3Clustering</title>
<g id="a_node15"><a xlink:title="Cluster the TCR/BCR clones by their CDR3 sequences">
<path fill="#219ebc" stroke="none" d="M857.25,-271.75C857.25,-271.75 776.75,-271.75 776.75,-271.75 770.75,-271.75 764.75,-265.75 764.75,-259.75 764.75,-259.75 764.75,-247.75 764.75,-247.75 764.75,-241.75 770.75,-235.75 776.75,-235.75 776.75,-235.75 857.25,-235.75 857.25,-235.75 863.25,-235.75 869.25,-241.75 869.25,-247.75 869.25,-247.75 869.25,-259.75 869.25,-259.75 869.25,-265.75 863.25,-271.75 857.25,-271.75"/>
<text text-anchor="middle" x="817" y="-249.47" font-family="Helvetica,sans-Serif" font-size="12.00" fill="#ffffff">CDR3Clustering</text>
</a>
</g>
</g>
<!-- ScRepCombiningExpression&#45;&gt;CDR3Clustering -->
<g id="edge28" class="edge">
<title>ScRepCombiningExpression&#45;&gt;CDR3Clustering</title>
<path fill="none" stroke="#3d314a" d="M817,-307.8C817,-299.72 817,-289.87 817,-280.86"/>
<polygon fill="#3d314a" stroke="#3d314a" points="819.8,-281.05 817,-273.05 814.2,-281.05 819.8,-281.05"/>
</g>
<!-- ScRepLoading -->
<g id="node9" class="node">
<title>ScRepLoading</title>
<g id="a_node9"><a xlink:title="Load the single cell TCR/BCR data into a `scRepertoire` compatible object">
<path fill="#219ebc" stroke="none" d="M975.12,-775.75C975.12,-775.75 902.88,-775.75 902.88,-775.75 896.88,-775.75 890.88,-769.75 890.88,-763.75 890.88,-763.75 890.88,-751.75 890.88,-751.75 890.88,-745.75 896.88,-739.75 902.88,-739.75 902.88,-739.75 975.12,-739.75 975.12,-739.75 981.12,-739.75 987.12,-745.75 987.12,-751.75 987.12,-751.75 987.12,-763.75 987.12,-763.75 987.12,-769.75 981.12,-775.75 975.12,-775.75"/>
<text text-anchor="middle" x="939" y="-753.48" font-family="Helvetica,sans-Serif" font-size="12.00" fill="#ffffff">ScRepLoading</text>
</a>
</g>
</g>
<!-- ScRepLoading&#45;&gt;ScRepCombiningExpression -->
<g id="edge20" class="edge">
<title>ScRepLoading&#45;&gt;ScRepCombiningExpression</title>
<path fill="none" stroke="#3d314a" d="M910.64,-739.9C897.27,-730.7 882.09,-718.23 872,-703.75 848.23,-669.61 843,-656.35 843,-614.75 843,-614.75 843,-614.75 843,-468.75 843,-427.54 832.28,-380.69 824.6,-352.45"/>
<polygon fill="#3d314a" stroke="#3d314a" points="827.39,-352.03 822.54,-345.07 822,-353.53 827.39,-352.03"/>
</g>
<!-- TOrBCellSelection -->
<g id="node17" class="node">
<title>TOrBCellSelection</title>
<g id="a_node17"><a xlink:title="Separate T and non&#45;T cells and select T cells; or separate B and non&#45;B cells and select B cells.">
<path fill="#219ebc" stroke="none" d="M985.25,-703.75C985.25,-703.75 892.75,-703.75 892.75,-703.75 886.75,-703.75 880.75,-697.75 880.75,-691.75 880.75,-691.75 880.75,-679.75 880.75,-679.75 880.75,-673.75 886.75,-667.75 892.75,-667.75 892.75,-667.75 985.25,-667.75 985.25,-667.75 991.25,-667.75 997.25,-673.75 997.25,-679.75 997.25,-679.75 997.25,-691.75 997.25,-691.75 997.25,-697.75 991.25,-703.75 985.25,-703.75"/>
<text text-anchor="middle" x="939" y="-681.48" font-family="Helvetica,sans-Serif" font-size="12.00" fill="#ffffff">TOrBCellSelection</text>
</a>
</g>
</g>
<!-- ScRepLoading&#45;&gt;TOrBCellSelection -->
<g id="edge24" class="edge">
<title>ScRepLoading&#45;&gt;TOrBCellSelection</title>
<path fill="none" stroke="#3d314a" d="M939,-739.8C939,-731.72 939,-721.87 939,-712.86"/>
<polygon fill="#3d314a" stroke="#3d314a" points="941.8,-713.05 939,-705.05 936.2,-713.05 941.8,-713.05"/>
</g>
<!-- TopExpressingGenesOfAllCells -->
<g id="node10" class="node">
<title>TopExpressingGenesOfAllCells</title>
<g id="a_node10"><a xlink:title="Top expressing genes for clusters of all cells.">
<polygon fill="#f26419" stroke="none" points="1200.38,-703.75 1015.62,-703.75 1015.62,-667.75 1200.38,-667.75 1200.38,-703.75"/>
<text text-anchor="middle" x="1108" y="-681.48" font-family="Helvetica,sans-Serif" font-size="12.00" fill="#ffffff">TopExpressingGenesOfAllCells</text>
</a>
</g>
</g>
<!-- SeuratPreparing -->
<g id="node11" class="node">
<title>SeuratPreparing</title>
<g id="a_node11"><a xlink:title="Load, prepare and apply QC to data, using `Seurat`">
<path fill="#219ebc" stroke="none" d="M1107.88,-847.75C1107.88,-847.75 1028.12,-847.75 1028.12,-847.75 1022.12,-847.75 1016.12,-841.75 1016.12,-835.75 1016.12,-835.75 1016.12,-823.75 1016.12,-823.75 1016.12,-817.75 1022.12,-811.75 1028.12,-811.75 1028.12,-811.75 1107.88,-811.75 1107.88,-811.75 1113.88,-811.75 1119.88,-817.75 1119.88,-823.75 1119.88,-823.75 1119.88,-835.75 1119.88,-835.75 1119.88,-841.75 1113.88,-847.75 1107.88,-847.75"/>
<text text-anchor="middle" x="1068" y="-825.48" font-family="Helvetica,sans-Serif" font-size="12.00" fill="#ffffff">SeuratPreparing</text>
</a>
</g>
</g>
<!-- SeuratClusteringOfAllCells -->
<g id="node19" class="node">
<title>SeuratClusteringOfAllCells</title>
<g id="a_node19"><a xlink:title="Cluster all cells, including T cells/non&#45;T cells and B cells/non&#45;Bcells using Seurat.">
<path fill="#219ebc" stroke="none" d="M1164,-775.75C1164,-775.75 1028,-775.75 1028,-775.75 1022,-775.75 1016,-769.75 1016,-763.75 1016,-763.75 1016,-751.75 1016,-751.75 1016,-745.75 1022,-739.75 1028,-739.75 1028,-739.75 1164,-739.75 1164,-739.75 1170,-739.75 1176,-745.75 1176,-751.75 1176,-751.75 1176,-763.75 1176,-763.75 1176,-769.75 1170,-775.75 1164,-775.75"/>
<text text-anchor="middle" x="1096" y="-753.48" font-family="Helvetica,sans-Serif" font-size="12.00" fill="#ffffff">SeuratClusteringOfAllCells</text>
</a>
</g>
</g>
<!-- SeuratPreparing&#45;&gt;SeuratClusteringOfAllCells -->
<g id="edge10" class="edge">
<title>SeuratPreparing&#45;&gt;SeuratClusteringOfAllCells</title>
<path fill="none" stroke="#3d314a" d="M1074.78,-811.8C1078.08,-803.55 1082.12,-793.45 1085.78,-784.29"/>
<polygon fill="#3d314a" stroke="#3d314a" points="1088.35,-785.41 1088.72,-776.94 1083.15,-783.33 1088.35,-785.41"/>
</g>
<!-- CellCellCommunication -->
<g id="node12" class="node">
<title>CellCellCommunication</title>
<path fill="#219ebc" stroke="none" d="M1027.75,-124C1027.75,-124 908.25,-124 908.25,-124 902.25,-124 896.25,-118 896.25,-112 896.25,-112 896.25,-100 896.25,-100 896.25,-94 902.25,-88 908.25,-88 908.25,-88 1027.75,-88 1027.75,-88 1033.75,-88 1039.75,-94 1039.75,-100 1039.75,-100 1039.75,-112 1039.75,-112 1039.75,-118 1033.75,-124 1027.75,-124"/>
<text text-anchor="middle" x="968" y="-101.72" font-family="Helvetica,sans-Serif" font-size="12.00" fill="#ffffff">CellCellCommunication</text>
</g>
<!-- CellCellCommunicationPlots -->
<g id="node13" class="node">
<title>CellCellCommunicationPlots</title>
<polygon fill="#f26419" stroke="none" points="1053.25,-52 882.75,-52 882.75,-16 1053.25,-16 1053.25,-52"/>
<text text-anchor="middle" x="968" y="-29.73" font-family="Helvetica,sans-Serif" font-size="12.00" fill="#ffffff">CellCellCommunicationPlots</text>
</g>
<!-- CellCellCommunication&#45;&gt;CellCellCommunicationPlots -->
<g id="edge18" class="edge">
<title>CellCellCommunication&#45;&gt;CellCellCommunicationPlots</title>
<path fill="none" stroke="#3d314a" d="M968,-88.05C968,-79.97 968,-70.12 968,-61.11"/>
<polygon fill="#3d314a" stroke="#3d314a" points="970.8,-61.3 968,-53.3 965.2,-61.3 970.8,-61.3"/>
</g>
<!-- CellTypeAnnotation -->
<g id="node14" class="node">
<title>CellTypeAnnotation</title>
<g id="a_node14"><a xlink:title="Annotate all or selected T/B cell clusters.">
<path fill="#219ebc" stroke="none" d="M1013.88,-487.75C1013.88,-487.75 916.12,-487.75 916.12,-487.75 910.12,-487.75 904.12,-481.75 904.12,-475.75 904.12,-475.75 904.12,-463.75 904.12,-463.75 904.12,-457.75 910.12,-451.75 916.12,-451.75 916.12,-451.75 1013.88,-451.75 1013.88,-451.75 1019.88,-451.75 1025.88,-457.75 1025.88,-463.75 1025.88,-463.75 1025.88,-475.75 1025.88,-475.75 1025.88,-481.75 1019.88,-487.75 1013.88,-487.75"/>
<text text-anchor="middle" x="965" y="-465.48" font-family="Helvetica,sans-Serif" font-size="12.00" fill="#ffffff">CellTypeAnnotation</text>
</a>
</g>
</g>
<!-- SeuratMap2Ref -->
<g id="node23" class="node">
<title>SeuratMap2Ref</title>
<g id="a_node23"><a xlink:title="Map the seurat object to reference">
<path fill="#219ebc" stroke="none" d="M1005,-415.75C1005,-415.75 929,-415.75 929,-415.75 923,-415.75 917,-409.75 917,-403.75 917,-403.75 917,-391.75 917,-391.75 917,-385.75 923,-379.75 929,-379.75 929,-379.75 1005,-379.75 1005,-379.75 1011,-379.75 1017,-385.75 1017,-391.75 1017,-391.75 1017,-403.75 1017,-403.75 1017,-409.75 1011,-415.75 1005,-415.75"/>
<text text-anchor="middle" x="967" y="-393.48" font-family="Helvetica,sans-Serif" font-size="12.00" fill="#ffffff">SeuratMap2Ref</text>
</a>
</g>
</g>
<!-- CellTypeAnnotation&#45;&gt;SeuratMap2Ref -->
<g id="edge22" class="edge">
<title>CellTypeAnnotation&#45;&gt;SeuratMap2Ref</title>
<path fill="none" stroke="#3d314a" d="M965.48,-451.8C965.72,-443.72 966,-433.87 966.25,-424.86"/>
<polygon fill="#3d314a" stroke="#3d314a" points="969.05,-425.13 966.48,-417.05 963.45,-424.97 969.05,-425.13"/>
</g>
<!-- TESSA -->
<g id="node22" class="node">
<title>TESSA</title>
<g id="a_node22"><a xlink:title="Tessa is a Bayesian model to integrate T cell receptor (TCR) sequence profiling with transcriptomes of T cells.">
<path fill="#219ebc" stroke="none" d="M833.25,-199.75C833.25,-199.75 800.75,-199.75 800.75,-199.75 794.75,-199.75 788.75,-193.75 788.75,-187.75 788.75,-187.75 788.75,-175.75 788.75,-175.75 788.75,-169.75 794.75,-163.75 800.75,-163.75 800.75,-163.75 833.25,-163.75 833.25,-163.75 839.25,-163.75 845.25,-169.75 845.25,-175.75 845.25,-175.75 845.25,-187.75 845.25,-187.75 845.25,-193.75 839.25,-199.75 833.25,-199.75"/>
<text text-anchor="middle" x="817" y="-177.47" font-family="Helvetica,sans-Serif" font-size="12.00" fill="#ffffff">TESSA</text>
</a>
</g>
</g>
<!-- CDR3Clustering&#45;&gt;TESSA -->
<g id="edge16" class="edge">
<title>CDR3Clustering&#45;&gt;TESSA</title>
<path fill="none" stroke="#3d314a" d="M817,-235.8C817,-227.72 817,-217.87 817,-208.86"/>
<polygon fill="#3d314a" stroke="#3d314a" points="819.8,-209.05 817,-201.05 814.2,-209.05 819.8,-209.05"/>
</g>
<!-- ClusterMarkersOfAllCells -->
<g id="node16" class="node">
<title>ClusterMarkersOfAllCells</title>
<g id="a_node16"><a xlink:title="Markers for clusters of all cells.">
<polygon fill="#f26419" stroke="none" points="1369.5,-703.75 1218.5,-703.75 1218.5,-667.75 1369.5,-667.75 1369.5,-703.75"/>
<text text-anchor="middle" x="1294" y="-681.48" font-family="Helvetica,sans-Serif" font-size="12.00" fill="#ffffff">ClusterMarkersOfAllCells</text>
</a>
</g>
</g>
<!-- ModuleScoreCalculator -->
<g id="node25" class="node">
<title>ModuleScoreCalculator</title>
<g id="a_node25"><a xlink:title="Calculate the module scores for each cell">
<path fill="#219ebc" stroke="none" d="M1008,-631.75C1008,-631.75 890,-631.75 890,-631.75 884,-631.75 878,-625.75 878,-619.75 878,-619.75 878,-607.75 878,-607.75 878,-601.75 884,-595.75 890,-595.75 890,-595.75 1008,-595.75 1008,-595.75 1014,-595.75 1020,-601.75 1020,-607.75 1020,-607.75 1020,-619.75 1020,-619.75 1020,-625.75 1014,-631.75 1008,-631.75"/>
<text text-anchor="middle" x="949" y="-609.48" font-family="Helvetica,sans-Serif" font-size="12.00" fill="#ffffff">ModuleScoreCalculator</text>
</a>
</g>
</g>
<!-- TOrBCellSelection&#45;&gt;ModuleScoreCalculator -->
<g id="edge27" class="edge">
<title>TOrBCellSelection&#45;&gt;ModuleScoreCalculator</title>
<path fill="none" stroke="#3d314a" d="M941.42,-667.8C942.58,-659.72 943.98,-649.87 945.27,-640.86"/>
<polygon fill="#3d314a" stroke="#3d314a" points="948.03,-641.35 946.39,-633.04 942.48,-640.56 948.03,-641.35"/>
</g>
<!-- SampleInfo -->
<g id="node18" class="node">
<title>SampleInfo</title>
<g id="a_node18"><a xlink:title="List sample information and perform statistics">
<polygon fill="#4c956c" stroke="none" points="1012,-919.75 942.97,-901.75 1012,-883.75 1081.03,-901.75 1012,-919.75"/>
<text text-anchor="middle" x="1012" y="-897.48" font-family="Helvetica,sans-Serif" font-size="12.00" fill="#ffffff">SampleInfo</text>
</a>
</g>
</g>
<!-- SampleInfo&#45;&gt;ScRepLoading -->
<g id="edge14" class="edge">
<title>SampleInfo&#45;&gt;ScRepLoading</title>
<path fill="none" stroke="#3d314a" d="M1004.33,-885.82C991.86,-861.58 967.1,-813.41 951.9,-783.84"/>
<polygon fill="#3d314a" stroke="#3d314a" points="954.54,-782.84 948.39,-777.01 949.55,-785.41 954.54,-782.84"/>
</g>
<!-- SampleInfo&#45;&gt;SeuratPreparing -->
<g id="edge13" class="edge">
<title>SampleInfo&#45;&gt;SeuratPreparing</title>
<path fill="none" stroke="#3d314a" d="M1023.06,-886.92C1030.42,-877.73 1040.27,-865.41 1048.88,-854.65"/>
<polygon fill="#3d314a" stroke="#3d314a" points="1050.83,-856.69 1053.64,-848.7 1046.46,-853.19 1050.83,-856.69"/>
</g>
<!-- SeuratClusteringOfAllCells&#45;&gt;TopExpressingGenesOfAllCells -->
<g id="edge7" class="edge">
<title>SeuratClusteringOfAllCells&#45;&gt;TopExpressingGenesOfAllCells</title>
<path fill="none" stroke="#3d314a" d="M1098.9,-739.8C1100.29,-731.72 1101.98,-721.87 1103.52,-712.86"/>
<polygon fill="#3d314a" stroke="#3d314a" points="1106.27,-713.39 1104.87,-705.03 1100.75,-712.44 1106.27,-713.39"/>
</g>
<!-- SeuratClusteringOfAllCells&#45;&gt;ClusterMarkersOfAllCells -->
<g id="edge12" class="edge">
<title>SeuratClusteringOfAllCells&#45;&gt;ClusterMarkersOfAllCells</title>
<path fill="none" stroke="#3d314a" d="M1143.93,-739.8C1172.04,-729.87 1207.71,-717.26 1237.22,-706.82"/>
<polygon fill="#3d314a" stroke="#3d314a" points="1238.13,-709.47 1244.74,-704.16 1236.27,-704.19 1238.13,-709.47"/>
</g>
<!-- SeuratClusteringOfAllCells&#45;&gt;TOrBCellSelection -->
<g id="edge5" class="edge">
<title>SeuratClusteringOfAllCells&#45;&gt;TOrBCellSelection</title>
<path fill="none" stroke="#3d314a" d="M1057.99,-739.8C1036.19,-730.08 1008.64,-717.8 985.54,-707.5"/>
<polygon fill="#3d314a" stroke="#3d314a" points="986.76,-704.98 978.31,-704.28 984.48,-710.09 986.76,-704.98"/>
</g>
<!-- MarkersFinder -->
<g id="node20" class="node">
<title>MarkersFinder</title>
<g id="a_node20"><a xlink:title="Find markers between different groups of cells">
<polygon fill="#f26419" stroke="none" points="1150.62,-124 1057.38,-124 1057.38,-88 1150.62,-88 1150.62,-124"/>
<text text-anchor="middle" x="1104" y="-101.72" font-family="Helvetica,sans-Serif" font-size="12.00" fill="#ffffff">MarkersFinder</text>
</a>
</g>
</g>
<!-- ClusterMarkers -->
<g id="node21" class="node">
<title>ClusterMarkers</title>
<g id="a_node21"><a xlink:title="Markers for clusters of all or selected T/B cells.">
<polygon fill="#f26419" stroke="none" points="1017.5,-343.75 920.5,-343.75 920.5,-307.75 1017.5,-307.75 1017.5,-343.75"/>
<text text-anchor="middle" x="969" y="-321.48" font-family="Helvetica,sans-Serif" font-size="12.00" fill="#ffffff">ClusterMarkers</text>
</a>
</g>
</g>
<!-- TESSA&#45;&gt;MetabolicInput -->
<g id="edge26" class="edge">
<title>TESSA&#45;&gt;MetabolicInput</title>
<path fill="none" stroke="#3d314a" d="M788.95,-180.73C735.47,-180.19 615.44,-176.53 517,-155.75 485.69,-149.14 451.77,-137.56 425.04,-127.34"/>
<polygon fill="#3d314a" stroke="#3d314a" points="426.15,-124.77 417.68,-124.49 424.12,-129.99 426.15,-124.77"/>
</g>
<!-- TESSA&#45;&gt;SeuratClusterStats -->
<g id="edge25" class="edge">
<title>TESSA&#45;&gt;SeuratClusterStats</title>
<path fill="none" stroke="#3d314a" d="M788.9,-180.55C755,-179.41 696.84,-174.55 651,-155.75 636.04,-149.61 621.31,-139.47 609.48,-130.02"/>
<polygon fill="#3d314a" stroke="#3d314a" points="611.27,-127.87 603.32,-124.93 607.7,-132.18 611.27,-127.87"/>
</g>
<!-- TESSA&#45;&gt;ClonalStats -->
<g id="edge6" class="edge">
<title>TESSA&#45;&gt;ClonalStats</title>
<path fill="none" stroke="#3d314a" d="M788.76,-173.83C775.44,-169.79 759.73,-163.87 747,-155.75 736.41,-148.99 726.38,-139.5 718.26,-130.69"/>
<polygon fill="#3d314a" stroke="#3d314a" points="720.58,-129.09 713.18,-124.96 716.39,-132.8 720.58,-129.09"/>
</g>
<!-- TESSA&#45;&gt;CDR3AAPhyschem -->
<g id="edge19" class="edge">
<title>TESSA&#45;&gt;CDR3AAPhyschem</title>
<path fill="none" stroke="#3d314a" d="M817,-164.01C817,-154.93 817,-143.5 817,-133.26"/>
<polygon fill="#3d314a" stroke="#3d314a" points="819.8,-133.44 817,-125.44 814.2,-133.44 819.8,-133.44"/>
</g>
<!-- TESSA&#45;&gt;CellCellCommunication -->
<g id="edge9" class="edge">
<title>TESSA&#45;&gt;CellCellCommunication</title>
<path fill="none" stroke="#3d314a" d="M845.11,-172.13C858.1,-167.79 873.59,-162.1 887,-155.75 903.39,-147.98 920.73,-137.84 935.14,-128.81"/>
<polygon fill="#3d314a" stroke="#3d314a" points="936.29,-131.4 941.54,-124.75 933.29,-126.67 936.29,-131.4"/>
</g>
<!-- TESSA&#45;&gt;MarkersFinder -->
<g id="edge11" class="edge">
<title>TESSA&#45;&gt;MarkersFinder</title>
<path fill="none" stroke="#3d314a" d="M844.91,-179.86C898.36,-177.8 1013.06,-171.64 1049,-155.75 1061.96,-150.02 1074.02,-140.09 1083.53,-130.68"/>
<polygon fill="#3d314a" stroke="#3d314a" points="1085.4,-132.78 1088.93,-125.08 1081.36,-128.89 1085.4,-132.78"/>
</g>
<!-- ScFGSEA -->
<g id="node26" class="node">
<title>ScFGSEA</title>
<polygon fill="#f26419" stroke="none" points="1239.75,-124 1168.25,-124 1168.25,-88 1239.75,-88 1239.75,-124"/>
<text text-anchor="middle" x="1204" y="-101.72" font-family="Helvetica,sans-Serif" font-size="12.00" fill="#ffffff">ScFGSEA</text>
</g>
<!-- TESSA&#45;&gt;ScFGSEA -->
<g id="edge21" class="edge">
<title>TESSA&#45;&gt;ScFGSEA</title>
<path fill="none" stroke="#3d314a" d="M845.08,-181.36C916.78,-182.49 1104.82,-182.72 1160,-155.75 1171.2,-150.27 1180.86,-140.58 1188.26,-131.27"/>
<polygon fill="#3d314a" stroke="#3d314a" points="1190.5,-132.95 1193.02,-124.86 1186,-129.61 1190.5,-132.95"/>
</g>
<!-- SeuratMap2Ref&#45;&gt;ScRepCombiningExpression -->
<g id="edge4" class="edge">
<title>SeuratMap2Ref&#45;&gt;ScRepCombiningExpression</title>
<path fill="none" stroke="#3d314a" d="M930.69,-379.8C909.95,-370.12 883.76,-357.91 861.76,-347.64"/>
<polygon fill="#3d314a" stroke="#3d314a" points="863.04,-345.15 854.61,-344.3 860.67,-350.22 863.04,-345.15"/>
</g>
<!-- SeuratMap2Ref&#45;&gt;ClusterMarkers -->
<g id="edge23" class="edge">
<title>SeuratMap2Ref&#45;&gt;ClusterMarkers</title>
<path fill="none" stroke="#3d314a" d="M967.48,-379.8C967.72,-371.72 968,-361.87 968.25,-352.86"/>
<polygon fill="#3d314a" stroke="#3d314a" points="971.05,-353.13 968.48,-345.05 965.45,-352.97 971.05,-353.13"/>
</g>
<!-- TopExpressingGenes -->
<g id="node24" class="node">
<title>TopExpressingGenes</title>
<g id="a_node24"><a xlink:title="Top expressing genes for clusters of all or selected T/B cells.">
<polygon fill="#f26419" stroke="none" points="1166.38,-343.75 1035.62,-343.75 1035.62,-307.75 1166.38,-307.75 1166.38,-343.75"/>
<text text-anchor="middle" x="1101" y="-321.48" font-family="Helvetica,sans-Serif" font-size="12.00" fill="#ffffff">TopExpressingGenes</text>
</a>
</g>
</g>
<!-- SeuratMap2Ref&#45;&gt;TopExpressingGenes -->
<g id="edge17" class="edge">
<title>SeuratMap2Ref&#45;&gt;TopExpressingGenes</title>
<path fill="none" stroke="#3d314a" d="M999.44,-379.8C1017.79,-370.22 1040.91,-358.14 1060.45,-347.93"/>
<polygon fill="#3d314a" stroke="#3d314a" points="1061.73,-350.43 1067.52,-344.24 1059.13,-345.46 1061.73,-350.43"/>
</g>
<!-- SeuratClustering -->
<g id="node27" class="node">
<title>SeuratClustering</title>
<g id="a_node27"><a xlink:title="Cluster all cells or selected T/B cells selected by `TOrBCellSelection`.">
<path fill="#219ebc" stroke="none" d="M993,-559.75C993,-559.75 911,-559.75 911,-559.75 905,-559.75 899,-553.75 899,-547.75 899,-547.75 899,-535.75 899,-535.75 899,-529.75 905,-523.75 911,-523.75 911,-523.75 993,-523.75 993,-523.75 999,-523.75 1005,-529.75 1005,-535.75 1005,-535.75 1005,-547.75 1005,-547.75 1005,-553.75 999,-559.75 993,-559.75"/>
<text text-anchor="middle" x="952" y="-537.48" font-family="Helvetica,sans-Serif" font-size="12.00" fill="#ffffff">SeuratClustering</text>
</a>
</g>
</g>
<!-- ModuleScoreCalculator&#45;&gt;SeuratClustering -->
<g id="edge8" class="edge">
<title>ModuleScoreCalculator&#45;&gt;SeuratClustering</title>
<path fill="none" stroke="#3d314a" d="M949.73,-595.8C950.07,-587.72 950.49,-577.87 950.88,-568.86"/>
<polygon fill="#3d314a" stroke="#3d314a" points="953.67,-569.16 951.22,-561.05 948.08,-568.92 953.67,-569.16"/>
</g>
<!-- SeuratClustering&#45;&gt;CellTypeAnnotation -->
<g id="edge15" class="edge">
<title>SeuratClustering&#45;&gt;CellTypeAnnotation</title>
<path fill="none" stroke="#3d314a" d="M955.15,-523.8C956.65,-515.72 958.48,-505.87 960.15,-496.86"/>
<polygon fill="#3d314a" stroke="#3d314a" points="962.9,-497.4 961.61,-489.03 957.39,-496.38 962.9,-497.4"/>
</g>
</g>
</svg>
