<?xml version="1.0" encoding="UTF-8" standalone="no"?>
<!DOCTYPE svg PUBLIC "-//W3C//DTD SVG 1.1//EN"
 "http://www.w3.org/Graphics/SVG/1.1/DTD/svg11.dtd">
<!-- Generated by graphviz version 7.0.5 (20221231.0122)
 -->
<!-- Title: ImmunopipeMinimal Pages: 1 -->
<svg width="311pt" height="370pt"
 viewBox="0.00 0.00 310.50 370.00" xmlns="http://www.w3.org/2000/svg" xmlns:xlink="http://www.w3.org/1999/xlink">
<g id="graph0" class="graph" transform="scale(1 1) rotate(0) translate(4 366)">
<title>ImmunopipeMinimal</title>
<polygon fill="white" stroke="none" points="-4,4 -4,-366 306.5,-366 306.5,4 -4,4"/>
<text text-anchor="middle" x="151.25" y="-346.8" font-family="Helvetica,sans-Serif" font-size="14.00">ImmunopipeMinimal</text>
<text text-anchor="middle" x="151.25" y="-331.8" font-family="Helvetica,sans-Serif" font-size="14.00"> </text>
<!-- Immunarch -->
<g id="node1" class="node">
<title>Immunarch</title>
<g id="a_node1"><a xlink:title="Exploration of Single&#45;cell and Bulk T&#45;cell/Antibody Immune Repertoires">
<polygon fill="none" stroke="black" points="302.5,-36 216.5,-36 216.5,0 302.5,0 302.5,-36"/>
<text text-anchor="middle" x="259.5" y="-14.9" font-family="Helvetica,sans-Serif" font-size="12.00">Immunarch</text>
</a>
</g>
</g>
<!-- SeuratClustering -->
<g id="node2" class="node">
<title>SeuratClustering</title>
<g id="a_node2"><a xlink:title="Cluster all T cells or selected T cells selected by `TCellSelection`.">
<path fill="none" stroke="black" d="M130.5,-180C130.5,-180 38.5,-180 38.5,-180 32.5,-180 26.5,-174 26.5,-168 26.5,-168 26.5,-156 26.5,-156 26.5,-150 32.5,-144 38.5,-144 38.5,-144 130.5,-144 130.5,-144 136.5,-144 142.5,-150 142.5,-156 142.5,-156 142.5,-168 142.5,-168 142.5,-174 136.5,-180 130.5,-180"/>
<text text-anchor="middle" x="84.5" y="-158.9" font-family="Helvetica,sans-Serif" font-size="12.00">SeuratClustering</text>
</a>
</g>
</g>
<!-- ClusterMarkers -->
<g id="node4" class="node">
<title>ClusterMarkers</title>
<g id="a_node4"><a xlink:title="Markers for clusters of all or selected T cells.">
<polygon fill="none" stroke="black" points="107,-108 0,-108 0,-72 107,-72 107,-108"/>
<text text-anchor="middle" x="53.5" y="-86.9" font-family="Helvetica,sans-Serif" font-size="12.00">ClusterMarkers</text>
</a>
</g>
</g>
<!-- SeuratClustering&#45;&gt;ClusterMarkers -->
<g id="edge6" class="edge">
<title>SeuratClustering&#45;&gt;ClusterMarkers</title>
<path fill="none" stroke="black" d="M76.84,-143.7C73.23,-135.56 68.86,-125.69 64.88,-116.7"/>
<polygon fill="black" stroke="black" points="67.49,-115.67 61.69,-109.49 62.37,-117.94 67.49,-115.67"/>
</g>
<!-- IntegratingTCR -->
<g id="node8" class="node">
<title>IntegratingTCR</title>
<g id="a_node8"><a xlink:title="Attach TCR clone information as meta columns to Seurat object">
<path fill="none" stroke="black" d="M219.5,-108C219.5,-108 137.5,-108 137.5,-108 131.5,-108 125.5,-102 125.5,-96 125.5,-96 125.5,-84 125.5,-84 125.5,-78 131.5,-72 137.5,-72 137.5,-72 219.5,-72 219.5,-72 225.5,-72 231.5,-78 231.5,-84 231.5,-84 231.5,-96 231.5,-96 231.5,-102 225.5,-108 219.5,-108"/>
<text text-anchor="middle" x="178.5" y="-86.9" font-family="Helvetica,sans-Serif" font-size="12.00">IntegratingTCR</text>
</a>
</g>
</g>
<!-- SeuratClustering&#45;&gt;IntegratingTCR -->
<g id="edge3" class="edge">
<title>SeuratClustering&#45;&gt;IntegratingTCR</title>
<path fill="none" stroke="black" d="M107.74,-143.7C119.83,-134.69 134.76,-123.57 147.79,-113.87"/>
<polygon fill="black" stroke="black" points="149.25,-116.27 153.99,-109.25 145.9,-111.78 149.25,-116.27"/>
</g>
<!-- SampleInfo -->
<g id="node3" class="node">
<title>SampleInfo</title>
<g id="a_node3"><a xlink:title="List sample information and perform statistics">
<polygon fill="none" stroke="black" points="155.5,-324 81.5,-306 155.5,-288 229.5,-306 155.5,-324"/>
<text text-anchor="middle" x="155.5" y="-302.9" font-family="Helvetica,sans-Serif" font-size="12.00">SampleInfo</text>
</a>
</g>
</g>
<!-- SeuratPreparing -->
<g id="node5" class="node">
<title>SeuratPreparing</title>
<g id="a_node5"><a xlink:title="Load, prepare and apply QC to data, using `Seurat`">
<path fill="none" stroke="black" d="M158,-252C158,-252 69,-252 69,-252 63,-252 57,-246 57,-240 57,-240 57,-228 57,-228 57,-222 63,-216 69,-216 69,-216 158,-216 158,-216 164,-216 170,-222 170,-228 170,-228 170,-240 170,-240 170,-246 164,-252 158,-252"/>
<text text-anchor="middle" x="113.5" y="-230.9" font-family="Helvetica,sans-Serif" font-size="12.00">SeuratPreparing</text>
</a>
</g>
</g>
<!-- SampleInfo&#45;&gt;SeuratPreparing -->
<g id="edge8" class="edge">
<title>SampleInfo&#45;&gt;SeuratPreparing</title>
<path fill="none" stroke="black" d="M146.39,-289.81C141.18,-281.14 134.53,-270.05 128.57,-260.12"/>
<polygon fill="black" stroke="black" points="131.07,-258.84 124.55,-253.42 126.27,-261.73 131.07,-258.84"/>
</g>
<!-- ImmunarchLoading -->
<g id="node6" class="node">
<title>ImmunarchLoading</title>
<g id="a_node6"><a xlink:title="Immuarch &#45; Loading data">
<path fill="none" stroke="black" d="M282,-180C282,-180 173,-180 173,-180 167,-180 161,-174 161,-168 161,-168 161,-156 161,-156 161,-150 167,-144 173,-144 173,-144 282,-144 282,-144 288,-144 294,-150 294,-156 294,-156 294,-168 294,-168 294,-174 288,-180 282,-180"/>
<text text-anchor="middle" x="227.5" y="-158.9" font-family="Helvetica,sans-Serif" font-size="12.00">ImmunarchLoading</text>
</a>
</g>
</g>
<!-- SampleInfo&#45;&gt;ImmunarchLoading -->
<g id="edge2" class="edge">
<title>SampleInfo&#45;&gt;ImmunarchLoading</title>
<path fill="none" stroke="black" d="M163.34,-289.53C175.68,-265.2 199.76,-217.71 214.65,-188.34"/>
<polygon fill="black" stroke="black" points="216.97,-189.96 218.09,-181.56 211.97,-187.43 216.97,-189.96"/>
</g>
<!-- SeuratPreparing&#45;&gt;SeuratClustering -->
<g id="edge1" class="edge">
<title>SeuratPreparing&#45;&gt;SeuratClustering</title>
<path fill="none" stroke="black" d="M106.33,-215.7C102.96,-207.56 98.87,-197.69 95.15,-188.7"/>
<polygon fill="black" stroke="black" points="97.81,-187.82 92.17,-181.5 92.64,-189.97 97.81,-187.82"/>
</g>
<!-- ImmunarchLoading&#45;&gt;Immunarch -->
<g id="edge4" class="edge">
<title>ImmunarchLoading&#45;&gt;Immunarch</title>
<path fill="none" stroke="black" d="M231.85,-143.85C234.44,-133.48 237.75,-120 240.5,-108 245.3,-87.08 250.35,-63.3 254.04,-45.59"/>
<polygon fill="black" stroke="black" points="256.75,-46.31 255.63,-37.91 251.27,-45.18 256.75,-46.31"/>
</g>
<!-- ImmunarchLoading&#45;&gt;IntegratingTCR -->
<g id="edge9" class="edge">
<title>ImmunarchLoading&#45;&gt;IntegratingTCR</title>
<path fill="none" stroke="black" d="M215.39,-143.7C209.51,-135.3 202.35,-125.07 195.9,-115.86"/>
<polygon fill="black" stroke="black" points="198.22,-114.29 191.34,-109.34 193.63,-117.5 198.22,-114.29"/>
</g>
<!-- SeuratClusterStats -->
<g id="node7" class="node">
<title>SeuratClusterStats</title>
<polygon fill="none" stroke="black" points="198.5,-36 70.5,-36 70.5,0 198.5,0 198.5,-36"/>
<text text-anchor="middle" x="134.5" y="-14.9" font-family="Helvetica,sans-Serif" font-size="12.00">SeuratClusterStats</text>
</g>
<!-- IntegratingTCR&#45;&gt;Immunarch -->
<g id="edge5" class="edge">
<title>IntegratingTCR&#45;&gt;Immunarch</title>
<path fill="none" stroke="black" d="M198.52,-71.7C208.74,-62.86 221.33,-51.99 232.41,-42.41"/>
<polygon fill="black" stroke="black" points="234.06,-44.69 238.28,-37.34 230.4,-40.45 234.06,-44.69"/>
</g>
<!-- IntegratingTCR&#45;&gt;SeuratClusterStats -->
<g id="edge7" class="edge">
<title>IntegratingTCR&#45;&gt;SeuratClusterStats</title>
<path fill="none" stroke="black" d="M167.62,-71.7C162.4,-63.39 156.05,-53.28 150.3,-44.14"/>
<polygon fill="black" stroke="black" points="152.68,-42.67 146.06,-37.39 147.94,-45.65 152.68,-42.67"/>
</g>
</g>
</svg>
