<?xml version="1.0" encoding="UTF-8" standalone="no"?>
<!DOCTYPE svg PUBLIC "-//W3C//DTD SVG 1.1//EN"
 "http://www.w3.org/Graphics/SVG/1.1/DTD/svg11.dtd">
<!-- Generated by graphviz version 11.0.0 (20240519.1550)
 -->
<!-- Title: ImmunopipeMinimal Pages: 1 -->
<svg width="309pt" height="375pt"
 viewBox="0.00 0.00 308.88 374.50" xmlns="http://www.w3.org/2000/svg" xmlns:xlink="http://www.w3.org/1999/xlink">
<g id="graph0" class="graph" transform="scale(1 1) rotate(0) translate(4 370.5)">
<title>ImmunopipeMinimal</title>
<polygon fill="white" stroke="none" points="-4,4 -4,-370.5 304.88,-370.5 304.88,4 -4,4"/>
<text text-anchor="middle" x="150.44" y="-349.2" font-family="Helvetica,sans-Serif" font-size="14.00">ImmunopipeMinimal</text>
<text text-anchor="middle" x="150.44" y="-331.95" font-family="Helvetica,sans-Serif" font-size="14.00"> </text>
<!-- ClusterMarkers -->
<g id="node1" class="node">
<title>ClusterMarkers</title>
<g id="a_node1"><a xlink:title="Markers for clusters of all or selected T cells.">
<polygon fill="none" stroke="black" points="300.88,-108 194.12,-108 194.12,-72 300.88,-72 300.88,-108"/>
<text text-anchor="middle" x="247.5" y="-85.72" font-family="Helvetica,sans-Serif" font-size="12.00">ClusterMarkers</text>
</a>
</g>
</g>
<!-- SampleInfo -->
<g id="node2" class="node">
<title>SampleInfo</title>
<g id="a_node2"><a xlink:title="List sample information and perform statistics">
<polygon fill="none" stroke="black" points="144.5,-324 68.72,-306 144.5,-288 220.28,-306 144.5,-324"/>
<text text-anchor="middle" x="144.5" y="-301.73" font-family="Helvetica,sans-Serif" font-size="12.00">SampleInfo</text>
</a>
</g>
</g>
<!-- ImmunarchLoading -->
<g id="node4" class="node">
<title>ImmunarchLoading</title>
<g id="a_node4"><a xlink:title="Immuarch &#45; Loading data">
<path fill="none" stroke="black" d="M127.62,-180C127.62,-180 19.38,-180 19.38,-180 13.38,-180 7.38,-174 7.38,-168 7.38,-168 7.38,-156 7.38,-156 7.38,-150 13.38,-144 19.38,-144 19.38,-144 127.62,-144 127.62,-144 133.62,-144 139.62,-150 139.62,-156 139.62,-156 139.62,-168 139.62,-168 139.62,-174 133.62,-180 127.62,-180"/>
<text text-anchor="middle" x="73.5" y="-157.72" font-family="Helvetica,sans-Serif" font-size="12.00">ImmunarchLoading</text>
</a>
</g>
</g>
<!-- SampleInfo&#45;&gt;ImmunarchLoading -->
<g id="edge6" class="edge">
<title>SampleInfo&#45;&gt;ImmunarchLoading</title>
<path fill="none" stroke="black" d="M136.77,-289.53C124.65,-265.3 101.06,-218.12 86.36,-188.72"/>
<polygon fill="black" stroke="black" points="88.86,-187.47 82.78,-181.56 83.86,-189.97 88.86,-187.47"/>
</g>
<!-- SeuratPreparing -->
<g id="node7" class="node">
<title>SeuratPreparing</title>
<g id="a_node7"><a xlink:title="Load, prepare and apply QC to data, using `Seurat`">
<path fill="none" stroke="black" d="M244.88,-252C244.88,-252 156.12,-252 156.12,-252 150.12,-252 144.12,-246 144.12,-240 144.12,-240 144.12,-228 144.12,-228 144.12,-222 150.12,-216 156.12,-216 156.12,-216 244.88,-216 244.88,-216 250.88,-216 256.88,-222 256.88,-228 256.88,-228 256.88,-240 256.88,-240 256.88,-246 250.88,-252 244.88,-252"/>
<text text-anchor="middle" x="200.5" y="-229.72" font-family="Helvetica,sans-Serif" font-size="12.00">SeuratPreparing</text>
</a>
</g>
</g>
<!-- SampleInfo&#45;&gt;SeuratPreparing -->
<g id="edge8" class="edge">
<title>SampleInfo&#45;&gt;SeuratPreparing</title>
<path fill="none" stroke="black" d="M156.1,-290.5C163.22,-281.6 172.51,-269.98 180.76,-259.67"/>
<polygon fill="black" stroke="black" points="182.78,-261.64 185.59,-253.64 178.4,-258.14 182.78,-261.64"/>
</g>
<!-- Immunarch -->
<g id="node3" class="node">
<title>Immunarch</title>
<g id="a_node3"><a xlink:title="Exploration of Single&#45;cell and Bulk T&#45;cell/Antibody Immune Repertoires">
<polygon fill="none" stroke="black" points="85,-36 0,-36 0,0 85,0 85,-36"/>
<text text-anchor="middle" x="42.5" y="-13.72" font-family="Helvetica,sans-Serif" font-size="12.00">Immunarch</text>
</a>
</g>
</g>
<!-- ImmunarchLoading&#45;&gt;Immunarch -->
<g id="edge5" class="edge">
<title>ImmunarchLoading&#45;&gt;Immunarch</title>
<path fill="none" stroke="black" d="M69.56,-143.83C67.19,-133.46 64.13,-119.98 61.5,-108 56.89,-87.04 51.82,-63.26 48.08,-45.56"/>
<polygon fill="black" stroke="black" points="50.85,-45.14 46.46,-37.89 45.37,-46.3 50.85,-45.14"/>
</g>
<!-- IntegratingTCR -->
<g id="node8" class="node">
<title>IntegratingTCR</title>
<g id="a_node8"><a xlink:title="Attach TCR clone information as meta columns to Seurat object">
<path fill="none" stroke="black" d="M164.12,-108C164.12,-108 82.88,-108 82.88,-108 76.88,-108 70.88,-102 70.88,-96 70.88,-96 70.88,-84 70.88,-84 70.88,-78 76.88,-72 82.88,-72 82.88,-72 164.12,-72 164.12,-72 170.12,-72 176.12,-78 176.12,-84 176.12,-84 176.12,-96 176.12,-96 176.12,-102 170.12,-108 164.12,-108"/>
<text text-anchor="middle" x="123.5" y="-85.72" font-family="Helvetica,sans-Serif" font-size="12.00">IntegratingTCR</text>
</a>
</g>
</g>
<!-- ImmunarchLoading&#45;&gt;IntegratingTCR -->
<g id="edge7" class="edge">
<title>ImmunarchLoading&#45;&gt;IntegratingTCR</title>
<path fill="none" stroke="black" d="M85.86,-143.7C91.91,-135.22 99.31,-124.86 105.94,-115.58"/>
<polygon fill="black" stroke="black" points="108.03,-117.47 110.4,-109.34 103.47,-114.22 108.03,-117.47"/>
</g>
<!-- SeuratClusterStats -->
<g id="node5" class="node">
<title>SeuratClusterStats</title>
<polygon fill="none" stroke="black" points="230.38,-36 102.62,-36 102.62,0 230.38,0 230.38,-36"/>
<text text-anchor="middle" x="166.5" y="-13.72" font-family="Helvetica,sans-Serif" font-size="12.00">SeuratClusterStats</text>
</g>
<!-- SeuratClustering -->
<g id="node6" class="node">
<title>SeuratClustering</title>
<g id="a_node6"><a xlink:title="Cluster all T cells or selected T cells selected by `TCellSelection`.">
<path fill="none" stroke="black" d="M261.38,-180C261.38,-180 169.62,-180 169.62,-180 163.62,-180 157.62,-174 157.62,-168 157.62,-168 157.62,-156 157.62,-156 157.62,-150 163.62,-144 169.62,-144 169.62,-144 261.38,-144 261.38,-144 267.38,-144 273.38,-150 273.38,-156 273.38,-156 273.38,-168 273.38,-168 273.38,-174 267.38,-180 261.38,-180"/>
<text text-anchor="middle" x="215.5" y="-157.72" font-family="Helvetica,sans-Serif" font-size="12.00">SeuratClustering</text>
</a>
</g>
</g>
<!-- SeuratClustering&#45;&gt;ClusterMarkers -->
<g id="edge1" class="edge">
<title>SeuratClustering&#45;&gt;ClusterMarkers</title>
<path fill="none" stroke="black" d="M223.41,-143.7C227.13,-135.56 231.64,-125.69 235.75,-116.7"/>
<polygon fill="black" stroke="black" points="238.27,-117.92 239.05,-109.48 233.18,-115.59 238.27,-117.92"/>
</g>
<!-- SeuratClustering&#45;&gt;IntegratingTCR -->
<g id="edge3" class="edge">
<title>SeuratClustering&#45;&gt;IntegratingTCR</title>
<path fill="none" stroke="black" d="M192.76,-143.7C180.93,-134.69 166.31,-123.57 153.56,-113.87"/>
<polygon fill="black" stroke="black" points="155.57,-111.88 147.5,-109.26 152.17,-116.34 155.57,-111.88"/>
</g>
<!-- SeuratPreparing&#45;&gt;SeuratClustering -->
<g id="edge4" class="edge">
<title>SeuratPreparing&#45;&gt;SeuratClustering</title>
<path fill="none" stroke="black" d="M204.21,-215.7C205.92,-207.73 207.98,-198.1 209.87,-189.26"/>
<polygon fill="black" stroke="black" points="212.58,-189.99 211.52,-181.58 207.1,-188.82 212.58,-189.99"/>
</g>
<!-- IntegratingTCR&#45;&gt;Immunarch -->
<g id="edge2" class="edge">
<title>IntegratingTCR&#45;&gt;Immunarch</title>
<path fill="none" stroke="black" d="M103.48,-71.7C93.26,-62.86 80.67,-51.99 69.59,-42.41"/>
<polygon fill="black" stroke="black" points="71.6,-40.45 63.72,-37.34 67.94,-44.69 71.6,-40.45"/>
</g>
<!-- IntegratingTCR&#45;&gt;SeuratClusterStats -->
<g id="edge9" class="edge">
<title>IntegratingTCR&#45;&gt;SeuratClusterStats</title>
<path fill="none" stroke="black" d="M134.13,-71.7C139.23,-63.39 145.44,-53.28 151.06,-44.14"/>
<polygon fill="black" stroke="black" points="153.4,-45.68 155.2,-37.39 148.63,-42.75 153.4,-45.68"/>
</g>
</g>
</svg>
