<?xml version="1.0" encoding="UTF-8" standalone="no"?>
<!DOCTYPE svg PUBLIC "-//W3C//DTD SVG 1.1//EN"
 "http://www.w3.org/Graphics/SVG/1.1/DTD/svg11.dtd">
<!-- Generated by graphviz version 12.0.0 (20240803.0821)
 -->
<!-- Title: ImmunopipeMinimal Pages: 1 -->
<svg width="309pt" height="375pt"
 viewBox="0.00 0.00 308.88 374.50" xmlns="http://www.w3.org/2000/svg" xmlns:xlink="http://www.w3.org/1999/xlink">
<g id="graph0" class="graph" transform="scale(1 1) rotate(0) translate(4 370.5)">
<title>ImmunopipeMinimal</title>
<polygon fill="white" stroke="none" points="-4,4 -4,-370.5 304.88,-370.5 304.88,4 -4,4"/>
<text text-anchor="middle" x="150.44" y="-349.2" font-family="Helvetica,sans-Serif" font-size="14.00">ImmunopipeMinimal</text>
<text text-anchor="middle" x="150.44" y="-331.95" font-family="Helvetica,sans-Serif" font-size="14.00"> </text>
<!-- SeuratClustering -->
<g id="node1" class="node">
<title>SeuratClustering</title>
<g id="a_node1"><a xlink:title="Cluster all T cells or selected T cells selected by `TCellSelection`.">
<path fill="none" stroke="black" d="M130.25,-180C130.25,-180 38.5,-180 38.5,-180 32.5,-180 26.5,-174 26.5,-168 26.5,-168 26.5,-156 26.5,-156 26.5,-150 32.5,-144 38.5,-144 38.5,-144 130.25,-144 130.25,-144 136.25,-144 142.25,-150 142.25,-156 142.25,-156 142.25,-168 142.25,-168 142.25,-174 136.25,-180 130.25,-180"/>
<text text-anchor="middle" x="84.38" y="-157.72" font-family="Helvetica,sans-Serif" font-size="12.00">SeuratClustering</text>
</a>
</g>
</g>
<!-- IntegratingTCR -->
<g id="node5" class="node">
<title>IntegratingTCR</title>
<g id="a_node5"><a xlink:title="Attach TCR clone information as meta columns to Seurat object">
<path fill="none" stroke="black" d="M218,-108C218,-108 136.75,-108 136.75,-108 130.75,-108 124.75,-102 124.75,-96 124.75,-96 124.75,-84 124.75,-84 124.75,-78 130.75,-72 136.75,-72 136.75,-72 218,-72 218,-72 224,-72 230,-78 230,-84 230,-84 230,-96 230,-96 230,-102 224,-108 218,-108"/>
<text text-anchor="middle" x="177.38" y="-85.72" font-family="Helvetica,sans-Serif" font-size="12.00">IntegratingTCR</text>
</a>
</g>
</g>
<!-- SeuratClustering&#45;&gt;IntegratingTCR -->
<g id="edge5" class="edge">
<title>SeuratClustering&#45;&gt;IntegratingTCR</title>
<path fill="none" stroke="black" d="M107.36,-143.7C119.32,-134.69 134.1,-123.57 146.99,-113.87"/>
<polygon fill="black" stroke="black" points="148.41,-116.31 153.12,-109.26 145.04,-111.83 148.41,-116.31"/>
</g>
<!-- ClusterMarkers -->
<g id="node8" class="node">
<title>ClusterMarkers</title>
<g id="a_node8"><a xlink:title="Markers for clusters of all or selected T cells.">
<polygon fill="none" stroke="black" points="106.75,-108 0,-108 0,-72 106.75,-72 106.75,-108"/>
<text text-anchor="middle" x="53.38" y="-85.72" font-family="Helvetica,sans-Serif" font-size="12.00">ClusterMarkers</text>
</a>
</g>
</g>
<!-- SeuratClustering&#45;&gt;ClusterMarkers -->
<g id="edge2" class="edge">
<title>SeuratClustering&#45;&gt;ClusterMarkers</title>
<path fill="none" stroke="black" d="M76.71,-143.7C73.11,-135.56 68.74,-125.69 64.76,-116.7"/>
<polygon fill="black" stroke="black" points="67.36,-115.67 61.56,-109.49 62.24,-117.94 67.36,-115.67"/>
</g>
<!-- SeuratClusterStats -->
<g id="node2" class="node">
<title>SeuratClusterStats</title>
<polygon fill="none" stroke="black" points="198.25,-36 70.5,-36 70.5,0 198.25,0 198.25,-36"/>
<text text-anchor="middle" x="134.38" y="-13.72" font-family="Helvetica,sans-Serif" font-size="12.00">SeuratClusterStats</text>
</g>
<!-- SeuratPreparing -->
<g id="node3" class="node">
<title>SeuratPreparing</title>
<g id="a_node3"><a xlink:title="Load, prepare and apply QC to data, using `Seurat`">
<path fill="none" stroke="black" d="M157.75,-252C157.75,-252 69,-252 69,-252 63,-252 57,-246 57,-240 57,-240 57,-228 57,-228 57,-222 63,-216 69,-216 69,-216 157.75,-216 157.75,-216 163.75,-216 169.75,-222 169.75,-228 169.75,-228 169.75,-240 169.75,-240 169.75,-246 163.75,-252 157.75,-252"/>
<text text-anchor="middle" x="113.38" y="-229.72" font-family="Helvetica,sans-Serif" font-size="12.00">SeuratPreparing</text>
</a>
</g>
</g>
<!-- SeuratPreparing&#45;&gt;SeuratClustering -->
<g id="edge8" class="edge">
<title>SeuratPreparing&#45;&gt;SeuratClustering</title>
<path fill="none" stroke="black" d="M106.21,-215.7C102.84,-207.56 98.75,-197.69 95.02,-188.7"/>
<polygon fill="black" stroke="black" points="97.69,-187.82 92.04,-181.5 92.52,-189.97 97.69,-187.82"/>
</g>
<!-- SampleInfo -->
<g id="node4" class="node">
<title>SampleInfo</title>
<g id="a_node4"><a xlink:title="List sample information and perform statistics">
<polygon fill="none" stroke="black" points="155.38,-324 79.59,-306 155.37,-288 231.16,-306 155.38,-324"/>
<text text-anchor="middle" x="155.38" y="-301.73" font-family="Helvetica,sans-Serif" font-size="12.00">SampleInfo</text>
</a>
</g>
</g>
<!-- SampleInfo&#45;&gt;SeuratPreparing -->
<g id="edge1" class="edge">
<title>SampleInfo&#45;&gt;SeuratPreparing</title>
<path fill="none" stroke="black" d="M146.26,-289.81C141.06,-281.14 134.41,-270.05 128.45,-260.12"/>
<polygon fill="black" stroke="black" points="130.95,-258.84 124.43,-253.42 126.14,-261.73 130.95,-258.84"/>
</g>
<!-- ImmunarchLoading -->
<g id="node7" class="node">
<title>ImmunarchLoading</title>
<g id="a_node7"><a xlink:title="Immuarch &#45; Loading data">
<path fill="none" stroke="black" d="M280.5,-180C280.5,-180 172.25,-180 172.25,-180 166.25,-180 160.25,-174 160.25,-168 160.25,-168 160.25,-156 160.25,-156 160.25,-150 166.25,-144 172.25,-144 172.25,-144 280.5,-144 280.5,-144 286.5,-144 292.5,-150 292.5,-156 292.5,-156 292.5,-168 292.5,-168 292.5,-174 286.5,-180 280.5,-180"/>
<text text-anchor="middle" x="226.38" y="-157.72" font-family="Helvetica,sans-Serif" font-size="12.00">ImmunarchLoading</text>
</a>
</g>
</g>
<!-- SampleInfo&#45;&gt;ImmunarchLoading -->
<g id="edge4" class="edge">
<title>SampleInfo&#45;&gt;ImmunarchLoading</title>
<path fill="none" stroke="black" d="M163.11,-289.53C175.22,-265.3 198.81,-218.12 213.52,-188.72"/>
<polygon fill="black" stroke="black" points="216.02,-189.97 217.09,-181.56 211.01,-187.47 216.02,-189.97"/>
</g>
<!-- IntegratingTCR&#45;&gt;SeuratClusterStats -->
<g id="edge6" class="edge">
<title>IntegratingTCR&#45;&gt;SeuratClusterStats</title>
<path fill="none" stroke="black" d="M166.75,-71.7C161.64,-63.39 155.43,-53.28 149.82,-44.14"/>
<polygon fill="black" stroke="black" points="152.25,-42.75 145.67,-37.39 147.48,-45.68 152.25,-42.75"/>
</g>
<!-- Immunarch -->
<g id="node6" class="node">
<title>Immunarch</title>
<g id="a_node6"><a xlink:title="Exploration of Single&#45;cell and Bulk T&#45;cell/Antibody Immune Repertoires">
<polygon fill="none" stroke="black" points="300.88,-36 215.88,-36 215.88,0 300.88,0 300.88,-36"/>
<text text-anchor="middle" x="258.38" y="-13.72" font-family="Helvetica,sans-Serif" font-size="12.00">Immunarch</text>
</a>
</g>
</g>
<!-- IntegratingTCR&#45;&gt;Immunarch -->
<g id="edge7" class="edge">
<title>IntegratingTCR&#45;&gt;Immunarch</title>
<path fill="none" stroke="black" d="M197.4,-71.7C207.62,-62.86 220.2,-51.99 231.28,-42.41"/>
<polygon fill="black" stroke="black" points="232.93,-44.69 237.16,-37.34 229.27,-40.45 232.93,-44.69"/>
</g>
<!-- ImmunarchLoading&#45;&gt;IntegratingTCR -->
<g id="edge9" class="edge">
<title>ImmunarchLoading&#45;&gt;IntegratingTCR</title>
<path fill="none" stroke="black" d="M214.26,-143.7C208.39,-135.3 201.22,-125.07 194.78,-115.86"/>
<polygon fill="black" stroke="black" points="197.1,-114.29 190.22,-109.34 192.51,-117.5 197.1,-114.29"/>
</g>
<!-- ImmunarchLoading&#45;&gt;Immunarch -->
<g id="edge3" class="edge">
<title>ImmunarchLoading&#45;&gt;Immunarch</title>
<path fill="none" stroke="black" d="M230.72,-143.85C233.31,-133.48 236.62,-120 239.38,-108 244.17,-87.08 249.23,-63.3 252.92,-45.59"/>
<polygon fill="black" stroke="black" points="255.63,-46.31 254.51,-37.91 250.14,-45.18 255.63,-46.31"/>
</g>
</g>
</svg>
