<?xml version="1.0" encoding="UTF-8" standalone="no"?>
<!DOCTYPE svg PUBLIC "-//W3C//DTD SVG 1.1//EN"
 "http://www.w3.org/Graphics/SVG/1.1/DTD/svg11.dtd">
<!-- Generated by graphviz version 7.0.5 (20221231.0122)
 -->
<!-- Title: ImmunopipeMinimal Pages: 1 -->
<svg width="311pt" height="370pt"
 viewBox="0.00 0.00 310.50 370.00" xmlns="http://www.w3.org/2000/svg" xmlns:xlink="http://www.w3.org/1999/xlink">
<g id="graph0" class="graph" transform="scale(1 1) rotate(0) translate(4 366)">
<title>ImmunopipeMinimal</title>
<polygon fill="white" stroke="none" points="-4,4 -4,-366 306.5,-366 306.5,4 -4,4"/>
<text text-anchor="middle" x="151.25" y="-346.8" font-family="Helvetica,sans-Serif" font-size="14.00">ImmunopipeMinimal</text>
<text text-anchor="middle" x="151.25" y="-331.8" font-family="Helvetica,sans-Serif" font-size="14.00"> </text>
<!-- IntegratingTCR -->
<g id="node1" class="node">
<title>IntegratingTCR</title>
<g id="a_node1"><a xlink:title="Attach TCR clone information as meta columns to Seurat object">
<path fill="none" stroke="black" d="M165,-108C165,-108 83,-108 83,-108 77,-108 71,-102 71,-96 71,-96 71,-84 71,-84 71,-78 77,-72 83,-72 83,-72 165,-72 165,-72 171,-72 177,-78 177,-84 177,-84 177,-96 177,-96 177,-102 171,-108 165,-108"/>
<text text-anchor="middle" x="124" y="-86.9" font-family="Helvetica,sans-Serif" font-size="12.00">IntegratingTCR</text>
</a>
</g>
</g>
<!-- SeuratClusterStats -->
<g id="node2" class="node">
<title>SeuratClusterStats</title>
<polygon fill="none" stroke="black" points="232,-36 104,-36 104,0 232,0 232,-36"/>
<text text-anchor="middle" x="168" y="-14.9" font-family="Helvetica,sans-Serif" font-size="12.00">SeuratClusterStats</text>
</g>
<!-- IntegratingTCR&#45;&gt;SeuratClusterStats -->
<g id="edge8" class="edge">
<title>IntegratingTCR&#45;&gt;SeuratClusterStats</title>
<path fill="none" stroke="black" d="M134.88,-71.7C140.1,-63.39 146.45,-53.28 152.2,-44.14"/>
<polygon fill="black" stroke="black" points="154.56,-45.65 156.44,-37.39 149.82,-42.67 154.56,-45.65"/>
</g>
<!-- Immunarch -->
<g id="node7" class="node">
<title>Immunarch</title>
<g id="a_node7"><a xlink:title="Exploration of Single&#45;cell and Bulk T&#45;cell/Antibody Immune Repertoires">
<polygon fill="none" stroke="black" points="86,-36 0,-36 0,0 86,0 86,-36"/>
<text text-anchor="middle" x="43" y="-14.9" font-family="Helvetica,sans-Serif" font-size="12.00">Immunarch</text>
</a>
</g>
</g>
<!-- IntegratingTCR&#45;&gt;Immunarch -->
<g id="edge5" class="edge">
<title>IntegratingTCR&#45;&gt;Immunarch</title>
<path fill="none" stroke="black" d="M103.98,-71.7C93.76,-62.86 81.17,-51.99 70.09,-42.41"/>
<polygon fill="black" stroke="black" points="72.1,-40.45 64.22,-37.34 68.44,-44.69 72.1,-40.45"/>
</g>
<!-- SeuratClustering -->
<g id="node3" class="node">
<title>SeuratClustering</title>
<g id="a_node3"><a xlink:title="Cluster all T cells or selected T cells selected by `TCellSelection`.">
<path fill="none" stroke="black" d="M263,-180C263,-180 171,-180 171,-180 165,-180 159,-174 159,-168 159,-168 159,-156 159,-156 159,-150 165,-144 171,-144 171,-144 263,-144 263,-144 269,-144 275,-150 275,-156 275,-156 275,-168 275,-168 275,-174 269,-180 263,-180"/>
<text text-anchor="middle" x="217" y="-158.9" font-family="Helvetica,sans-Serif" font-size="12.00">SeuratClustering</text>
</a>
</g>
</g>
<!-- SeuratClustering&#45;&gt;IntegratingTCR -->
<g id="edge3" class="edge">
<title>SeuratClustering&#45;&gt;IntegratingTCR</title>
<path fill="none" stroke="black" d="M194.01,-143.7C182.05,-134.69 167.27,-123.57 154.38,-113.87"/>
<polygon fill="black" stroke="black" points="156.33,-111.83 148.26,-109.26 152.96,-116.31 156.33,-111.83"/>
</g>
<!-- ClusterMarkers -->
<g id="node4" class="node">
<title>ClusterMarkers</title>
<g id="a_node4"><a xlink:title="Markers for clusters of all or selected T cells.">
<polygon fill="none" stroke="black" points="302.5,-108 195.5,-108 195.5,-72 302.5,-72 302.5,-108"/>
<text text-anchor="middle" x="249" y="-86.9" font-family="Helvetica,sans-Serif" font-size="12.00">ClusterMarkers</text>
</a>
</g>
</g>
<!-- SeuratClustering&#45;&gt;ClusterMarkers -->
<g id="edge2" class="edge">
<title>SeuratClustering&#45;&gt;ClusterMarkers</title>
<path fill="none" stroke="black" d="M224.91,-143.7C228.63,-135.56 233.14,-125.69 237.25,-116.7"/>
<polygon fill="black" stroke="black" points="239.77,-117.92 240.55,-109.48 234.68,-115.59 239.77,-117.92"/>
</g>
<!-- ImmunarchLoading -->
<g id="node5" class="node">
<title>ImmunarchLoading</title>
<g id="a_node5"><a xlink:title="Immuarch &#45; Loading data">
<path fill="none" stroke="black" d="M128.5,-180C128.5,-180 19.5,-180 19.5,-180 13.5,-180 7.5,-174 7.5,-168 7.5,-168 7.5,-156 7.5,-156 7.5,-150 13.5,-144 19.5,-144 19.5,-144 128.5,-144 128.5,-144 134.5,-144 140.5,-150 140.5,-156 140.5,-156 140.5,-168 140.5,-168 140.5,-174 134.5,-180 128.5,-180"/>
<text text-anchor="middle" x="74" y="-158.9" font-family="Helvetica,sans-Serif" font-size="12.00">ImmunarchLoading</text>
</a>
</g>
</g>
<!-- ImmunarchLoading&#45;&gt;IntegratingTCR -->
<g id="edge4" class="edge">
<title>ImmunarchLoading&#45;&gt;IntegratingTCR</title>
<path fill="none" stroke="black" d="M86.36,-143.7C92.41,-135.22 99.81,-124.86 106.44,-115.58"/>
<polygon fill="black" stroke="black" points="108.53,-117.47 110.9,-109.34 103.97,-114.22 108.53,-117.47"/>
</g>
<!-- ImmunarchLoading&#45;&gt;Immunarch -->
<g id="edge6" class="edge">
<title>ImmunarchLoading&#45;&gt;Immunarch</title>
<path fill="none" stroke="black" d="M70.06,-143.83C67.69,-133.46 64.63,-119.98 62,-108 57.39,-87.04 52.32,-63.26 48.58,-45.56"/>
<polygon fill="black" stroke="black" points="51.35,-45.14 46.96,-37.89 45.87,-46.3 51.35,-45.14"/>
</g>
<!-- SeuratPreparing -->
<g id="node6" class="node">
<title>SeuratPreparing</title>
<g id="a_node6"><a xlink:title="Load, prepare and apply QC to data, using `Seurat`">
<path fill="none" stroke="black" d="M246.5,-252C246.5,-252 157.5,-252 157.5,-252 151.5,-252 145.5,-246 145.5,-240 145.5,-240 145.5,-228 145.5,-228 145.5,-222 151.5,-216 157.5,-216 157.5,-216 246.5,-216 246.5,-216 252.5,-216 258.5,-222 258.5,-228 258.5,-228 258.5,-240 258.5,-240 258.5,-246 252.5,-252 246.5,-252"/>
<text text-anchor="middle" x="202" y="-230.9" font-family="Helvetica,sans-Serif" font-size="12.00">SeuratPreparing</text>
</a>
</g>
</g>
<!-- SeuratPreparing&#45;&gt;SeuratClustering -->
<g id="edge1" class="edge">
<title>SeuratPreparing&#45;&gt;SeuratClustering</title>
<path fill="none" stroke="black" d="M205.71,-215.7C207.42,-207.73 209.48,-198.1 211.37,-189.26"/>
<polygon fill="black" stroke="black" points="214.08,-189.99 213.02,-181.58 208.6,-188.82 214.08,-189.99"/>
</g>
<!-- SampleInfo -->
<g id="node8" class="node">
<title>SampleInfo</title>
<g id="a_node8"><a xlink:title="List sample information and perform statistics">
<polygon fill="none" stroke="black" points="145,-324 71,-306 145,-288 219,-306 145,-324"/>
<text text-anchor="middle" x="145" y="-302.9" font-family="Helvetica,sans-Serif" font-size="12.00">SampleInfo</text>
</a>
</g>
</g>
<!-- SampleInfo&#45;&gt;ImmunarchLoading -->
<g id="edge7" class="edge">
<title>SampleInfo&#45;&gt;ImmunarchLoading</title>
<path fill="none" stroke="black" d="M137.27,-289.53C125.15,-265.3 101.56,-218.12 86.86,-188.72"/>
<polygon fill="black" stroke="black" points="89.36,-187.47 83.28,-181.56 84.36,-189.97 89.36,-187.47"/>
</g>
<!-- SampleInfo&#45;&gt;SeuratPreparing -->
<g id="edge9" class="edge">
<title>SampleInfo&#45;&gt;SeuratPreparing</title>
<path fill="none" stroke="black" d="M156.81,-290.5C164.05,-281.6 173.51,-269.98 181.91,-259.67"/>
<polygon fill="black" stroke="black" points="183.95,-261.6 186.83,-253.63 179.61,-258.07 183.95,-261.6"/>
</g>
</g>
</svg>
