<?xml version="1.0" encoding="UTF-8" standalone="no"?>
<!DOCTYPE svg PUBLIC "-//W3C//DTD SVG 1.1//EN"
 "http://www.w3.org/Graphics/SVG/1.1/DTD/svg11.dtd">
<!-- Generated by graphviz version 12.2.1 (20250203.1708)
 -->
<!-- Title: ImmunopipeMinimal Pages: 1 -->
<svg width="305pt" height="372pt"
 viewBox="0.00 0.00 304.62 371.50" xmlns="http://www.w3.org/2000/svg" xmlns:xlink="http://www.w3.org/1999/xlink">
<g id="graph0" class="graph" transform="scale(1 1) rotate(0) translate(4 367.5)">
<title>ImmunopipeMinimal</title>
<polygon fill="white" stroke="none" points="-4,4 -4,-367.5 300.62,-367.5 300.62,4 -4,4"/>
<text text-anchor="middle" x="148.31" y="-346.2" font-family="Helvetica,sans-Serif" font-size="14.00">ImmunopipeMinimal</text>
<text text-anchor="middle" x="148.31" y="-330.45" font-family="Helvetica,sans-Serif" font-size="14.00"> </text>
<!-- SampleInfo -->
<g id="node1" class="node">
<title>SampleInfo</title>
<g id="a_node1"><a xlink:title="List sample information and perform statistics">
<polygon fill="none" stroke="black" points="155.12,-324 86.09,-306 155.12,-288 224.16,-306 155.12,-324"/>
<text text-anchor="middle" x="155.12" y="-301.73" font-family="Helvetica,sans-Serif" font-size="12.00">SampleInfo</text>
</a>
</g>
</g>
<!-- ScRepLoading -->
<g id="node2" class="node">
<title>ScRepLoading</title>
<g id="a_node2"><a xlink:title="Load the single cell TCR/BCR data into a `scRepertoire` compatible object">
<path fill="none" stroke="black" d="M132.25,-180C132.25,-180 60,-180 60,-180 54,-180 48,-174 48,-168 48,-168 48,-156 48,-156 48,-150 54,-144 60,-144 60,-144 132.25,-144 132.25,-144 138.25,-144 144.25,-150 144.25,-156 144.25,-156 144.25,-168 144.25,-168 144.25,-174 138.25,-180 132.25,-180"/>
<text text-anchor="middle" x="96.12" y="-157.72" font-family="Helvetica,sans-Serif" font-size="12.00">ScRepLoading</text>
</a>
</g>
</g>
<!-- SampleInfo&#45;&gt;ScRepLoading -->
<g id="edge4" class="edge">
<title>SampleInfo&#45;&gt;ScRepLoading</title>
<path fill="none" stroke="black" d="M148.59,-289.26C138.47,-264.92 118.93,-217.89 106.76,-188.61"/>
<polygon fill="black" stroke="black" points="109.48,-187.84 103.82,-181.53 104.31,-189.99 109.48,-187.84"/>
</g>
<!-- SeuratPreparing -->
<g id="node6" class="node">
<title>SeuratPreparing</title>
<g id="a_node6"><a xlink:title="Load, prepare and apply QC to data, using `Seurat`">
<path fill="none" stroke="black" d="M245,-252C245,-252 165.25,-252 165.25,-252 159.25,-252 153.25,-246 153.25,-240 153.25,-240 153.25,-228 153.25,-228 153.25,-222 159.25,-216 165.25,-216 165.25,-216 245,-216 245,-216 251,-216 257,-222 257,-228 257,-228 257,-240 257,-240 257,-246 251,-252 245,-252"/>
<text text-anchor="middle" x="205.12" y="-229.72" font-family="Helvetica,sans-Serif" font-size="12.00">SeuratPreparing</text>
</a>
</g>
</g>
<!-- SampleInfo&#45;&gt;SeuratPreparing -->
<g id="edge5" class="edge">
<title>SampleInfo&#45;&gt;SeuratPreparing</title>
<path fill="none" stroke="black" d="M165.49,-290.5C171.78,-281.69 179.98,-270.21 187.29,-259.97"/>
<polygon fill="black" stroke="black" points="189.4,-261.83 191.78,-253.69 184.85,-258.57 189.4,-261.83"/>
</g>
<!-- ScRepCombiningExpression -->
<g id="node4" class="node">
<title>ScRepCombiningExpression</title>
<path fill="none" stroke="black" d="M169.75,-108C169.75,-108 22.5,-108 22.5,-108 16.5,-108 10.5,-102 10.5,-96 10.5,-96 10.5,-84 10.5,-84 10.5,-78 16.5,-72 22.5,-72 22.5,-72 169.75,-72 169.75,-72 175.75,-72 181.75,-78 181.75,-84 181.75,-84 181.75,-96 181.75,-96 181.75,-102 175.75,-108 169.75,-108"/>
<text text-anchor="middle" x="96.12" y="-85.72" font-family="Helvetica,sans-Serif" font-size="12.00">ScRepCombiningExpression</text>
</g>
<!-- ScRepLoading&#45;&gt;ScRepCombiningExpression -->
<g id="edge3" class="edge">
<title>ScRepLoading&#45;&gt;ScRepCombiningExpression</title>
<path fill="none" stroke="black" d="M96.12,-143.7C96.12,-135.81 96.12,-126.3 96.12,-117.55"/>
<polygon fill="black" stroke="black" points="98.93,-117.62 96.13,-109.62 93.33,-117.62 98.93,-117.62"/>
</g>
<!-- ClonalStats -->
<g id="node3" class="node">
<title>ClonalStats</title>
<polygon fill="none" stroke="black" points="78.25,-36 0,-36 0,0 78.25,0 78.25,-36"/>
<text text-anchor="middle" x="39.12" y="-13.72" font-family="Helvetica,sans-Serif" font-size="12.00">ClonalStats</text>
</g>
<!-- ScRepCombiningExpression&#45;&gt;ClonalStats -->
<g id="edge7" class="edge">
<title>ScRepCombiningExpression&#45;&gt;ClonalStats</title>
<path fill="none" stroke="black" d="M82.04,-71.7C75.06,-63.14 66.53,-52.66 58.92,-43.3"/>
<polygon fill="black" stroke="black" points="61.23,-41.71 54.01,-37.28 56.89,-45.25 61.23,-41.71"/>
</g>
<!-- SeuratClusterStats -->
<g id="node5" class="node">
<title>SeuratClusterStats</title>
<polygon fill="none" stroke="black" points="212.38,-36 95.88,-36 95.88,0 212.38,0 212.38,-36"/>
<text text-anchor="middle" x="154.12" y="-13.72" font-family="Helvetica,sans-Serif" font-size="12.00">SeuratClusterStats</text>
</g>
<!-- ScRepCombiningExpression&#45;&gt;SeuratClusterStats -->
<g id="edge2" class="edge">
<title>ScRepCombiningExpression&#45;&gt;SeuratClusterStats</title>
<path fill="none" stroke="black" d="M110.46,-71.7C117.56,-63.14 126.24,-52.66 133.99,-43.3"/>
<polygon fill="black" stroke="black" points="136.04,-45.22 138.99,-37.27 131.73,-41.64 136.04,-45.22"/>
</g>
<!-- SeuratClustering -->
<g id="node8" class="node">
<title>SeuratClustering</title>
<g id="a_node8"><a xlink:title="Cluster all cells or selected T/B cells selected by `TOrBCellSelection`.">
<path fill="none" stroke="black" d="M256.12,-180C256.12,-180 174.12,-180 174.12,-180 168.12,-180 162.12,-174 162.12,-168 162.12,-168 162.12,-156 162.12,-156 162.12,-150 168.12,-144 174.12,-144 174.12,-144 256.12,-144 256.12,-144 262.12,-144 268.12,-150 268.12,-156 268.12,-156 268.12,-168 268.12,-168 268.12,-174 262.12,-180 256.12,-180"/>
<text text-anchor="middle" x="215.12" y="-157.72" font-family="Helvetica,sans-Serif" font-size="12.00">SeuratClustering</text>
</a>
</g>
</g>
<!-- SeuratPreparing&#45;&gt;SeuratClustering -->
<g id="edge1" class="edge">
<title>SeuratPreparing&#45;&gt;SeuratClustering</title>
<path fill="none" stroke="black" d="M207.6,-215.7C208.74,-207.73 210.11,-198.1 211.37,-189.26"/>
<polygon fill="black" stroke="black" points="214.11,-189.92 212.47,-181.6 208.56,-189.13 214.11,-189.92"/>
</g>
<!-- ClusterMarkers -->
<g id="node7" class="node">
<title>ClusterMarkers</title>
<g id="a_node7"><a xlink:title="Markers for clusters of all or selected T/B cells.">
<polygon fill="none" stroke="black" points="296.62,-108 199.62,-108 199.62,-72 296.62,-72 296.62,-108"/>
<text text-anchor="middle" x="248.12" y="-85.72" font-family="Helvetica,sans-Serif" font-size="12.00">ClusterMarkers</text>
</a>
</g>
</g>
<!-- SeuratClustering&#45;&gt;ScRepCombiningExpression -->
<g id="edge6" class="edge">
<title>SeuratClustering&#45;&gt;ScRepCombiningExpression</title>
<path fill="none" stroke="black" d="M185.4,-143.52C169.67,-134.26 150.19,-122.8 133.44,-112.95"/>
<polygon fill="black" stroke="black" points="135.09,-110.67 126.77,-109.03 132.25,-115.5 135.09,-110.67"/>
</g>
<!-- SeuratClustering&#45;&gt;ClusterMarkers -->
<g id="edge8" class="edge">
<title>SeuratClustering&#45;&gt;ClusterMarkers</title>
<path fill="none" stroke="black" d="M223.28,-143.7C227.12,-135.56 231.77,-125.69 236.01,-116.7"/>
<polygon fill="black" stroke="black" points="238.54,-117.9 239.42,-109.47 233.47,-115.52 238.54,-117.9"/>
</g>
</g>
</svg>
